<?xml version="1.0" encoding="utf-8"?>
<!-- Generator: Adobe Illustrator 16.0.0, SVG Export Plug-In . SVG Version: 6.00 Build 0)  -->
<!DOCTYPE svg PUBLIC "-//W3C//DTD SVG 1.1//EN" "http://www.w3.org/Graphics/SVG/1.1/DTD/svg11.dtd">
<svg version="1.1" id="Layer_1" xmlns="http://www.w3.org/2000/svg" xmlns:xlink="http://www.w3.org/1999/xlink" x="0px" y="0px"
	 width="775.145px" height="200.207px" viewBox="21.656 41.9 775.145 200.207" enable-background="new 21.656 41.9 775.145 200.207"
	 xml:space="preserve">
<g>
	<path d="M136.781,53.81c15.688,7.939,27.69,19.38,36.012,34.311c8.316,14.936,12.477,32.707,12.477,53.309
		c0,20.417-4.16,38.046-12.477,52.884c-8.321,14.843-20.324,26.186-36.012,34.027c-15.693,7.847-34.502,11.768-56.429,11.768H21.656
		V41.9h58.696C102.279,41.9,121.088,45.87,136.781,53.81z M143.444,201.969c14.462-14.461,21.692-34.639,21.692-60.54
		c0-26.087-7.23-46.454-21.692-61.106c-14.462-14.647-35.493-21.976-63.092-21.976H41.505v165.314h38.848
		C107.951,223.661,128.982,216.431,143.444,201.969z"/>
	<path d="M360.637,41.9v16.446h-87.336v74.009h73.725v16.446h-73.725v91.306h-19.85V41.9H360.637z"/>
	<path d="M383.67,118.319c6.332-12.003,15.121-21.268,26.371-27.789c11.244-6.521,23.961-9.783,38.139-9.783
		c14.744,0,27.457,3.403,38.139,10.209c10.678,6.805,18.383,15.502,23.109,26.087V83.016h19.85v154.823h-19.85v-34.311
		c-4.918,10.589-12.715,19.331-23.393,26.229c-10.684,6.902-23.395,10.35-38.139,10.35c-13.992,0-26.611-3.306-37.855-9.925
		c-11.25-6.614-20.039-15.972-26.371-28.072c-6.336-12.096-9.5-26.087-9.5-41.967C374.17,144.265,377.334,130.326,383.67,118.319z
		 M501.771,127.534c-5.104-9.45-12.051-16.729-20.842-21.834c-8.789-5.104-18.479-7.655-29.064-7.655
		c-10.965,0-20.797,2.459-29.49,7.372c-8.697,4.918-15.551,12.052-20.557,21.409c-5.012,9.357-7.516,20.465-7.516,33.317
		c0,12.667,2.504,23.775,7.516,33.318c5.006,9.548,11.859,16.827,20.557,21.834c8.693,5.011,18.525,7.515,29.49,7.515
		c10.586,0,20.275-2.553,29.064-7.656c8.791-5.104,15.738-12.379,20.842-21.834c5.105-9.45,7.656-20.416,7.656-32.893
		S506.877,136.989,501.771,127.534z"/>
	<path d="M565.211,120.319c6.424-12.003,15.311-21.268,26.654-27.789c11.342-6.521,24.289-9.783,38.848-9.783
		c19.092,0,34.828,4.728,47.211,14.179c12.381,9.454,20.369,22.308,23.961,38.563h-21.266c-2.65-11.151-8.365-19.894-17.156-26.229
		c-8.789-6.331-19.707-9.499-32.75-9.499c-10.398,0-19.756,2.366-28.072,7.089c-8.322,4.728-14.887,11.768-19.707,21.125
		c-4.822,9.357-7.232,20.842-7.232,34.453c0,13.61,2.41,25.144,7.232,34.594c4.82,9.455,11.385,16.544,19.707,21.267
		c8.316,4.728,17.674,7.089,28.072,7.089c13.043,0,23.961-3.163,32.75-9.499c8.791-6.331,14.506-15.17,17.156-26.513h21.266
		c-3.592,15.88-11.625,28.64-24.102,38.28c-12.477,9.642-28.17,14.462-47.07,14.462c-14.559,0-27.506-3.261-38.848-9.783
		c-11.344-6.521-20.23-15.781-26.654-27.788c-6.43-12.003-9.643-26.039-9.643-42.108
		C555.568,146.362,558.781,132.326,565.211,120.319z"/>
	<path d="M754.266,102.015v96.126c0,9.455,1.795,15.977,5.389,19.565c3.588,3.594,9.924,5.388,18.998,5.388h18.148v17.014h-21.268
		c-13.992,0-24.387-3.261-31.191-9.783c-6.805-6.521-10.209-17.248-10.209-32.184v-96.126h-21.549v-16.73h21.549V46.438h20.133
		v38.847h42.535v16.73H754.266z"/>
	<path d="M203.934,217.437c6.264,0,11.336,5.072,11.336,11.335c0,6.264-5.072,11.336-11.336,11.336
		c-6.263,0-11.336-5.072-11.336-11.336C192.598,222.509,197.671,217.437,203.934,217.437z"/>
</g>
</svg>
