<?xml version="1.0" encoding="UTF-8" standalone="no"?>
<!-- Created with Inkscape (http://www.inkscape.org/) -->

<svg
   version="1.1"
   id="svg1"
   width="3333.3333"
   height="3333.3333"
   viewBox="0 0 3333.3333 3333.3333"
   sodipodi:docname="bwink_ppl_05_single_05.eps"
   xmlns:inkscape="http://www.inkscape.org/namespaces/inkscape"
   xmlns:sodipodi="http://sodipodi.sourceforge.net/DTD/sodipodi-0.dtd"
   xmlns="http://www.w3.org/2000/svg"
   xmlns:svg="http://www.w3.org/2000/svg">
  <defs
     id="defs1" />
  <sodipodi:namedview
     id="namedview1"
     pagecolor="transprent"
     bordercolor="#000000"
     borderopacity="0.25"
     inkscape:showpageshadow="2"
     inkscape:pageopacity="0.0"
     inkscape:pagecheckerboard="0"
     inkscape:deskcolor="#d1d1d1">
    <inkscape:page
       x="0"
       y="0"
       inkscape:label="1"
       id="page1"
       width="3333.3333"
       height="3333.3333"
       margin="0"
       bleed="0" />
  </sodipodi:namedview>
  <g
     id="g1"
     inkscape:groupmode="layer"
     inkscape:label="1">
    <g
       id="group-R5">
      <path
         id="path2"
         d="M 25000,0 H 0 V 25000 H 25000 V 0"
         style="fill:transparent;fill-opacity:1;fill-rule:nonzero;stroke:none"
         transform="matrix(0.13333333,0,0,-0.13333333,0,3333.3333)" />
      <path
         id="path3"
         d="m 13462.9,3915.9 c -477.8,0 -892.7,48.8 -1218.2,107.3 -728.2,130.7 -1179.1,336.9 -1183.6,339 -11.2,5.2 -16.1,18.5 -10.9,29.8 5.2,11.2 18.5,16.1 29.7,10.9 4.4,-2 451.4,-206.2 1174.4,-335.9 666.9,-119.6 1712.1,-198.5 2903.3,105.2 12,3 24.2,-4.2 27.3,-16.2 3.1,-12 -4.2,-24.2 -16.2,-27.3 -618.3,-157.6 -1197.6,-212.8 -1705.8,-212.8"
         style="fill:#000000;fill-opacity:1;fill-rule:nonzero;stroke:none"
         transform="matrix(0.13333333,0,0,-0.13333333,0,3333.3333)" />
      <path
         id="path4"
         d="m 13036.2,3561.2 c -173.9,0 -385.5,8.3 -621.1,34.5 -593.3,65.9 -1464.8,261.6 -2247.2,820.1 -10.1,7.2 -12.4,21.2 -5.2,31.2 7.2,10.1 21.1,12.4 31.2,5.3 1482.2,-1057.9 3308.8,-823.9 3327,-821.4 12.3,1.7 23.6,-7 25.3,-19.2 1.7,-12.3 -6.9,-23.6 -19.2,-25.3 -2.9,-0.4 -190.5,-25.2 -490.8,-25.2"
         style="fill:#000000;fill-opacity:1;fill-rule:nonzero;stroke:none"
         transform="matrix(0.13333333,0,0,-0.13333333,0,3333.3333)" />
      <path
         id="path5"
         d="m 15345.7,20105.7 c -4.5,0 -9.1,1.3 -13,4.2 -5.1,3.6 -519.4,364.1 -1473.9,574 -881.1,193.8 -2328.2,295.2 -4218.83,-322.2 -11.79,-3.9 -24.41,2.6 -28.27,14.4 -3.84,11.8 2.59,24.4 14.35,28.3 1901.65,620.9 3358.05,518.2 4245.15,322.7 962.5,-212.1 1482.3,-577.1 1487.5,-580.7 10.1,-7.2 12.4,-21.2 5.2,-31.3 -4.3,-6.1 -11.2,-9.4 -18.2,-9.4"
         style="fill:#000000;fill-opacity:1;fill-rule:nonzero;stroke:none"
         transform="matrix(0.13333333,0,0,-0.13333333,0,3333.3333)" />
      <path
         id="path6"
         d="m 15964.3,20253.2 c -5.2,0 -10.4,1.8 -14.7,5.4 -4.6,4 -469.5,400.7 -1386,689.1 -846.1,266.3 -2261,492.1 -4197,56.1 -12.1,-2.7 -24.1,4.9 -26.8,16.9 -2.7,12.1 4.9,24.1 16.9,26.8 1947.3,438.6 3371.4,210.6 4223.1,-57.9 924.4,-291.4 1394.5,-693.1 1399.2,-697.1 9.3,-8.1 10.3,-22.2 2.2,-31.6 -4.4,-5.1 -10.6,-7.7 -16.9,-7.7"
         style="fill:#000000;fill-opacity:1;fill-rule:nonzero;stroke:none"
         transform="matrix(0.13333333,0,0,-0.13333333,0,3333.3333)" />
      <path
         id="path7"
         d="m 16791.1,20165 c -30.2,0 -56.4,7.1 -78.8,21.2 -53.4,33.7 -61.9,93.2 -70.2,150.8 -7.8,54.3 -15.1,105.6 -56.9,138.4 -50,39.1 -116.4,24 -186.6,8 -77.1,-17.6 -156.8,-35.7 -223.8,15.5 -59.4,45.4 -67.2,115.3 -74.1,177 -6.6,59 -12.3,110 -56.8,136.6 -37.9,22.7 -82,14.6 -128.5,6.1 -54.6,-10 -116.4,-21.3 -168.6,23.3 -27.4,23.4 -37.8,49.7 -47,72.9 -9.1,22.9 -16.3,40.9 -38.2,54.6 -35.3,21.8 -87.3,19.5 -154.8,-7.1 -11.5,-4.5 -24.5,1.1 -29.1,12.7 -4.5,11.5 1.2,24.5 12.7,29 81.3,32.1 146.9,33.2 194.8,3.4 34.5,-21.4 46.1,-50.4 56.2,-76 8.4,-21.1 15.6,-39.3 34.5,-55.4 36,-30.7 80.2,-22.7 131.4,-13.3 50.3,9.2 107.2,19.6 159.6,-11.7 63.6,-38 71.1,-105.2 78.4,-170.2 6.4,-57.8 12.5,-112.5 56.7,-146.3 50.4,-38.5 116.5,-23.4 186.6,-7.4 77.4,17.6 157.5,35.9 224.3,-16.5 55.9,-43.8 65.3,-109.4 73.6,-167.2 7.4,-51.9 13.8,-96.6 49.7,-119.3 50.6,-31.9 142.6,-8.6 265.9,67.2 10.5,6.4 24.4,3.1 30.9,-7.4 6.5,-10.5 3.2,-24.4 -7.4,-30.8 -95.7,-58.9 -173.3,-88.1 -234.5,-88.1"
         style="fill:#000000;fill-opacity:1;fill-rule:nonzero;stroke:none"
         transform="matrix(0.13333333,0,0,-0.13333333,0,3333.3333)" />
      <path
         id="path8"
         d="m 3988.9,10169.6 c -4.75,0 -9.53,1.5 -13.59,4.6 -9.84,7.5 -11.71,21.6 -4.19,31.4 l 105.66,138.1 c 7.55,9.8 21.6,11.7 31.42,4.2 9.84,-7.5 11.71,-21.6 4.19,-31.4 l -105.66,-138.1 c -4.42,-5.8 -11.09,-8.8 -17.83,-8.8"
         style="fill:#000000;fill-opacity:1;fill-rule:nonzero;stroke:none"
         transform="matrix(0.13333333,0,0,-0.13333333,0,3333.3333)" />
      <path
         id="path9"
         d="m 3742.79,9847.9 c -4.76,0 -9.54,1.5 -13.6,4.6 -9.84,7.5 -11.71,21.6 -4.2,31.4 l 105.65,138.1 c 7.56,9.8 21.64,11.7 31.43,4.2 9.83,-7.5 11.71,-21.6 4.19,-31.4 l -105.65,-138.1 c -4.42,-5.8 -11.08,-8.8 -17.82,-8.8"
         style="fill:#000000;fill-opacity:1;fill-rule:nonzero;stroke:none"
         transform="matrix(0.13333333,0,0,-0.13333333,0,3333.3333)" />
      <path
         id="path10"
         d="m 3826.88,10148 c -4.76,0 -9.55,1.5 -13.6,4.6 l -138.1,105.7 c -9.84,7.5 -11.71,21.6 -4.19,31.4 7.56,9.9 21.62,11.7 31.42,4.2 l 138.1,-105.7 c 9.84,-7.5 11.71,-21.5 4.19,-31.4 -4.42,-5.7 -11.09,-8.8 -17.82,-8.8"
         style="fill:#000000;fill-opacity:1;fill-rule:nonzero;stroke:none"
         transform="matrix(0.13333333,0,0,-0.13333333,0,3333.3333)" />
      <path
         id="path11"
         d="m 4148.58,9901.9 c -4.76,0 -9.54,1.5 -13.6,4.6 l -138.1,105.7 c -9.84,7.5 -11.71,21.5 -4.19,31.4 7.55,9.8 21.64,11.7 31.42,4.2 l 138.1,-105.7 c 9.84,-7.5 11.71,-21.6 4.19,-31.4 -4.42,-5.8 -11.09,-8.8 -17.82,-8.8"
         style="fill:#000000;fill-opacity:1;fill-rule:nonzero;stroke:none"
         transform="matrix(0.13333333,0,0,-0.13333333,0,3333.3333)" />
      <path
         id="path12"
         d="m 17510.7,19621 c -92.8,-41.7 -135,-153 -94.1,-247.9 20,-46.4 56.5,-81.8 102.8,-99.8 45.2,-17.6 94.6,-16.4 138.8,3.6 92.9,41.7 135.1,152.9 94.1,247.9 -20,46.4 -56.5,81.8 -102.7,99.8 -45.3,17.6 -94.6,16.3 -138.9,-3.6 z m 73.9,-404.9 c -27.5,0 -55,5.1 -81.5,15.4 -57.5,22.4 -102.9,66.4 -127.6,123.8 -50.6,117.3 1.8,254.9 116.8,306.6 55.4,24.9 117,26.5 173.5,4.5 57.6,-22.4 102.9,-66.4 127.7,-123.9 50.6,-117.3 -1.9,-254.8 -116.9,-306.5 -29.5,-13.3 -60.7,-19.9 -92,-19.9"
         style="fill:#000000;fill-opacity:1;fill-rule:nonzero;stroke:none"
         transform="matrix(0.13333333,0,0,-0.13333333,0,3333.3333)" />
      <path
         id="path13"
         d="M 20767.9,18854.7 H 20699 L 19437.3,5294.6 h 149.1 c 317.7,0 597.7,257.6 625.4,575.3 l 1081.3,12409.5 c 27.7,317.8 -207.4,575.3 -525.2,575.3"
         style="fill:transparent;fill-opacity:1;fill-rule:nonzero;stroke:none"
         transform="matrix(0.13333333,0,0,-0.13333333,0,3333.3333)" />
      <path
         id="path14"
         d="m 19461.9,5317 h 124.5 c 305.9,0 576.5,248.9 603.1,554.8 l 1081.3,12409.6 c 12.8,147.7 -32.6,286.4 -128,390.4 -94.8,103.5 -228,160.5 -374.9,160.5 h -48.5 z m 124.5,-44.8 h -149.1 c -6.3,0 -12.3,2.6 -16.5,7.3 -4.3,4.7 -6.4,10.9 -5.8,17.2 l 1261.7,13560.1 c 1,11.5 10.7,20.3 22.3,20.3 h 68.9 c 159.6,0 304.5,-62.1 407.9,-175 104,-113.4 153.6,-264.2 139.6,-424.6 L 20234.2,5867.9 c -28.7,-328.5 -319.2,-595.7 -647.8,-595.7"
         style="fill:#000000;fill-opacity:1;fill-rule:nonzero;stroke:none"
         transform="matrix(0.13333333,0,0,-0.13333333,0,3333.3333)" />
      <path
         id="path15"
         d="M 20487.4,18854.7 H 6283.42 c -317.72,0 -597.72,-257.5 -625.41,-575.3 L 4576.74,5869.9 c -27.68,-317.7 207.44,-575.3 525.16,-575.3 h 14204 c 317.7,0 597.7,257.6 625.4,575.3 l 1081.3,12409.5 c 27.7,317.8 -207.5,575.3 -525.2,575.3"
         style="fill:transparent;fill-opacity:1;fill-rule:nonzero;stroke:none"
         transform="matrix(0.13333333,0,0,-0.13333333,0,3333.3333)" />
      <path
         id="path16"
         d="m 6283.42,18832.3 c -305.89,0 -576.41,-248.9 -603.08,-554.8 L 4599.07,5867.9 c -12.87,-147.7 32.57,-286.4 127.96,-390.4 C 4821.88,5374 4955.01,5317 5101.89,5317 H 19305.9 c 305.9,0 576.4,248.9 603.1,554.8 l 1081.3,12409.6 c 12.8,147.7 -32.6,286.4 -128,390.5 -94.9,103.4 -228,160.4 -374.9,160.4 z M 19305.9,5272.2 H 5101.89 c -159.6,0 -304.47,62.1 -407.91,175 -103.97,113.4 -153.54,264.2 -139.57,424.6 l 1081.28,12409.6 c 28.62,328.5 319.19,595.7 647.73,595.7 H 20487.4 c 159.6,0 304.5,-62.1 407.9,-174.9 104,-113.5 153.6,-264.3 139.6,-424.7 L 19953.6,5867.9 c -28.6,-328.5 -319.2,-595.7 -647.7,-595.7"
         style="fill:#000000;fill-opacity:1;fill-rule:nonzero;stroke:none"
         transform="matrix(0.13333333,0,0,-0.13333333,0,3333.3333)" />
      <path
         id="path17"
         d="M 20093,16530.7 H 6276.77 c -12.38,0 -22.42,10.1 -22.42,22.4 0,12.4 10.04,22.5 22.42,22.5 H 20093 c 12.4,0 22.4,-10.1 22.4,-22.5 0,-12.3 -10,-22.4 -22.4,-22.4"
         style="fill:#000000;fill-opacity:1;fill-rule:nonzero;stroke:none"
         transform="matrix(0.13333333,0,0,-0.13333333,0,3333.3333)" />
      <path
         id="path18"
         d="m 10675.6,6069.8 c -0.6,0 -1.3,0 -1.9,0 -12.4,1.1 -21.5,12 -20.4,24.3 l 1029.9,11819.8 c 1,12.3 11.7,21.6 24.2,20.4 12.4,-1.1 21.5,-11.9 20.4,-24.3 L 10697.9,6090.2 c -1,-11.6 -10.8,-20.4 -22.3,-20.4"
         style="fill:#000000;fill-opacity:1;fill-rule:nonzero;stroke:none"
         transform="matrix(0.13333333,0,0,-0.13333333,0,3333.3333)" />
      <path
         id="path19"
         d="m 13672.6,6163.6 c -0.6,0 -1.3,0.1 -1.9,0.1 -12.4,1.1 -21.5,12 -20.4,24.3 l 1029.9,11819.8 c 1,12.3 12.1,21.6 24.2,20.4 12.3,-1.1 21.5,-12 20.4,-24.3 L 13694.9,6184.1 c -1,-11.7 -10.8,-20.5 -22.3,-20.5"
         style="fill:#000000;fill-opacity:1;fill-rule:nonzero;stroke:none"
         transform="matrix(0.13333333,0,0,-0.13333333,0,3333.3333)" />
      <path
         id="path20"
         d="m 7842.89,6069.8 c -0.64,0 -1.3,0 -1.97,0 -12.33,1.1 -21.45,12 -20.37,24.3 l 1029.87,11819.8 c 1.07,12.3 11.8,21.6 24.28,20.4 12.33,-1.1 21.45,-11.9 20.38,-24.3 L 7865.2,6090.2 c -1.02,-11.6 -10.81,-20.4 -22.31,-20.4"
         style="fill:#000000;fill-opacity:1;fill-rule:nonzero;stroke:none"
         transform="matrix(0.13333333,0,0,-0.13333333,0,3333.3333)" />
      <path
         id="path21"
         d="m 16777,6140.1 c -0.7,0 -1.3,0 -2,0.1 -12.3,1.1 -21.4,11.9 -20.4,24.3 l 1029.9,11819.8 c 1.1,12.3 12.3,21.6 24.3,20.4 12.3,-1.1 21.4,-12 20.4,-24.3 L 16799.3,6160.6 c -1,-11.7 -10.8,-20.5 -22.3,-20.5"
         style="fill:#000000;fill-opacity:1;fill-rule:nonzero;stroke:none"
         transform="matrix(0.13333333,0,0,-0.13333333,0,3333.3333)" />
      <path
         id="path22"
         d="m 9260.56,16924.7 h 1949.64 l 58.9,882.1 H 9319.52 Z m 1970.54,-44.8 H 9236.6 c -6.21,0 -12.13,2.5 -16.37,7 -4.24,4.6 -6.41,10.7 -5.99,16.9 l 61.95,926.9 c 0.77,11.8 10.56,21 22.35,21 h 1994.56 c 6.2,0 12.1,-2.6 16.3,-7.1 4.3,-4.6 6.4,-10.7 6,-16.9 l -61.9,-926.9 c -0.8,-11.8 -10.6,-20.9 -22.4,-20.9"
         style="fill:#000000;fill-opacity:1;fill-rule:nonzero;stroke:none"
         transform="matrix(0.13333333,0,0,-0.13333333,0,3333.3333)" />
      <path
         id="path23"
         d="M 12117.4,16924.7 H 14067 l 59,882.1 h -1949.6 z m 1970.6,-44.8 h -1994.5 c -6.2,0 -12.1,2.5 -16.4,7 -4.2,4.6 -6.4,10.7 -6,16.9 l 62,926.9 c 0.7,11.8 10.5,21 22.3,21 h 1994.5 c 6.3,0 12.2,-2.6 16.4,-7.1 4.3,-4.6 6.4,-10.7 6,-16.9 l -61.9,-926.9 c -0.8,-11.8 -10.6,-20.9 -22.4,-20.9"
         style="fill:#000000;fill-opacity:1;fill-rule:nonzero;stroke:none"
         transform="matrix(0.13333333,0,0,-0.13333333,0,3333.3333)" />
      <path
         id="path24"
         d="m 6497.55,16924.7 h 1949.6 l 58.95,882.1 H 6556.5 Z m 1970.57,-44.8 H 6473.59 c -6.2,0 -12.13,2.5 -16.37,7 -4.24,4.6 -6.4,10.7 -5.99,16.9 l 61.94,926.9 c 0.78,11.8 10.56,21 22.36,21 h 1994.52 c 6.21,0 12.13,-2.6 16.38,-7.1 4.23,-4.6 6.4,-10.7 5.99,-16.9 l -61.94,-926.9 c -0.78,-11.8 -10.56,-20.9 -22.36,-20.9"
         style="fill:#000000;fill-opacity:1;fill-rule:nonzero;stroke:none"
         transform="matrix(0.13333333,0,0,-0.13333333,0,3333.3333)" />
      <path
         id="path25"
         d="m 18210.5,16924.7 h 1949.6 l 58.9,882.1 h -1949.6 z m 1970.5,-44.8 h -1994.5 c -6.2,0 -12.1,2.6 -16.3,7.1 -4.3,4.5 -6.5,10.6 -6,16.8 l 61.9,927 c 0.8,11.7 10.6,20.9 22.4,20.9 H 20243 c 6.2,0 12.1,-2.6 16.4,-7.1 4.2,-4.6 6.4,-10.7 6,-16.8 l -62,-927 c -0.8,-11.8 -10.6,-20.9 -22.4,-20.9"
         style="fill:#000000;fill-opacity:1;fill-rule:nonzero;stroke:none"
         transform="matrix(0.13333333,0,0,-0.13333333,0,3333.3333)" />
      <path
         id="path26"
         d="M 15216.5,16940.3 H 17166 l 59,882.2 h -1949.6 z m 1970.5,-44.8 h -1994.5 c -6.2,0 -12.1,2.6 -16.4,7.1 -4.2,4.6 -6.4,10.6 -6,16.8 l 62,927 c 0.8,11.8 10.5,20.9 22.3,20.9 H 17249 c 6.2,0 12.1,-2.6 16.3,-7.1 4.3,-4.5 6.4,-10.6 6,-16.8 l -61.9,-927 c -0.8,-11.7 -10.6,-20.9 -22.4,-20.9"
         style="fill:#000000;fill-opacity:1;fill-rule:nonzero;stroke:none"
         transform="matrix(0.13333333,0,0,-0.13333333,0,3333.3333)" />
      <path
         id="path27"
         d="m 16513.9,6173.6 h -2600.7 l 301.3,3458.1 h 2600.7 l -301.3,-3458.1"
         style="fill:transparent;fill-opacity:1;fill-rule:nonzero;stroke:none"
         transform="matrix(0.13333333,0,0,-0.13333333,0,3333.3333)" />
      <path
         id="path28"
         d="m 11174.2,8912 h 2513.6 l 292.6,3413.2 h -2513.6 z m 2534.2,-44.9 h -2558.7 c -6.2,0 -12.2,2.7 -16.5,7.3 -4.2,4.6 -6.3,10.8 -5.8,17 l 296.4,3458.2 c 1,11.5 10.7,20.5 22.4,20.5 h 2558.7 c 6.2,0 12.2,-2.7 16.5,-7.3 4.2,-4.6 6.3,-10.8 5.8,-17.1 l -296.5,-3458.1 c -0.9,-11.6 -10.6,-20.5 -22.3,-20.5"
         style="fill:#000000;fill-opacity:1;fill-rule:nonzero;stroke:none"
         transform="matrix(0.13333333,0,0,-0.13333333,0,3333.3333)" />
      <path
         id="path29"
         d="M 8174.53,13953.4 H 5826.31 l 176.02,2170.3 h 2348.21 l -176.01,-2170.3"
         style="fill:transparent;fill-opacity:1;fill-rule:nonzero;stroke:none"
         transform="matrix(0.13333333,0,0,-0.13333333,0,3333.3333)" />
      <path
         id="path30"
         d="m 17738.6,13896.8 c -0.6,0 -1.2,0 -1.8,0.1 -12.4,1 -21.6,11.8 -20.6,24.1 l 176,2170.3 c 1,11.6 10.7,20.6 22.4,20.6 h 2348.2 c 6.3,0 12.2,-2.6 16.5,-7.2 4.2,-4.6 6.3,-10.8 5.8,-17 l -93.6,-1154.7 c -1,-12.3 -11.9,-21.6 -24.2,-20.5 -12.3,1 -21.5,11.8 -20.5,24.2 l 91.7,1130.4 h -2303.3 l -174.3,-2149.7 c -0.9,-11.7 -10.7,-20.6 -22.3,-20.6"
         style="fill:#000000;fill-opacity:1;fill-rule:nonzero;stroke:none"
         transform="matrix(0.13333333,0,0,-0.13333333,0,3333.3333)" />
      <path
         id="path31"
         d="m 17249.2,8060.2 h 2303.3 l 172.4,2125.4 h -2303.3 z m 2323.9,-44.9 h -2348.2 c -6.2,0 -12.2,2.7 -16.5,7.3 -4.2,4.6 -6.3,10.7 -5.8,17 l 176,2170.2 c 0.9,11.7 10.7,20.6 22.3,20.6 h 2348.2 c 6.3,0 12.3,-2.6 16.5,-7.2 4.3,-4.6 6.4,-10.7 5.9,-17 l -176,-2170.3 c -1,-11.6 -10.7,-20.6 -22.4,-20.6"
         style="fill:#000000;fill-opacity:1;fill-rule:nonzero;stroke:none"
         transform="matrix(0.13333333,0,0,-0.13333333,0,3333.3333)" />
      <path
         id="path32"
         d="m 14647.5,13928.2 c -0.6,0 -1.2,0 -1.9,0.1 -12.3,1 -21.5,11.8 -20.4,24.2 l 180.9,2170.2 c 0.9,11.7 10.6,20.6 22.3,20.6 h 2413.7 c 6.2,0 12.2,-2.6 16.5,-7.2 4.2,-4.7 6.3,-10.8 5.8,-17.1 l -16.2,-194.3 c -1,-12.3 -11.7,-21.5 -24.2,-20.5 -12.3,1.1 -21.5,11.9 -20.4,24.2 l 14.1,170.1 H 14849 l -179.2,-2149.8 c -0.9,-11.7 -10.7,-20.5 -22.3,-20.5"
         style="fill:#000000;fill-opacity:1;fill-rule:nonzero;stroke:none"
         transform="matrix(0.13333333,0,0,-0.13333333,0,3333.3333)" />
      <path
         id="path33"
         d="m 14063.6,13949.6 h -2435.5 l 182.5,2170.3 h 2435.5 l -182.5,-2170.3"
         style="fill:transparent;fill-opacity:1;fill-rule:nonzero;stroke:none"
         transform="matrix(0.13333333,0,0,-0.13333333,0,3333.3333)" />
      <path
         id="path34"
         d="M 7802.45,9227.3 H 5366.97 c -6.27,0 -12.26,2.6 -16.51,7.3 -4.23,4.6 -6.35,10.8 -5.83,17 l 182.57,2170.3 c 0.97,11.6 10.68,20.5 22.34,20.5 h 1080.1 c 12.38,0 22.41,-10 22.41,-22.4 0,-12.4 -10.03,-22.4 -22.41,-22.4 H 5570.14 L 5391.36,9272.1 h 2390.49 l 149.66,1779.3 c 1.04,12.3 11.7,21.6 24.22,20.5 12.34,-1.1 21.5,-11.9 20.46,-24.2 l -151.4,-1799.8 c -0.97,-11.7 -10.68,-20.6 -22.34,-20.6"
         style="fill:#000000;fill-opacity:1;fill-rule:nonzero;stroke:none"
         transform="matrix(0.13333333,0,0,-0.13333333,0,3333.3333)" />
      <path
         id="path35"
         d="M 10970.4,11819.9 H 8534.87 l 182.56,2170.3 h 2435.47 l -182.5,-2170.3"
         style="fill:transparent;fill-opacity:1;fill-rule:nonzero;stroke:none"
         transform="matrix(0.13333333,0,0,-0.13333333,0,3333.3333)" />
      <path
         id="path36"
         d="m 16513.9,6151.2 h -631 c -12.4,0 -22.4,10 -22.4,22.4 0,12.4 10,22.4 22.4,22.4 h 610.5 l 297.4,3413.3 h -2555.7 l -37.8,-433 c -1,-12.4 -12.1,-21.7 -24.2,-20.4 -12.4,1.1 -21.5,11.9 -20.4,24.3 l 39.5,453.5 c 1,11.5 10.7,20.4 22.3,20.4 h 2600.7 c 6.3,0 12.3,-2.6 16.6,-7.2 4.2,-4.7 6.3,-10.9 5.8,-17.1 l -301.4,-3458.1 c -1,-11.6 -10.7,-20.5 -22.3,-20.5"
         style="fill:#000000;fill-opacity:1;fill-rule:nonzero;stroke:none"
         transform="matrix(0.13333333,0,0,-0.13333333,0,3333.3333)" />
      <path
         id="path37"
         d="m 8217.95,14466.1 c -0.6,0 -1.21,0 -1.84,0.1 -12.33,1 -21.53,11.8 -20.52,24.1 l 130.65,1611 H 7212.15 c -12.38,0 -22.41,10 -22.41,22.4 0,12.4 10.03,22.4 22.41,22.4 h 1138.39 c 6.26,0 12.24,-2.6 16.49,-7.2 4.23,-4.6 6.37,-10.8 5.85,-17 l -132.61,-1635.2 c -0.95,-11.7 -10.76,-20.6 -22.32,-20.6"
         style="fill:#000000;fill-opacity:1;fill-rule:nonzero;stroke:none"
         transform="matrix(0.13333333,0,0,-0.13333333,0,3333.3333)" />
      <path
         id="path38"
         d="M 6941.95,13931 H 5826.31 c -6.26,0 -12.23,2.6 -16.48,7.2 -4.23,4.6 -6.37,10.8 -5.86,17 L 5980,16125.5 c 0.94,11.6 10.65,20.6 22.33,20.6 h 454 c 12.38,0 22.42,-10 22.42,-22.4 0,-12.4 -10.04,-22.4 -22.42,-22.4 h -433.32 l -172.39,-2125.5 h 1091.33 c 12.38,0 22.42,-10 22.42,-22.4 0,-12.4 -10.04,-22.4 -22.42,-22.4"
         style="fill:#000000;fill-opacity:1;fill-rule:nonzero;stroke:none"
         transform="matrix(0.13333333,0,0,-0.13333333,0,3333.3333)" />
      <path
         id="path39"
         d="m 12227.2,13927.2 h -599.1 c -6.3,0 -12.3,2.6 -16.5,7.2 -4.3,4.6 -6.4,10.8 -5.9,17.1 l 182.6,2170.2 c 1,11.6 10.7,20.6 22.3,20.6 h 1515.6 c 12.4,0 22.4,-10.1 22.4,-22.5 0,-12.3 -10,-22.4 -22.4,-22.4 h -1495 L 11652.5,13972 h 574.7 c 12.3,0 22.4,-10.1 22.4,-22.4 0,-12.4 -10.1,-22.4 -22.4,-22.4"
         style="fill:#000000;fill-opacity:1;fill-rule:nonzero;stroke:none"
         transform="matrix(0.13333333,0,0,-0.13333333,0,3333.3333)" />
      <path
         id="path40"
         d="m 8642.2,13073.2 c -0.62,0 -1.25,0 -1.9,0.1 -12.34,1 -21.5,11.8 -20.46,24.2 l 75.25,894.6 c 0.97,11.6 10.68,20.5 22.34,20.5 h 652.27 c 12.37,0 22.41,-10 22.41,-22.4 0,-12.4 -10.04,-22.4 -22.41,-22.4 h -631.67 l -73.51,-874.1 c -0.99,-11.7 -10.78,-20.5 -22.32,-20.5"
         style="fill:#000000;fill-opacity:1;fill-rule:nonzero;stroke:none"
         transform="matrix(0.13333333,0,0,-0.13333333,0,3333.3333)" />
      <path
         id="path41"
         d="M 10341.5,11797.5 H 8534.87 c -6.27,0 -12.26,2.6 -16.5,7.2 -4.24,4.7 -6.36,10.8 -5.84,17.1 l 53.52,636.3 c 1.03,12.3 11.58,21.6 24.22,20.4 12.34,-1 21.5,-11.9 20.46,-24.2 l -51.49,-612 h 1782.26 c 12.3,0 22.4,-10 22.4,-22.4 0,-12.4 -10.1,-22.4 -22.4,-22.4"
         style="fill:#000000;fill-opacity:1;fill-rule:nonzero;stroke:none"
         transform="matrix(0.13333333,0,0,-0.13333333,0,3333.3333)" />
      <path
         id="path42"
         d="m 11084.4,13153.1 c -0.6,0 -1.3,0 -1.9,0.1 -12.3,1 -21.5,11.8 -20.5,24.2 l 66.5,790.4 H 10515 c -12.4,0 -22.4,10 -22.4,22.4 0,12.4 10,22.4 22.4,22.4 h 637.9 c 6.3,0 12.3,-2.6 16.5,-7.2 4.2,-4.7 6.4,-10.8 5.8,-17.1 l -68.5,-814.7 c -1,-11.7 -10.8,-20.5 -22.3,-20.5"
         style="fill:#000000;fill-opacity:1;fill-rule:nonzero;stroke:none"
         transform="matrix(0.13333333,0,0,-0.13333333,0,3333.3333)" />
      <path
         id="path43"
         d="m 8512.37,19131.7 c 0,-1390.8 -1127.47,-2518.2 -2518.26,-2518.2 -1390.79,0 -2518.26,1127.4 -2518.26,2518.2 0,1390.8 1127.47,2518.3 2518.26,2518.3 1390.79,0 2518.26,-1127.5 2518.26,-2518.3"
         style="fill:#000000;fill-opacity:1;fill-rule:nonzero;stroke:none"
         transform="matrix(0.13333333,0,0,-0.13333333,0,3333.3333)" />
      <path
         id="path44"
         d="m 8261.59,19130.9 c 0,-1254.1 -1016.64,-2270.7 -2270.73,-2270.7 -1254.09,0 -2270.73,1016.6 -2270.73,2270.7 0,1254.1 1016.64,2270.8 2270.73,2270.8 1254.09,0 2270.73,-1016.7 2270.73,-2270.8"
         style="fill:transparent;fill-opacity:1;fill-rule:nonzero;stroke:none"
         transform="matrix(0.13333333,0,0,-0.13333333,0,3333.3333)" />
      <path
         id="path45"
         d="m 7797.78,17893.2 c -4.31,0 -8.68,1.2 -12.52,3.8 -10.26,6.9 -12.96,20.9 -6.03,31.1 64.95,96.2 122.47,198.2 170.94,303.4 5.2,11.2 18.51,16.1 29.75,10.9 11.24,-5.1 16.14,-18.5 10.96,-29.7 -49.49,-107.3 -108.2,-211.5 -174.5,-309.7 -4.34,-6.4 -11.4,-9.8 -18.6,-9.8"
         style="fill:#000000;fill-opacity:1;fill-rule:nonzero;stroke:none"
         transform="matrix(0.13333333,0,0,-0.13333333,0,3333.3333)" />
      <path
         id="path46"
         d="m 8145.63,18787.2 c -1.1,0 -2.21,0 -3.33,0.2 -12.25,1.8 -20.69,13.2 -18.88,25.5 15.56,104.8 23.46,212.1 23.46,318.8 0,819.6 -476.8,1580.4 -1214.71,1938.2 -11.13,5.4 -15.78,18.8 -10.39,30 5.41,11.1 18.82,15.8 29.96,10.4 366.04,-177.5 675.59,-452.9 895.18,-796.3 225.57,-352.8 344.78,-761.6 344.78,-1182.3 0,-108.9 -8.05,-218.4 -23.93,-325.4 -1.65,-11.1 -11.22,-19.1 -22.14,-19.1"
         style="fill:#000000;fill-opacity:1;fill-rule:nonzero;stroke:none"
         transform="matrix(0.13333333,0,0,-0.13333333,0,3333.3333)" />
      <path
         id="path47"
         d="m 5453.57,21216.8 c -10,0 -19.11,6.8 -21.7,16.9 -3.06,12 4.17,24.2 16.17,27.2 334.14,85.5 693.51,90.6 1030.09,15 12.08,-2.8 19.66,-14.7 16.95,-26.8 -2.71,-12.1 -14.69,-19.7 -26.78,-17 -329.73,74.1 -681.86,69.1 -1009.16,-14.6 -1.87,-0.4 -3.74,-0.7 -5.57,-0.7"
         style="fill:#000000;fill-opacity:1;fill-rule:nonzero;stroke:none"
         transform="matrix(0.13333333,0,0,-0.13333333,0,3333.3333)" />
      <path
         id="path48"
         d="m 4002.77,19985.9 c -3.02,0 -6.09,0.6 -9.03,1.9 -11.33,5 -16.46,18.2 -11.47,29.6 105.94,240.3 252.96,458 436.95,647 8.66,8.9 22.83,9.1 31.7,0.5 8.87,-8.7 9.06,-22.9 0.43,-31.7 -180.26,-185.2 -324.28,-398.5 -428.06,-633.9 -3.7,-8.4 -11.91,-13.4 -20.52,-13.4"
         style="fill:#000000;fill-opacity:1;fill-rule:nonzero;stroke:none"
         transform="matrix(0.13333333,0,0,-0.13333333,0,3333.3333)" />
      <path
         id="path49"
         d="m 4831.55,17270.5 c -4.1,0 -8.25,1.2 -11.97,3.5 -185.85,117.8 -352.71,262.4 -495.96,429.8 -8.04,9.4 -6.95,23.5 2.46,31.6 9.41,8 23.55,6.9 31.6,-2.5 140.35,-164 303.83,-305.7 485.89,-421 10.46,-6.6 13.56,-20.5 6.94,-30.9 -4.27,-6.8 -11.54,-10.5 -18.96,-10.5"
         style="fill:#000000;fill-opacity:1;fill-rule:nonzero;stroke:none"
         transform="matrix(0.13333333,0,0,-0.13333333,0,3333.3333)" />
      <path
         id="path50"
         d="m 7817.38,19796 c -271.24,744.3 -985.18,1275.8 -1823.27,1275.8 -0.88,0 -1.75,-0.1 -2.64,-0.1 l 2.64,-1902.7 1823.27,627"
         style="fill:#000000;fill-opacity:1;fill-rule:nonzero;stroke:none"
         transform="matrix(0.13333333,0,0,-0.13333333,0,3333.3333)" />
      <path
         id="path51"
         d="m 6112.47,21080.3 c 0,-65.4 -52.99,-118.4 -118.36,-118.4 -65.37,0 -118.36,53 -118.36,118.4 0,65.3 52.99,118.3 118.36,118.3 65.37,0 118.36,-53 118.36,-118.3"
         style="fill:transparent;fill-opacity:1;fill-rule:nonzero;stroke:none"
         transform="matrix(0.13333333,0,0,-0.13333333,0,3333.3333)" />
      <path
         id="path52"
         d="m 5994.11,21176.2 c -52.9,0 -95.95,-43 -95.95,-95.9 0,-52.9 43.05,-96 95.95,-96 52.91,0 95.94,43.1 95.94,96 0,52.9 -43.03,95.9 -95.94,95.9 z m 0,-236.7 c -77.63,0 -140.78,63.1 -140.78,140.8 0,77.6 63.15,140.7 140.78,140.7 77.62,0 140.77,-63.1 140.77,-140.7 0,-77.7 -63.15,-140.8 -140.77,-140.8"
         style="fill:#000000;fill-opacity:1;fill-rule:nonzero;stroke:none"
         transform="matrix(0.13333333,0,0,-0.13333333,0,3333.3333)" />
      <path
         id="path53"
         d="m 6112.47,17183.2 c 0,-65.3 -52.99,-118.3 -118.36,-118.3 -65.37,0 -118.36,53 -118.36,118.3 0,65.4 52.99,118.4 118.36,118.4 65.37,0 118.36,-53 118.36,-118.4"
         style="fill:transparent;fill-opacity:1;fill-rule:nonzero;stroke:none"
         transform="matrix(0.13333333,0,0,-0.13333333,0,3333.3333)" />
      <path
         id="path54"
         d="m 5994.11,17279.2 c -52.9,0 -95.95,-43.1 -95.95,-96 0,-52.9 43.05,-95.9 95.95,-95.9 52.91,0 95.94,43 95.94,95.9 0,52.9 -43.03,96 -95.94,96 z m 0,-236.8 c -77.63,0 -140.78,63.2 -140.78,140.8 0,77.6 63.15,140.8 140.78,140.8 77.62,0 140.77,-63.2 140.77,-140.8 0,-77.6 -63.15,-140.8 -140.77,-140.8"
         style="fill:#000000;fill-opacity:1;fill-rule:nonzero;stroke:none"
         transform="matrix(0.13333333,0,0,-0.13333333,0,3333.3333)" />
      <path
         id="path55"
         d="m 4045.59,19250.1 c 65.36,0 118.36,-53 118.36,-118.4 0,-65.3 -53,-118.3 -118.36,-118.3 -65.37,0 -118.36,53 -118.36,118.3 0,65.4 52.99,118.4 118.36,118.4"
         style="fill:transparent;fill-opacity:1;fill-rule:nonzero;stroke:none"
         transform="matrix(0.13333333,0,0,-0.13333333,0,3333.3333)" />
      <path
         id="path56"
         d="m 4045.59,19227.7 c -52.91,0 -95.95,-43 -95.95,-96 0,-52.9 43.04,-95.9 95.95,-95.9 52.9,0 95.93,43 95.93,95.9 0,53 -43.03,96 -95.93,96 z m 0,-236.7 c -77.63,0 -140.78,63.1 -140.78,140.7 0,77.7 63.15,140.8 140.78,140.8 77.61,0 140.76,-63.1 140.76,-140.8 0,-77.6 -63.15,-140.7 -140.76,-140.7"
         style="fill:#000000;fill-opacity:1;fill-rule:nonzero;stroke:none"
         transform="matrix(0.13333333,0,0,-0.13333333,0,3333.3333)" />
      <path
         id="path57"
         d="m 7942.63,19250.1 c 65.37,0 118.36,-53 118.36,-118.4 0,-65.3 -52.99,-118.3 -118.36,-118.3 -65.36,0 -118.35,53 -118.35,118.3 0,65.4 52.99,118.4 118.35,118.4"
         style="fill:transparent;fill-opacity:1;fill-rule:nonzero;stroke:none"
         transform="matrix(0.13333333,0,0,-0.13333333,0,3333.3333)" />
      <path
         id="path58"
         d="m 7942.63,19227.7 c -52.9,0 -95.94,-43 -95.94,-96 0,-52.9 43.04,-95.9 95.94,-95.9 52.91,0 95.94,43 95.94,95.9 0,53 -43.03,96 -95.94,96 z m 0,-236.7 c -77.62,0 -140.77,63.1 -140.77,140.7 0,77.7 63.15,140.8 140.77,140.8 77.62,0 140.77,-63.1 140.77,-140.8 0,-77.6 -63.15,-140.7 -140.77,-140.7"
         style="fill:#000000;fill-opacity:1;fill-rule:nonzero;stroke:none"
         transform="matrix(0.13333333,0,0,-0.13333333,0,3333.3333)" />
      <path
         id="path59"
         d="m 5074.4,20850.7 c 17.39,-30.1 7.07,-68.6 -23.06,-86 -30.12,-17.4 -68.65,-7.1 -86.04,23 -17.4,30.1 -7.07,68.7 23.05,86.1 30.13,17.4 68.65,7 86.05,-23.1"
         style="fill:transparent;fill-opacity:1;fill-rule:nonzero;stroke:none"
         transform="matrix(0.13333333,0,0,-0.13333333,0,3333.3333)" />
      <path
         id="path60"
         d="m 5019.78,20859.8 c -7.03,0 -13.97,-1.8 -20.21,-5.4 -19.39,-11.2 -26.04,-36.1 -14.86,-55.5 11.17,-19.3 36.02,-26 55.42,-14.8 9.4,5.4 16.11,14.1 18.92,24.6 2.8,10.5 1.35,21.4 -4.06,30.8 -5.42,9.4 -14.17,16.1 -24.64,18.9 -3.5,1 -7.05,1.4 -10.57,1.4 z m 0.21,-126 c -29.53,0 -58.3,15.4 -74.1,42.7 -23.55,40.8 -9.52,93.1 31.26,116.7 19.76,11.4 42.75,14.4 64.8,8.5 22.03,-5.9 40.45,-20 51.85,-39.8 0,0 0.02,0 0.02,0 11.4,-19.7 14.42,-42.7 8.52,-64.8 -5.91,-22 -20.04,-40.4 -39.79,-51.8 -13.41,-7.8 -28.07,-11.5 -42.56,-11.5"
         style="fill:#000000;fill-opacity:1;fill-rule:nonzero;stroke:none"
         transform="matrix(0.13333333,0,0,-0.13333333,0,3333.3333)" />
      <path
         id="path61"
         d="m 4275.15,18212 c 30.12,17.4 68.64,7.1 86.04,-23 17.39,-30.1 7.07,-68.7 -23.06,-86.1 -30.12,-17.4 -68.65,-7 -86.04,23.1 -17.39,30.1 -7.07,68.6 23.06,86"
         style="fill:transparent;fill-opacity:1;fill-rule:nonzero;stroke:none"
         transform="matrix(0.13333333,0,0,-0.13333333,0,3333.3333)" />
      <path
         id="path62"
         d="m 4306.57,18198 c -6.89,0 -13.85,-1.7 -20.22,-5.4 -9.39,-5.4 -16.1,-14.2 -18.91,-24.6 -2.8,-10.5 -1.36,-21.4 4.06,-30.8 11.19,-19.4 36.05,-26 55.42,-14.9 9.39,5.5 16.1,14.2 18.91,24.7 2.81,10.4 1.36,21.4 -4.05,30.8 -7.51,13 -21.18,20.2 -35.21,20.2 z m 0.22,-125.9 c -29.54,0 -58.3,15.3 -74.11,42.7 -23.55,40.8 -9.52,93.1 31.26,116.6 40.72,23.6 93.1,9.6 116.66,-31.2 11.41,-19.8 14.43,-42.8 8.53,-64.8 -5.91,-22.1 -20.04,-40.5 -39.79,-51.9 -13.41,-7.7 -28.08,-11.4 -42.55,-11.4"
         style="fill:#000000;fill-opacity:1;fill-rule:nonzero;stroke:none"
         transform="matrix(0.13333333,0,0,-0.13333333,0,3333.3333)" />
      <path
         id="path63"
         d="m 7650.08,20160.6 c 30.13,17.3 68.66,7 86.05,-23.1 17.39,-30.1 7.07,-68.6 -23.06,-86 -30.13,-17.4 -68.65,-7.1 -86.04,23 -17.39,30.1 -7.07,68.7 23.05,86.1"
         style="fill:transparent;fill-opacity:1;fill-rule:nonzero;stroke:none"
         transform="matrix(0.13333333,0,0,-0.13333333,0,3333.3333)" />
      <path
         id="path64"
         d="m 7650.08,20160.6 h 0.22 z m 31.44,-14 c -7.04,0 -13.98,-1.8 -20.23,-5.5 0,0 0,0 0,0 -9.39,-5.4 -16.1,-14.1 -18.9,-24.6 -2.81,-10.5 -1.37,-21.4 4.05,-30.8 5.43,-9.4 14.17,-16.1 24.64,-18.9 10.45,-2.8 21.41,-1.4 30.78,4.1 9.39,5.4 16.1,14.1 18.92,24.6 2.79,10.5 1.35,21.4 -4.07,30.8 -5.41,9.4 -14.16,16.1 -24.63,18.9 -3.49,0.9 -7.04,1.4 -10.56,1.4 z m 0.2,-126 c -7.42,0 -14.88,0.9 -22.25,2.9 -22.03,5.9 -40.45,20.1 -51.85,39.8 -11.4,19.8 -14.44,42.8 -8.54,64.8 5.91,22 20.04,40.5 39.8,51.8 19.74,11.5 42.75,14.5 64.81,8.6 22.03,-5.9 40.44,-20 51.86,-39.8 11.4,-19.8 14.42,-42.8 8.52,-64.8 -5.91,-22 -20.04,-40.5 -39.79,-51.9 -13.16,-7.6 -27.76,-11.4 -42.56,-11.4"
         style="fill:#000000;fill-opacity:1;fill-rule:nonzero;stroke:none"
         transform="matrix(0.13333333,0,0,-0.13333333,0,3333.3333)" />
      <path
         id="path65"
         d="m 4338.13,20160.6 c 30.13,-17.4 40.45,-56 23.06,-86.1 -17.4,-30.1 -55.92,-40.4 -86.04,-23 -30.13,17.4 -40.45,55.9 -23.06,86 17.39,30.1 55.92,40.4 86.04,23.1"
         style="fill:transparent;fill-opacity:1;fill-rule:nonzero;stroke:none"
         transform="matrix(0.13333333,0,0,-0.13333333,0,3333.3333)" />
      <path
         id="path66"
         d="m 4306.71,20146.6 c -14.03,0 -27.7,-7.3 -35.22,-20.3 -5.41,-9.4 -6.85,-20.3 -4.05,-30.8 2.81,-10.5 9.52,-19.2 18.91,-24.6 19.36,-11.2 44.23,-4.6 55.44,14.8 5.4,9.4 6.85,20.3 4.04,30.8 -2.81,10.5 -9.52,19.2 -18.91,24.6 0,0 0,0 0,0 -6.37,3.7 -13.34,5.5 -20.21,5.5 z m -0.22,-126 c -14.48,0 -29.13,3.7 -42.55,11.4 -40.78,23.6 -54.81,75.9 -31.27,116.7 23.57,40.8 75.91,54.8 116.67,31.2 19.75,-11.3 33.88,-29.8 39.79,-51.8 5.9,-22 2.88,-45 -8.52,-64.8 -15.81,-27.4 -44.58,-42.7 -74.12,-42.7"
         style="fill:#000000;fill-opacity:1;fill-rule:nonzero;stroke:none"
         transform="matrix(0.13333333,0,0,-0.13333333,0,3333.3333)" />
      <path
         id="path67"
         d="m 7713.07,18212 c 30.13,-17.4 40.45,-55.9 23.06,-86 -17.39,-30.1 -55.92,-40.5 -86.05,-23.1 -30.12,17.4 -40.44,56 -23.05,86.1 17.39,30.1 55.91,40.4 86.04,23"
         style="fill:transparent;fill-opacity:1;fill-rule:nonzero;stroke:none"
         transform="matrix(0.13333333,0,0,-0.13333333,0,3333.3333)" />
      <path
         id="path68"
         d="m 7681.65,18198.1 c -3.52,0 -7.07,-0.5 -10.57,-1.4 -10.47,-2.8 -19.21,-9.5 -24.63,-18.9 -5.43,-9.4 -6.87,-20.4 -4.06,-30.8 2.8,-10.5 9.51,-19.2 18.9,-24.6 9.39,-5.5 20.35,-6.9 30.79,-4.1 10.47,2.8 19.22,9.5 24.63,18.9 5.42,9.4 6.86,20.3 4.07,30.8 -2.82,10.4 -9.53,19.2 -18.92,24.6 -6.24,3.6 -13.19,5.5 -20.21,5.5 z m -0.21,-126.1 c -14.8,0 -29.41,3.9 -42.56,11.5 -19.76,11.4 -33.89,29.8 -39.8,51.9 -5.9,22 -2.86,45 8.55,64.8 11.39,19.7 29.81,33.9 51.84,39.8 22.06,5.9 45.06,2.9 64.81,-8.6 19.75,-11.4 33.88,-29.8 39.79,-51.8 5.9,-22 2.88,-45.1 -8.52,-64.8 -11.42,-19.8 -29.83,-33.9 -51.86,-39.8 -7.37,-2 -14.83,-3 -22.25,-3"
         style="fill:#000000;fill-opacity:1;fill-rule:nonzero;stroke:none"
         transform="matrix(0.13333333,0,0,-0.13333333,0,3333.3333)" />
      <path
         id="path69"
         d="m 4965.3,17475.8 c 17.39,30.1 55.92,40.4 86.04,23 30.13,-17.4 40.45,-55.9 23.06,-86 -17.4,-30.1 -55.92,-40.5 -86.05,-23.1 -30.12,17.4 -40.45,55.9 -23.05,86.1"
         style="fill:transparent;fill-opacity:1;fill-rule:nonzero;stroke:none"
         transform="matrix(0.13333333,0,0,-0.13333333,0,3333.3333)" />
      <path
         id="path70"
         d="m 4984.7,17464.6 c -11.17,-19.4 -4.51,-44.3 14.87,-55.5 19.39,-11.2 44.23,-4.5 55.42,14.9 5.41,9.4 6.86,20.3 4.06,30.8 -2.81,10.4 -9.52,19.2 -18.92,24.6 -19.37,11.2 -44.22,4.5 -55.43,-14.8 z m 35,-105.7 c -14.48,0 -29.14,3.7 -42.55,11.4 -40.78,23.6 -54.81,75.9 -31.27,116.7 0,0 0.01,0 0.01,0 23.56,40.7 75.87,54.8 116.66,31.2 19.75,-11.4 33.88,-29.8 39.79,-51.8 5.9,-22.1 2.88,-45.1 -8.52,-64.8 -15.82,-27.4 -44.58,-42.7 -74.12,-42.7"
         style="fill:#000000;fill-opacity:1;fill-rule:nonzero;stroke:none"
         transform="matrix(0.13333333,0,0,-0.13333333,0,3333.3333)" />
      <path
         id="path71"
         d="m 6913.82,20850.7 c 17.4,30.1 55.92,40.5 86.04,23.1 30.13,-17.4 40.45,-56 23.06,-86.1 -17.39,-30.1 -55.92,-40.4 -86.04,-23 -30.13,17.4 -40.45,55.9 -23.06,86"
         style="fill:transparent;fill-opacity:1;fill-rule:nonzero;stroke:none"
         transform="matrix(0.13333333,0,0,-0.13333333,0,3333.3333)" />
      <path
         id="path72"
         d="m 6913.82,20850.7 h 0.22 z m 54.62,9.1 c -3.53,0 -7.07,-0.4 -10.56,-1.4 -10.48,-2.8 -19.22,-9.5 -24.64,-18.9 -5.42,-9.4 -6.86,-20.3 -4.06,-30.8 2.8,-10.5 9.52,-19.2 18.9,-24.6 19.35,-11.2 44.25,-4.6 55.43,14.8 11.18,19.4 4.53,44.3 -14.86,55.4 -6.25,3.6 -13.19,5.5 -20.21,5.5 z m -0.21,-126 c -14.48,0 -29.15,3.7 -42.57,11.5 -19.75,11.4 -33.88,29.8 -39.78,51.8 -5.91,22.1 -2.88,45.1 8.54,64.8 11.41,19.8 29.81,33.9 51.84,39.8 22.01,5.9 45.05,2.9 64.82,-8.5 19.74,-11.4 33.87,-29.8 39.78,-51.9 5.9,-22 2.88,-45 -8.53,-64.8 -15.8,-27.3 -44.56,-42.7 -74.1,-42.7"
         style="fill:#000000;fill-opacity:1;fill-rule:nonzero;stroke:none"
         transform="matrix(0.13333333,0,0,-0.13333333,0,3333.3333)" />
      <path
         id="path73"
         d="m 6913.82,17446.4 c 17.4,30.1 55.92,40.4 86.04,23 30.13,-17.4 40.45,-55.9 23.06,-86 -17.39,-30.1 -55.92,-40.5 -86.04,-23.1 -30.13,17.4 -40.45,55.9 -23.06,86.1"
         style="fill:transparent;fill-opacity:1;fill-rule:nonzero;stroke:none"
         transform="matrix(0.13333333,0,0,-0.13333333,0,3333.3333)" />
      <path
         id="path74"
         d="m 6913.82,17446.4 h 0.22 z m 54.62,9.1 c -3.53,0 -7.07,-0.5 -10.56,-1.4 -10.48,-2.8 -19.22,-9.6 -24.64,-18.9 -5.42,-9.4 -6.86,-20.4 -4.06,-30.8 2.8,-10.5 9.52,-19.2 18.9,-24.7 9.39,-5.4 20.34,-6.8 30.79,-4 10.47,2.8 19.22,9.5 24.64,18.9 5.41,9.4 6.86,20.3 4.05,30.8 -2.81,10.4 -9.52,19.2 -18.91,24.6 -6.25,3.6 -13.19,5.5 -20.21,5.5 z m -0.21,-126 c -14.48,0 -29.15,3.7 -42.57,11.4 -19.75,11.4 -33.88,29.8 -39.78,51.9 -5.91,22 -2.88,45 8.54,64.8 11.41,19.7 29.81,33.9 51.84,39.8 22.05,5.9 45.05,2.8 64.82,-8.6 19.74,-11.4 33.87,-29.8 39.78,-51.8 5.9,-22.1 2.88,-45.1 -8.53,-64.8 -15.8,-27.4 -44.56,-42.7 -74.1,-42.7"
         style="fill:#000000;fill-opacity:1;fill-rule:nonzero;stroke:none"
         transform="matrix(0.13333333,0,0,-0.13333333,0,3333.3333)" />
      <path
         id="path75"
         d="m 6739.64,19244.3 c -569.22,-197.3 -748.19,-192.5 -773.67,-119 -25.48,73.5 112.18,188 681.4,385.2 406.88,141 937.16,248.6 1206.52,298.5 41.12,7.6 55.25,-33.1 18.23,-52.6 -242.47,-127.5 -725.6,-371.1 -1132.48,-512.1"
         style="fill:transparent;fill-opacity:1;fill-rule:nonzero;stroke:none"
         transform="matrix(0.13333333,0,0,-0.13333333,0,3333.3333)" />
      <path
         id="path76"
         d="m 7863.63,19787.5 c -1.6,0 -3.49,-0.1 -5.66,-0.5 -276.34,-51.2 -800.15,-157.9 -1203.26,-297.6 -614.59,-213 -682.05,-315 -667.56,-356.8 14.51,-41.8 130.55,-80.1 745.15,132.9 403.23,139.7 880.67,380 1129.38,510.8 7.62,4 9.61,8.2 9.44,9.3 -0.35,0.6 -2.78,1.9 -7.49,1.9 z m -1786.29,-731 c -91.53,0 -121.22,28.8 -132.55,61.4 -24.89,71.9 31.64,183.8 695.23,413.8 405.9,140.7 932.19,248 1209.79,299.4 34.32,6.3 56.76,-10.9 63.68,-30.9 6.91,-19.9 0.02,-47.4 -30.95,-63.6 -249.83,-131.4 -729.56,-372.8 -1135.55,-513.5 -361.66,-125.3 -560.01,-166.6 -669.65,-166.6"
         style="fill:#000000;fill-opacity:1;fill-rule:nonzero;stroke:none"
         transform="matrix(0.13333333,0,0,-0.13333333,0,3333.3333)" />
      <path
         id="path77"
         d="m 6191.87,19742.2 c 13.31,-382.9 -62.93,-492.2 -161.54,-495.6 -98.61,-3.4 -182.25,100.3 -195.56,483.2 -9.52,273.7 69.86,617.7 115.92,791.6 7.03,26.6 61.7,28.5 70.56,2.5 58.02,-170.3 161.11,-508 170.62,-781.7"
         style="fill:transparent;fill-opacity:1;fill-rule:nonzero;stroke:none"
         transform="matrix(0.13333333,0,0,-0.13333333,0,3333.3333)" />
      <path
         id="path78"
         d="m 5987.24,20520 c -0.38,0 -0.77,0 -1.17,0 -8.03,-0.3 -13.06,-3.3 -13.8,-4.5 -46.95,-177.5 -124.46,-515.7 -115.11,-784.9 6.08,-174.6 27.49,-301.7 63.65,-377.7 27.62,-58 63.19,-85.4 108.74,-83.9 45.55,1.6 79.13,31.4 102.66,91.3 30.79,78.3 43.33,206.5 37.26,381.1 -9.35,269.2 -110.17,601.3 -169.44,775.3 -0.67,0.9 -5.43,3.3 -12.79,3.3 z m 38.35,-1295.9 c -61.82,0 -110.66,36.8 -145.27,109.6 -39.35,82.7 -61.58,212 -67.96,395.3 -9.56,275 68.99,618.1 116.65,798.2 5.8,21.9 27.59,36.6 55.49,37.6 28.2,1 50.67,-12.3 57.97,-33.7 60.06,-176.3 162.25,-513.2 171.8,-788.1 6.37,-183.3 -6.83,-313.8 -40.34,-399.1 -30.35,-77.2 -78.39,-117.5 -142.83,-119.7 -1.84,-0.1 -3.68,-0.1 -5.51,-0.1"
         style="fill:#000000;fill-opacity:1;fill-rule:nonzero;stroke:none"
         transform="matrix(0.13333333,0,0,-0.13333333,0,3333.3333)" />
      <path
         id="path79"
         d="m 6266.44,19146.9 c 0,-138.5 -112.34,-250.9 -250.91,-250.9 -138.58,0 -250.91,112.4 -250.91,250.9 0,138.6 112.33,250.9 250.91,250.9 138.57,0 250.91,-112.3 250.91,-250.9"
         style="fill:transparent;fill-opacity:1;fill-rule:nonzero;stroke:none"
         transform="matrix(0.13333333,0,0,-0.13333333,0,3333.3333)" />
      <path
         id="path80"
         d="m 6015.53,19375.4 c -125.99,0 -228.5,-102.5 -228.5,-228.5 0,-126 102.51,-228.5 228.5,-228.5 125.99,0 228.49,102.5 228.49,228.5 0,126 -102.5,228.5 -228.49,228.5 z m 0,-501.8 c -150.72,0 -273.33,122.6 -273.33,273.3 0,150.7 122.61,273.4 273.33,273.4 150.71,0 273.32,-122.7 273.32,-273.4 0,-150.7 -122.61,-273.3 -273.32,-273.3"
         style="fill:#000000;fill-opacity:1;fill-rule:nonzero;stroke:none"
         transform="matrix(0.13333333,0,0,-0.13333333,0,3333.3333)" />
      <path
         id="path81"
         d="m 3803.14,5098.2 c -929.72,857 -448.47,1409.8 -448.47,1409.8 0,0 415.32,672.8 1872.79,-206.8 1457.48,-879.6 2868.22,-552.6 3187.25,-420.8 319.03,131.9 1433.79,960.7 2061.99,1007.3 349.5,25.9 767.9,-237 400.9,-947.4 -759,-1469.1 -2820.32,-1636.7 -2820.32,-1636.7 0,0 -999.23,-187.7 -2025.72,-5.9 0,0 -1298.69,-56.5 -2228.42,800.5"
         style="fill:transparent;fill-opacity:1;fill-rule:nonzero;stroke:none"
         transform="matrix(0.13333333,0,0,-0.13333333,0,3333.3333)" />
      <path
         id="path82"
         d="m 6031.57,4320.2 c 1.31,0 2.61,-0.2 3.9,-0.4 1010.41,-179 2007.72,4 2017.67,5.8 0.77,0.2 1.54,0.3 2.32,0.3 5.13,0.5 520.2,44.5 1120.69,266.6 552.62,204.4 1292.95,606 1681.55,1358.1 199.5,386.1 149.2,606.5 71.9,723.5 -104.3,157.9 -301.4,202.2 -451.2,191.2 -432.9,-32.1 -1095.87,-437.9 -1579.92,-734.2 -210.7,-129 -377.12,-230.8 -475.21,-271.4 -166.66,-68.8 -602.05,-182.3 -1175.73,-170.6 -720.58,14.7 -1404.13,214.2 -2031.66,592.9 -743.64,448.8 -1205.81,482.2 -1462.56,431.3 -275.19,-54.6 -378.6,-215.5 -379.61,-217.2 -0.61,-0.9 -1.36,-1.9 -2.11,-2.8 -1.16,-1.4 -116.06,-137.1 -118.98,-372.4 -2.7,-218.6 93.24,-570.7 565.71,-1006.2 911.89,-840.6 2199.43,-795.1 2212.26,-794.6 0.33,0 0.65,0.1 0.98,0.1 z m 959.19,-123.7 c -295.86,0 -627.45,19.9 -960.78,78.8 -65.71,-2.1 -1335.78,-28.9 -2242.03,806.4 -486.36,448.3 -583.91,814.7 -580.1,1043.1 4.01,240.5 115.22,380.4 128.74,396.5 12.14,18.7 122.66,177.9 403.44,235.1 385.27,78.5 889.6,-68.2 1499.01,-436 620.72,-374.6 1296.79,-571.9 2009.42,-586.5 566.5,-11.4 994.25,99.7 1157.69,167.3 94.82,39.2 268.18,145.3 468.93,268.2 487.96,298.7 1156.22,707.7 1599.92,740.6 162.5,12.1 377,-37.1 492,-211.2 83.9,-127 140,-363.4 -69.5,-768.8 C 10502.1,5164.8 9751.05,4757.2 9190.58,4550 8598.52,4331.2 8088.39,4283.8 8060.27,4281.4 c -26.31,-4.8 -475.58,-84.8 -1069.51,-84.9"
         style="fill:#000000;fill-opacity:1;fill-rule:nonzero;stroke:none"
         transform="matrix(0.13333333,0,0,-0.13333333,0,3333.3333)" />
      <path
         id="path83"
         d="m 6215.81,4922.7 329.21,-184.2 -164.37,-341.6 -272.52,174.5 107.68,351.3"
         style="fill:transparent;fill-opacity:1;fill-rule:nonzero;stroke:none"
         transform="matrix(0.13333333,0,0,-0.13333333,0,3333.3333)" />
      <path
         id="path84"
         d="m 6134.55,4581.1 236.88,-151.6 144.27,299.7 -286.61,160.4 z m 246.1,-206.6 c -4.24,0 -8.44,1.2 -12.08,3.6 l -272.52,174.4 c -8.47,5.5 -12.29,15.9 -9.35,25.5 l 107.68,351.3 c 1.98,6.4 6.79,11.7 13.08,14.2 6.31,2.5 13.38,2.1 19.29,-1.2 l 329.22,-184.2 c 10.33,-5.8 14.4,-18.6 9.25,-29.3 l -164.38,-341.6 c -2.77,-5.8 -7.9,-10.1 -14.07,-11.8 -2.01,-0.6 -4.07,-0.9 -6.12,-0.9"
         style="fill:#000000;fill-opacity:1;fill-rule:nonzero;stroke:none"
         transform="matrix(0.13333333,0,0,-0.13333333,0,3333.3333)" />
      <path
         id="path85"
         d="m 6415.82,4782 c 38.11,49.2 112.52,48.6 149.45,-1.5 l 159.8,-216.8 -215.89,-278.1 -285.88,131.5 c 19.64,123.3 119.66,270.9 192.52,364.9"
         style="fill:#000000;fill-opacity:1;fill-rule:nonzero;stroke:none"
         transform="matrix(0.13333333,0,0,-0.13333333,0,3333.3333)" />
      <path
         id="path86"
         d="m 6382.65,4551.3 87.28,88.3 c 31.41,31.8 80.53,37.8 118.74,14.7 l 62.05,-37.7 13.35,28.9 c 14.46,31.3 49.97,46.7 82.64,35.8 199.11,-66.5 860.49,-294.4 1081.72,-458.3 261.67,-193.8 75.84,-625.1 -380.52,-581.1 -361.67,34.8 -855.97,438.1 -1045.54,604 -37.26,32.6 -27.85,92.8 17.48,112.7 l 0.46,0.2 -48.27,69.5 c -26.56,38.2 -22.1,89.9 10.61,123"
         style="fill:transparent;fill-opacity:1;fill-rule:nonzero;stroke:none"
         transform="matrix(0.13333333,0,0,-0.13333333,0,3333.3333)" />
      <path
         id="path87"
         d="m 6398.59,4535.5 c -25.11,-25.4 -28.53,-65.1 -8.16,-94.4 l 48.28,-69.5 c 3.78,-5.4 4.96,-12.2 3.23,-18.6 -1.74,-6.4 -6.2,-11.7 -12.21,-14.5 -15.36,-6.8 -25.06,-19.4 -27.45,-35 -2.39,-15.5 3.02,-30.3 14.84,-40.7 192.71,-168.6 679.13,-564.5 1032.93,-598.6 262.02,-25.3 409.76,108.1 456.59,229.9 44.83,116.8 9.76,235.9 -91.55,310.9 -218.5,161.9 -878.42,389.2 -1075.48,455.1 -21.78,7.2 -45.52,-3 -55.2,-24 l -13.35,-28.9 c -2.68,-5.8 -7.69,-10.1 -13.8,-12 -6.1,-1.9 -12.7,-1 -18.16,2.3 l -62.05,37.6 c -29.46,17.8 -66.96,13.2 -91.18,-11.3 z m 1114.98,-919.3 c -21.79,0 -44.39,1.1 -67.81,3.3 -366.77,35.4 -862.19,438.1 -1058.16,609.6 -23.24,20.3 -34.33,50.7 -29.64,81.2 3.35,21.8 14.32,41.1 30.59,54.9 l -34.92,50.3 c -32.7,47 -27.22,110.7 13.07,151.5 v 0 l 87.28,88.3 c 38.86,39.4 99.03,46.8 146.32,18.1 l 40.6,-24.6 2.83,6.1 c 19.28,41.7 66.59,62.2 110.09,47.7 198.63,-66.4 864.14,-295.7 1087.96,-461.5 118.2,-87.6 159.07,-226.7 106.7,-363 -48.18,-125.4 -189.73,-261.9 -434.91,-261.9"
         style="fill:#000000;fill-opacity:1;fill-rule:nonzero;stroke:none"
         transform="matrix(0.13333333,0,0,-0.13333333,0,3333.3333)" />
      <path
         id="path88"
         d="m 6950.28,4057.6 c -3.23,0 -6.51,0.7 -9.62,2.2 -11.17,5.3 -15.92,18.6 -10.62,29.8 l 147.83,310.9 c 5.32,11.2 18.73,15.9 29.88,10.6 11.18,-5.3 15.93,-18.7 10.61,-29.9 l -147.82,-310.8 c -3.84,-8.1 -11.89,-12.8 -20.26,-12.8"
         style="fill:#000000;fill-opacity:1;fill-rule:nonzero;stroke:none"
         transform="matrix(0.13333333,0,0,-0.13333333,0,3333.3333)" />
      <path
         id="path89"
         d="m 7635.28,4927.6 c -6.22,0 -12.39,2.6 -16.83,7.6 l -48.32,54.8 c -4.1,4.7 -6.09,10.8 -5.5,17 0.59,6.2 3.71,11.8 8.62,15.6 l 1536.93,1186 c 9.76,7.5 23.87,5.7 31.44,-4.1 7.55,-9.8 5.75,-23.9 -4.06,-31.4 l -1517.98,-1171.4 32.5,-36.8 c 8.18,-9.3 7.3,-23.5 -2,-31.7 -4.25,-3.7 -9.54,-5.6 -14.8,-5.6"
         style="fill:#000000;fill-opacity:1;fill-rule:nonzero;stroke:none"
         transform="matrix(0.13333333,0,0,-0.13333333,0,3333.3333)" />
      <path
         id="path90"
         d="m 7688.25,4854.2 -669.07,-240.2 105.89,-364 807.71,220.3 -244.53,383.9"
         style="fill:transparent;fill-opacity:1;fill-rule:nonzero;stroke:none"
         transform="matrix(0.13333333,0,0,-0.13333333,0,3333.3333)" />
      <path
         id="path91"
         d="m 7046.58,4600 93.85,-322.5 757.1,206.4 -218.57,343.2 z m 78.47,-372.4 c -9.73,0 -18.66,6.4 -21.5,16.2 l -105.89,363.9 c -3.32,11.4 2.79,23.4 13.94,27.4 l 669.07,240.2 c 9.83,3.5 20.85,-0.2 26.48,-9.1 l 244.53,-383.9 c 3.83,-6 4.57,-13.4 2.01,-20.1 -2.57,-6.6 -8.14,-11.7 -15.01,-13.5 l -807.72,-220.3 c -1.97,-0.5 -3.96,-0.8 -5.91,-0.8"
         style="fill:#000000;fill-opacity:1;fill-rule:nonzero;stroke:none"
         transform="matrix(0.13333333,0,0,-0.13333333,0,3333.3333)" />
      <path
         id="path92"
         d="m 7153.79,4635.7 c -29.49,54.7 -102.99,66.4 -147.66,23 l -193.32,-187.5 167.15,-309.8 303.63,82.6 c 0.94,124.9 -73.41,286.9 -129.8,391.7"
         style="fill:#000000;fill-opacity:1;fill-rule:nonzero;stroke:none"
         transform="matrix(0.13333333,0,0,-0.13333333,0,3333.3333)" />
      <path
         id="path93"
         d="m 7148.51,4402.6 -71.55,101.5 c -25.75,36.5 -73.2,50.6 -114.7,34 l -67.4,-26.9 -8.41,30.7 c -9.11,33.2 -41.6,54.3 -75.62,48.9 -207.34,-32.8 -897.22,-148.7 -1142.42,-273.9 -290.01,-148.1 -177.74,-604.1 279.64,-635.9 362.47,-25.2 916.43,291.3 1130.73,423.7 42.12,26 42.75,86.9 1.32,114 l -0.42,0.3 59.04,60.5 c 32.49,33.3 36.6,85.1 9.79,123.1"
         style="fill:transparent;fill-opacity:1;fill-rule:nonzero;stroke:none"
         transform="matrix(0.13333333,0,0,-0.13333333,0,3333.3333)" />
      <path
         id="path94"
         d="m 6821.41,4569.2 c -2.33,0 -4.7,-0.1 -7.07,-0.5 -205.22,-32.5 -893.61,-148.1 -1135.74,-271.8 -112.28,-57.3 -166.49,-169 -141.48,-291.5 26.13,-127.9 149.82,-283.8 412.48,-302 13.4,-1 27.13,-1.4 41.04,-1.4 354.3,-0.1 866.73,292.2 1076.36,421.7 13.38,8.3 21.16,22.1 21.37,37.8 0.19,15.8 -7.29,29.8 -20.53,38.4 -5.62,3.7 -9.51,9.8 -10.24,16.5 -0.73,6.6 1.35,13.4 6.03,18.2 l 59.05,60.6 c 24.93,25.5 28.09,65.3 7.51,94.5 l -71.55,101.4 c -19.86,28.2 -56.08,39 -88.07,26.2 l -67.41,-26.9 c -5.9,-2.4 -12.58,-2.1 -18.3,0.8 -5.71,2.8 -9.93,7.9 -11.62,14.1 l -8.4,30.7 c -5.46,19.9 -23.45,33.2 -43.43,33.2 z m -831.61,-912 c -14.71,0 -29.12,0.4 -43.31,1.4 -287.75,20 -424.02,194.5 -453.29,337.8 -29.22,143.1 34.02,273.6 165.03,340.5 248,126.6 942.23,243.3 1149.1,276.1 45.17,7.1 88.58,-20.9 100.74,-65.2 l 1.78,-6.5 44.11,17.6 c 51.37,20.5 109.48,3.3 141.32,-41.9 l 71.55,-101.5 c 33.02,-46.8 27.95,-110.6 -12.06,-151.6 l -42.75,-43.9 c 13.84,-16.3 21.45,-37.1 21.16,-59.1 -0.39,-30.9 -16.32,-59.1 -42.62,-75.3 -213,-131.6 -734.23,-428.4 -1100.76,-428.4"
         style="fill:#000000;fill-opacity:1;fill-rule:nonzero;stroke:none"
         transform="matrix(0.13333333,0,0,-0.13333333,0,3333.3333)" />
      <path
         id="path95"
         d="m 6511,4008.8 c -9.75,0 -18.72,6.4 -21.54,16.3 l -94.62,330.9 c -3.39,11.9 3.5,24.3 15.39,27.7 11.93,3.5 24.31,-3.5 27.71,-15.4 l 94.62,-330.9 c 3.41,-11.9 -3.49,-24.3 -15.39,-27.7 -2.05,-0.6 -4.13,-0.9 -6.17,-0.9"
         style="fill:#000000;fill-opacity:1;fill-rule:nonzero;stroke:none"
         transform="matrix(0.13333333,0,0,-0.13333333,0,3333.3333)" />
      <path
         id="path96"
         d="m 5974.1,3753.9 c -4.07,0 -8.18,1.1 -11.88,3.4 -368.2,230.5 -221.97,529.2 -220.44,532.2 5.62,11.1 19.13,15.5 30.14,9.9 11.02,-5.6 15.42,-19.1 9.85,-30.1 -5.43,-10.9 -128.26,-265.8 204.25,-474 10.49,-6.6 13.66,-20.4 7.1,-30.9 -4.26,-6.8 -11.56,-10.5 -19.02,-10.5"
         style="fill:#000000;fill-opacity:1;fill-rule:nonzero;stroke:none"
         transform="matrix(0.13333333,0,0,-0.13333333,0,3333.3333)" />
      <path
         id="path97"
         d="m 6236.6,4982.4 c -1.48,0 -2.98,0.2 -4.49,0.5 -12.12,2.5 -19.96,14.3 -17.5,26.4 l 20.49,100.9 c -65.24,52 -426.21,337.9 -1000.47,760.2 -633.05,465.6 -771.7,560.9 -773.03,561.8 -10.21,7 -12.83,20.9 -5.84,31.2 6.99,10.2 20.95,12.8 31.15,5.8 1.34,-0.9 140,-96.2 774.27,-562.6 634.36,-466.6 1008.94,-767 1012.65,-770 6.54,-5.2 9.6,-13.7 7.93,-21.9 l -23.22,-114.3 c -2.15,-10.6 -11.5,-18 -21.94,-18"
         style="fill:#000000;fill-opacity:1;fill-rule:nonzero;stroke:none"
         transform="matrix(0.13333333,0,0,-0.13333333,0,3333.3333)" />
      <path
         id="path98"
         d="m 9526.46,7215.5 c -47.79,213.9 -352.89,1002.7 -582.97,1583.7 -183.62,463.8 -627.52,798.2 -1155.96,865.4 -393.33,50.1 -819.76,60.2 -1229.8,27.9 -683.72,-53.9 -1270.94,-472.4 -1497.1,-1072.3 -203.68,-540.4 -425.69,-1203.8 -430.71,-1539.8 -5.35,-358 210.94,-700.1 447,-965.8 297.78,-335.1 722.58,-544 1181.33,-586.5 655.39,-60.7 1678.04,-121.5 2142.57,30.2 712.38,232.8 1241.29,1139.5 1125.64,1657.2"
         style="fill:#000000;fill-opacity:1;fill-rule:nonzero;stroke:none"
         transform="matrix(0.13333333,0,0,-0.13333333,0,3333.3333)" />
      <path
         id="path99"
         d="M 8604.13,8261.8 H 5507.47 c -140.54,0 -254.45,-113.9 -254.45,-254.4 V 5959.9 c 0,-140.5 113.91,-254.4 254.45,-254.4 h 3096.66 c 140.52,0 254.43,113.9 254.43,254.4 v 2047.5 c 0,140.5 -113.91,254.4 -254.43,254.4"
         style="fill:transparent;fill-opacity:1;fill-rule:nonzero;stroke:none"
         transform="matrix(0.13333333,0,0,-0.13333333,0,3333.3333)" />
      <path
         id="path100"
         d="m 5507.47,8239.4 c -127.94,0 -232.03,-104.1 -232.03,-232 V 5959.9 c 0,-127.9 104.09,-232 232.03,-232 h 3096.66 c 127.93,0 232.01,104.1 232.01,232 v 2047.5 c 0,127.9 -104.08,232 -232.01,232 z M 8604.13,5683 H 5507.47 c -152.66,0 -276.86,124.2 -276.86,276.9 v 2047.5 c 0,152.6 124.2,276.8 276.86,276.8 h 3096.66 c 152.65,0 276.84,-124.2 276.84,-276.8 V 5959.9 c 0,-152.7 -124.19,-276.9 -276.84,-276.9"
         style="fill:#000000;fill-opacity:1;fill-rule:nonzero;stroke:none"
         transform="matrix(0.13333333,0,0,-0.13333333,0,3333.3333)" />
      <path
         id="path101"
         d="M 8809.27,5693.1 H 5249.52 c -88.47,0 -160.17,-71.7 -160.17,-160.1 0,-88.5 71.7,-160.2 160.17,-160.2 h 3559.75 c 88.48,0 160.19,71.7 160.19,160.2 0,88.4 -71.71,160.1 -160.19,160.1"
         style="fill:transparent;fill-opacity:1;fill-rule:nonzero;stroke:none"
         transform="matrix(0.13333333,0,0,-0.13333333,0,3333.3333)" />
      <path
         id="path102"
         d="m 5249.53,5670.7 c -75.97,0 -137.78,-61.8 -137.78,-137.7 0,-76 61.81,-137.8 137.78,-137.8 h 3559.74 c 75.98,0 137.78,61.8 137.78,137.8 0,75.9 -61.8,137.7 -137.78,137.7 z M 8809.27,5350.4 H 5249.53 c -100.7,0 -182.61,81.9 -182.61,182.6 0,100.7 81.91,182.6 182.61,182.6 h 3559.74 c 100.69,0 182.61,-81.9 182.61,-182.6 0,-100.7 -81.92,-182.6 -182.61,-182.6"
         style="fill:#000000;fill-opacity:1;fill-rule:nonzero;stroke:none"
         transform="matrix(0.13333333,0,0,-0.13333333,0,3333.3333)" />
      <path
         id="path103"
         d="m 7329.66,9676.9 33.35,472.7 c 22.59,1.6 38.2,2.5 42.79,2.6 131.88,1.5 174.72,44.2 186.08,152.5 7.09,67.8 9.6,168.4 -23.43,294.3 -3.52,13.4 -2.75,27.7 2.7,40.5 l 22.54,52.8 c 4.68,17.3 -1.33,36 -15.2,47.3 l -12.01,9.9 c -43,35.3 -78.77,78.6 -107.45,126.7 -26.39,44.3 -71.24,127.3 -101.99,142 -86.64,41.4 -438.2,225.3 -634.71,-96 -153.21,-250.6 97.15,-595.5 188.12,-708.5 22,-27.3 -148.53,-562.9 -148.53,-562.9 l -220.48,-53.3 c 0,0 170.14,-302.1 686.88,-177.2 367.99,89 309.53,225.9 309.53,225.9 l -208.19,30.7"
         style="fill:transparent;fill-opacity:1;fill-rule:nonzero;stroke:none"
         transform="matrix(0.13333333,0,0,-0.13333333,0,3333.3333)" />
      <path
         id="path104"
         d="m 6578.49,9583.4 c 53.4,-67.7 234.98,-240.3 644.56,-141.3 196.82,47.6 264.34,106.9 286.33,148.3 8.02,15.1 9.66,27.6 9.46,36 l -192.45,28.3 c -11.59,1.7 -19.91,12.1 -19.09,23.8 l 33.35,472.7 c 0.79,11.1 9.66,20 20.81,20.7 23.26,1.7 39.34,2.6 44.07,2.7 128.64,1.5 154.58,42.1 164.05,132.5 10.04,95.8 2.58,189.4 -22.81,286.2 -4.84,18.4 -3.5,37.9 3.76,55 l 21.83,51.1 c 1.75,8.4 -1.4,17.4 -8.08,22.9 l -12.03,9.9 c -43.39,35.6 -81.24,80.2 -112.47,132.6 l -11.96,20.3 c -21.01,36.1 -60.14,103.2 -80.44,112.9 l -9.44,4.5 c -103.1,49.9 -416.97,201.5 -596.49,-92 -141.5,-231.4 83.26,-554.6 186.46,-682.8 8.84,-10.9 29.55,-36.7 -144.63,-583.7 -2.38,-7.5 -8.48,-13.2 -16.09,-15 z M 6990,9367.3 c -339.97,-0.1 -462.07,208.5 -468.1,219.2 -3.43,6.1 -3.82,13.5 -1.02,19.9 2.81,6.5 8.46,11.2 15.29,12.9 l 208.22,50.3 c 74.45,234.8 147.25,491.6 145.73,533.6 -110.38,138 -341.91,477.2 -186.91,730.6 133.14,217.8 353.25,254.5 654.24,109.1 l 9.26,-4.4 c 30.34,-14.5 61.83,-65.6 99.84,-130.8 l 11.74,-20 c 28.56,-47.9 63.01,-88.6 102.39,-120.9 l 12.03,-9.8 c 20.73,-17 29.61,-44.7 22.61,-70.6 -0.27,-1 -0.61,-2 -1.01,-2.9 l -22.54,-52.8 c -3.38,-8 -3.96,-17.2 -1.64,-26.1 26.78,-102.1 34.65,-200.9 24.04,-302.2 -13.03,-124.3 -69.44,-171 -208.12,-172.6 -2.96,-0.1 -10.71,-0.5 -22.06,-1.3 l -30.5,-432.5 187.63,-27.6 c 7.7,-1.1 14.29,-6.2 17.34,-13.4 1.58,-3.7 14.76,-37.4 -7.96,-82.7 -36.81,-73.3 -143.44,-131.8 -316.92,-173.8 -91.38,-22.1 -172.3,-31.2 -243.58,-31.2"
         style="fill:#000000;fill-opacity:1;fill-rule:nonzero;stroke:none"
         transform="matrix(0.13333333,0,0,-0.13333333,0,3333.3333)" />
      <path
         id="path105"
         d="m 6830.67,11330.8 c 95.29,20.5 204.78,5.9 251.01,22.9 74.58,27.4 76.65,116.7 179.82,141.8 124.91,30.4 177.02,-22.9 225.86,-97.3 8.14,-12.4 15.3,-26.2 21.16,-41.9 78.52,-210.6 -20.61,-313.3 -64.76,-346.7 0,0 -280.99,-145.2 -329.09,-186.7 -45,-38.8 -96.93,-130.6 -64.27,-262.7 4.21,-17 -3.21,-34.7 -17.62,-43.4 -16.9,-10.2 -38.77,-5.3 -50.35,11.5 -36.52,53 -116.35,155.4 -173.14,131.1 -71.35,-30.4 -49.12,-244.3 108.29,-269 48.31,-7.5 87.62,-57 82.84,-107.6 -3.12,-33 -34.24,-73.1 -80.53,-83.7 -28.22,-6.5 -56.11,4.9 -80.98,20.8 -102.72,65.5 -392.47,343.7 -428.47,593 -43.36,300.3 293.44,490.6 420.23,517.9"
         style="fill:#000000;fill-opacity:1;fill-rule:nonzero;stroke:none"
         transform="matrix(0.13333333,0,0,-0.13333333,0,3333.3333)" />
      <path
         id="path106"
         d="m 7398.5,10131.9 c -0.27,0 -0.56,0 -0.83,0 -4.79,0.2 -118.23,5.2 -200.03,74.6 -9.44,8 -10.58,22.2 -2.57,31.6 8.02,9.4 22.15,10.6 31.59,2.6 69.72,-59.2 171.67,-63.9 172.69,-64 12.35,-0.4 21.99,-10.9 21.52,-23.2 -0.45,-12.1 -10.38,-21.6 -22.37,-21.6"
         style="fill:#000000;fill-opacity:1;fill-rule:nonzero;stroke:none"
         transform="matrix(0.13333333,0,0,-0.13333333,0,3333.3333)" />
      <path
         id="path107"
         d="m 18449,14521 c 17.2,107 -10.9,134.7 14.4,229.1 22.4,83.9 65.6,183.9 148.6,268.2 15.4,15.6 132.1,132.1 303.5,160 409.6,66.6 795.1,-187.3 919.6,-329.2 111.3,-126.8 133.9,-367.9 218.4,-446.9 257.2,-240.6 444.7,-174.9 657,-382.7 153.1,-149.8 206.1,-331.2 231.1,-416.5 21,-71.8 68.5,-263.2 4.3,-579.8 -93,-458.6 -273,-453 -342.3,-800.6 -87.6,-439.4 172.3,-587.2 51,-925.8 -95.2,-266 -364.4,-479.1 -659.2,-495.1 -575.9,-31.3 -943.2,704.2 -957.8,751.5 -61,199.3 -175.8,294.4 43.6,826.1 137.2,332.5 26.2,790.4 -89.7,904.7 -94.1,92.8 -568.5,-250.5 -767.4,248.5 -37.8,95 -86.8,165.8 -95.1,242.7 -11.6,108 44.1,148.5 215.3,481.4 70.5,136.9 92.6,189.2 104.7,264.4"
         style="fill:#000000;fill-opacity:1;fill-rule:nonzero;stroke:none"
         transform="matrix(0.13333333,0,0,-0.13333333,0,3333.3333)" />
      <path
         id="path108"
         d="m 20451,5549.4 c 0,0 275.7,-365.7 256,-606.2 l 5.5,-93.1 575.4,523.6 -80.3,32.5 c -127.4,87.1 -261.9,138.8 -335.9,274.2 l -420.7,-131"
         style="fill:transparent;fill-opacity:1;fill-rule:nonzero;stroke:none"
         transform="matrix(0.13333333,0,0,-0.13333333,0,3333.3333)" />
      <path
         id="path109"
         d="m 20729.4,4942.9 2.7,-44.7 514.4,468 -47.4,19.2 c -1.5,0.7 -2.9,1.4 -4.2,2.3 -31.1,21.2 -63,40.6 -93.9,59.4 -92.9,56.3 -180.9,109.7 -239.7,206.6 l -373.8,-116.4 c 62.7,-88.4 258.1,-382.9 241.9,-594.4 z m -16.9,-115.2 c -2.8,0 -5.7,0.5 -8.4,1.6 -8,3.3 -13.4,10.8 -13.9,19.4 l -5.6,93.1 c -0.1,1.1 -0.1,2.1 0,3.2 18.8,229.4 -248.8,587.3 -251.5,590.9 -4.4,5.8 -5.7,13.4 -3.4,20.4 2.2,6.9 7.7,12.3 14.7,14.5 l 420.7,131 c 10.1,3.2 21.2,-1.3 26.3,-10.6 52.8,-96.6 140.2,-149.6 232.8,-205.8 30.8,-18.7 62.6,-37.9 94,-59.3 l 78.1,-31.7 c 7.2,-2.9 12.3,-9.2 13.7,-16.8 1.3,-7.6 -1.3,-15.3 -7,-20.5 l -575.4,-523.6 c -4.2,-3.8 -9.6,-5.8 -15.1,-5.8"
         style="fill:#000000;fill-opacity:1;fill-rule:nonzero;stroke:none"
         transform="matrix(0.13333333,0,0,-0.13333333,0,3333.3333)" />
      <path
         id="path110"
         d="m 20608.1,5063.1 8.9,-113.3 c 17.7,-224.5 -19.5,-450 -108.4,-656.9 l -68.3,-159 c -6.5,-15.2 -5.1,-32.5 3.8,-46.4 l 4.5,-7.1 c 50.1,-78.5 271.1,-146.2 550.6,43.3 173,117.2 523.7,442.8 763.5,1011.5 15.2,35.9 5.3,77.5 -24.6,102.6 -108.9,91.4 -377.6,299.9 -587.3,323.2 -23.3,2.6 -44,-14.9 -44.2,-38.3 l -2,-225.7 c -0.9,-101.3 -84,-182.6 -185.2,-181.2 l -258.7,3.4 c -30.6,0.4 -55,-25.5 -52.6,-56.1"
         style="fill:transparent;fill-opacity:1;fill-rule:nonzero;stroke:none"
         transform="matrix(0.13333333,0,0,-0.13333333,0,3333.3333)" />
      <path
         id="path111"
         d="m 20630.5,5064.9 8.9,-113.4 c 17.8,-227.2 -20.3,-458 -110.2,-667.4 l -68.3,-159.1 c -3.6,-8.3 -2.8,-17.8 2.1,-25.4 l 4.5,-7.1 c 13.7,-21.5 50.5,-49 112.4,-61.8 69.4,-14.3 214.5,-18.8 406.8,111.6 77.8,52.8 480.3,349.2 755.4,1001.6 11.4,27.1 4,57.9 -18.4,76.7 -105,88.1 -371.3,295.4 -575.4,318.2 -4.9,0.5 -10.1,-1 -13.8,-4.3 -3.5,-3.1 -5.4,-7.4 -5.4,-12 l -2.1,-225.7 c -0.5,-55 -22.4,-106.5 -61.7,-144.9 -39.3,-38.5 -90.5,-58.8 -146.2,-58.5 l -258.7,3.4 c -8.6,-0.1 -16.2,-3.2 -22,-9.3 -5.8,-6.2 -8.6,-14.2 -7.9,-22.6 z m 21,-1086 c -32.6,0 -59.7,3.6 -80.6,7.9 -65.2,13.4 -116.7,43.2 -141.2,81.5 l -4.5,7.1 c -12.9,20.2 -14.9,45.3 -5.5,67.3 l 68.3,159 c 87.1,202.8 124,426.3 106.7,646.3 l -8.9,113.4 c -1.7,20.8 5.6,41.5 19.9,56.7 14.2,15.2 34.6,23.5 55.3,23.6 l 258.7,-3.5 c 41.9,-0.4 83.5,15.7 114.2,45.7 30.8,30.1 47.9,70.3 48.3,113.2 l 2,225.8 c 0.2,17.2 7.7,33.7 20.6,45.1 13.2,11.7 30.9,17.3 48.5,15.3 216.2,-24.1 491.1,-237.6 599.2,-328.3 37.6,-31.5 50,-83.2 30.9,-128.5 -280,-664.1 -691.9,-967.3 -771.6,-1021.3 -149.5,-101.4 -274.1,-126.3 -360.3,-126.3"
         style="fill:#000000;fill-opacity:1;fill-rule:nonzero;stroke:none"
         transform="matrix(0.13333333,0,0,-0.13333333,0,3333.3333)" />
      <path
         id="path112"
         d="m 20469.3,4169.2 c -8.7,0 -16.9,5.1 -20.6,13.5 -4.9,11.4 0.3,24.6 11.6,29.5 l 35.7,15.5 c 182.2,79.1 326.1,231.4 394.6,417.9 l 23.8,64.9 c 9.1,24.7 31,41 57.2,42.5 25.9,1.8 49.9,-12 61.8,-35.5 l 30.9,-60.6 c 4,-7.9 11.3,-13.2 20,-14.5 8.8,-1.4 17.3,1.5 23.5,7.8 167.9,170.7 296.1,370.7 381.1,594.6 l 48.9,128.7 c 4.4,11.6 17.3,17.3 28.9,13 11.6,-4.4 17.4,-17.4 13,-28.9 l -48.9,-128.8 c -87.2,-229.6 -218.8,-434.9 -391.1,-610.1 -16.4,-16.7 -39,-24.3 -62.3,-20.6 -23.1,3.6 -42.5,17.6 -53.1,38.5 l -30.9,60.6 c -5.5,10.9 -15.9,11.3 -19.1,11.1 -3.1,-0.2 -13.6,-1.7 -17.8,-13.2 l -23.8,-65 c -72.8,-197.9 -225.4,-359.6 -418.8,-443.6 l -35.7,-15.4 c -2.9,-1.3 -5.9,-1.9 -8.9,-1.9"
         style="fill:#000000;fill-opacity:1;fill-rule:nonzero;stroke:none"
         transform="matrix(0.13333333,0,0,-0.13333333,0,3333.3333)" />
      <path
         id="path113"
         d="m 18354.6,4522.4 c 0,0 31.6,-360 -117.6,-530.8 l -46.5,-73.4 699.9,37.2 -33.8,76.6 c -60.2,136.3 -106.4,355.6 -94.7,498.9 l -407.3,-8.5"
         style="fill:transparent;fill-opacity:1;fill-rule:nonzero;stroke:none"
         transform="matrix(0.13333333,0,0,-0.13333333,0,3333.3333)" />
      <path
         id="path114"
         d="m 18255,3978.2 -22.3,-35.3 624.1,33.1 -20.7,46.9 c -54.3,123.1 -103.7,332.6 -98,485.1 l -359.6,-7.5 c 4.3,-84.8 8.1,-370 -123.5,-522.3 z m -64.5,-82.4 c -8,0 -15.3,4.2 -19.4,11.1 -4.2,7.3 -4.1,16.2 0.4,23.3 l 46.6,73.4 c 0.6,1 1.2,1.9 2,2.8 141.1,161.5 112.5,510.6 112.2,514.1 -0.6,6.2 1.5,12.3 5.6,16.9 4.2,4.6 10,7.3 16.2,7.4 l 407.4,8.5 c 6.3,-0.2 12.4,-2.5 16.8,-7.1 4.3,-4.6 6.5,-10.8 6,-17.2 -10.8,-131.3 30,-345.7 92.8,-488 l 33.8,-76.6 c 3,-6.7 2.5,-14.5 -1.4,-20.8 -3.9,-6.2 -10.6,-10.2 -17.9,-10.6 l -699.9,-37.2 c -0.4,0 -0.8,0 -1.2,0"
         style="fill:#000000;fill-opacity:1;fill-rule:nonzero;stroke:none"
         transform="matrix(0.13333333,0,0,-0.13333333,0,3333.3333)" />
      <path
         id="path115"
         d="m 18258.5,4224.4 -70.3,-72.4 c -139.2,-143.3 -311.1,-250.6 -501,-312.6 l -145.9,-47.7 c -13.9,-4.5 -24.6,-15.7 -28.7,-29.7 l -2.1,-7.1 c -22.9,-79.4 61.5,-266.3 351.5,-341.4 174.4,-45.2 578.5,-87 1078.2,70.2 59.1,18.6 97.8,75.3 95,137.3 -6.4,143.4 -31.7,398.7 -128.1,535 -11.9,16.8 -34.9,19 -50.4,5.6 -34.3,-29.6 -95.6,-82.5 -151.6,-131 -68,-58.7 -170.8,-50.9 -229.2,17.3 l -149.2,174.3 c -17.7,20.6 -49.3,21.6 -68.2,2.2"
         style="fill:transparent;fill-opacity:1;fill-rule:nonzero;stroke:none"
         transform="matrix(0.13333333,0,0,-0.13333333,0,3333.3333)" />
      <path
         id="path116"
         d="m 18274.6,4208.7 -70.3,-72.3 c -141.2,-145.3 -317.6,-255.4 -510.1,-318.3 l -145.9,-47.7 c -6.9,-2.2 -12.2,-7.7 -14.2,-14.6 l -2.1,-7.2 c -6.1,-21.2 -2.8,-61 24.5,-109 30.9,-54.3 112.5,-152.9 311.1,-204.4 77.3,-20 491.8,-110.8 1065.9,69.9 49,15.5 81.7,62.7 79.3,114.9 -6.2,138.6 -30.6,391 -124,523.1 -2.5,3.4 -5.6,4.5 -7.8,4.7 -3.4,0.4 -6.8,-0.7 -9.7,-3.2 l -151.6,-130.9 c -37.4,-32.3 -85.2,-48 -134.5,-44.4 -49.3,3.7 -94.1,26.5 -126.3,64 l -149.3,174.3 c -4.4,5.2 -10.5,8.1 -17.2,8.3 -6.8,0.2 -13.1,-2.3 -17.8,-7.2 z m -32.2,-858.7 c -206.6,0 -344.3,31 -386.1,41.8 -214.5,55.6 -304.3,165.2 -338.7,225.5 -29.6,51.9 -40,104.3 -28.6,143.8 l 2.1,7.2 c 6.1,21.1 22.3,37.8 43.2,44.7 l 145.9,47.7 c 185.7,60.7 355.8,166.8 491.9,306.9 l 70.3,72.4 c 13.4,13.8 32.1,21.5 51.4,20.7 19.2,-0.6 37.4,-9.3 49.9,-23.9 l 149.2,-174.3 c 24.4,-28.5 58.4,-45.7 95.7,-48.5 37.3,-2.8 73.5,9.1 101.8,33.6 l 151.6,131 c 12.4,10.6 28.5,15.6 44.5,13.7 15.7,-1.9 29.6,-10.2 38.9,-23.3 100,-141.4 125.8,-403.4 132.2,-547 3.3,-72.5 -42.2,-138.1 -110.7,-159.7 -277.3,-87.3 -518.8,-112.3 -704.5,-112.3"
         style="fill:#000000;fill-opacity:1;fill-rule:nonzero;stroke:none"
         transform="matrix(0.13333333,0,0,-0.13333333,0,3333.3333)" />
      <path
         id="path117"
         d="m 18362.3,3604.9 c -29.4,0 -58.9,0.9 -88.5,2.5 -21.6,1.2 -40.6,12.3 -52.2,30.5 -11.7,18.3 -13.7,40.2 -5.7,60.3 l 22.3,56.1 c 3.4,8.4 -1.2,14.4 -3.3,16.5 -2.2,2.1 -8,6.8 -16.5,3.5 l -57.2,-22.1 c -175.1,-67.8 -372.9,-60.9 -542.8,19.1 l -31.3,14.7 c -11.2,5.3 -16,18.6 -10.7,29.8 5.3,11.2 18.6,16 29.8,10.7 l 31.3,-14.7 c 158.8,-74.7 343.8,-81.2 507.5,-17.8 l 57.2,22.1 c 22.7,8.8 47.4,3.5 64.5,-13.8 17.1,-17.3 22.2,-42 13.1,-64.6 l -22.3,-56.1 c -2.6,-6.5 -1.9,-13.6 1.9,-19.5 3.7,-5.9 9.9,-9.6 16.9,-9.9 211.6,-11.8 419.7,19.9 618.3,94.3 l 114.4,42.8 c 11.6,4.4 24.5,-1.5 28.8,-13.1 4.4,-11.6 -1.5,-24.5 -13.1,-28.8 l -114.4,-42.9 c -176.7,-66.2 -360.6,-99.6 -548,-99.6"
         style="fill:#000000;fill-opacity:1;fill-rule:nonzero;stroke:none"
         transform="matrix(0.13333333,0,0,-0.13333333,0,3333.3333)" />
      <path
         id="path118"
         d="m 19611.8,10413.4 c 0,0 282.5,-934.7 -199.2,-1598 -648.9,-893.8 -278.1,-2956.1 -602.9,-4342.8 -6.2,-26.5 -30.3,-45 -57.6,-44.7 l -393.4,4.2 c -26.2,0.3 -48.9,17.9 -55.7,43.2 -92.6,345.8 -713.8,2686.2 -693.9,3152.7 4.6,106.4 18.1,230.5 36.8,361 90.8,632.1 281.7,1245.7 559,1821 l 432.7,897.6 974.2,-294.2"
         style="fill:#000000;fill-opacity:1;fill-rule:nonzero;stroke:none"
         transform="matrix(0.13333333,0,0,-0.13333333,0,3333.3333)" />
      <path
         id="path119"
         d="m 19916.5,10519.1 c 0,0 355.3,-660.4 198.1,-1355.2 -157.3,-694.7 79.2,-1271 245.9,-1542.3 164.7,-268.1 466.5,-944.2 572.6,-1949.2 2.5,-24.4 -6.3,-48.7 -24,-65.7 -55.5,-53 -192.9,-160.7 -400.3,-169.6 -24.1,-1 -47.4,8.9 -63.4,27 -163.5,185.8 -1104.7,1276.6 -1439.2,2144.3 -366.8,951.6 -435.6,2533 -435.6,2533 0,0 913.2,-96.5 1345.9,377.7"
         style="fill:#000000;fill-opacity:1;fill-rule:nonzero;stroke:none"
         transform="matrix(0.13333333,0,0,-0.13333333,0,3333.3333)" />
      <path
         id="path120"
         d="m 19051.7,7327.2 c -0.5,0 -1.1,0.1 -1.6,0.1 -12.4,0.9 -21.7,11.6 -20.8,24 40.7,562 113.1,1130 365.2,1477.2 179.4,247.1 272.6,560.1 277,930.4 0.2,12.3 10.2,22.2 22.4,22.2 0.1,0 0.2,0 0.3,0 12.4,-0.2 22.3,-10.3 22.2,-22.7 -4.6,-379.8 -100.7,-701.5 -285.6,-956.2 -245.5,-338.1 -316.6,-898.7 -356.8,-1454.2 -0.8,-11.8 -10.6,-20.8 -22.3,-20.8"
         style="fill:transparent;fill-opacity:1;fill-rule:nonzero;stroke:none"
         transform="matrix(0.13333333,0,0,-0.13333333,0,3333.3333)" />
      <path
         id="path121"
         d="m 16111.3,13815.7 c 0,0 -87,114.7 -81,218.8 5.5,96.3 13,319.9 -100.2,442.5 -146.9,158.9 -383.6,209.7 -407.6,161 -21.5,-43.8 270.7,-272.3 254.8,-451.5 -3.4,-37.9 -36.9,-66.7 -75,-65.5 -46,1.3 -117.6,17.1 -206.5,81.3 -22.6,16.3 -55.1,2.7 -58.1,-25 -4.3,-38 2.9,-95.1 49.5,-169.9 59.4,-95.3 156.9,-164.9 223.7,-188.6 72.8,-25.9 163.7,-170.5 163.7,-170.5 l 236.7,167.4"
         style="fill:transparent;fill-opacity:1;fill-rule:nonzero;stroke:none"
         transform="matrix(0.13333333,0,0,-0.13333333,0,3333.3333)" />
      <path
         id="path122"
         d="m 15474.2,14186.9 c -2.9,0 -5.2,-0.9 -6.2,-1.3 -2.7,-1.2 -7.3,-4.2 -8.1,-10.7 -3.5,-31.5 1.7,-84.1 46.3,-155.6 57.1,-91.8 150,-157.3 212.2,-179.4 63.4,-22.6 133.1,-117.1 162.2,-159.9 l 199.6,141.2 c -25.3,38.4 -77.3,128.4 -72.3,214.6 11.7,202.2 -20.1,345.6 -94.3,425.9 -108,117 -267,171.6 -340.4,171.6 h -0.1 c -15.4,0 -24.1,-2.3 -28.2,-4.1 6.8,-16.7 40.9,-57.1 68.8,-90 83,-98.3 196.7,-232.8 185.9,-354.7 -4.4,-49.7 -47.8,-87.4 -97.9,-86 -47.9,1.5 -124.7,17.5 -219,85.6 -2.9,2.1 -5.9,2.8 -8.5,2.8 z m 400.4,-561.1 c -1.5,0 -2.9,0.2 -4.4,0.5 -6,1.2 -11.3,4.8 -14.6,10 -24.2,38.4 -98.6,142.3 -152.2,161.3 -69.3,24.7 -172.4,97.1 -235.2,198 -51.4,82.4 -57.1,145.7 -52.8,184.2 2.3,20.8 15.2,38.2 34.4,46.8 19.7,8.7 41.8,6.4 59.1,-6.2 85.1,-61.4 152.5,-75.8 194.1,-77.1 26.3,-0.5 49.7,19.5 51.9,45.2 9.2,103.3 -101.9,234.7 -175.4,321.7 -61,72.1 -91.6,108.3 -77.1,137.7 5.3,10.7 17.9,24.4 48.1,28.8 81.3,11.8 269.1,-47.1 396,-184.5 124.9,-135.2 110.8,-378.9 106.2,-459 -5.5,-94.4 75.7,-202.9 76.5,-203.9 3.7,-4.9 5.2,-11 4.3,-17 -0.9,-6 -4.3,-11.4 -9.2,-14.9 l -236.8,-167.4 c -3.8,-2.7 -8.3,-4.2 -12.9,-4.2"
         style="fill:#000000;fill-opacity:1;fill-rule:nonzero;stroke:none"
         transform="matrix(0.13333333,0,0,-0.13333333,0,3333.3333)" />
      <path
         id="path123"
         d="m 20073.3,11445.9 c -9.3,687.8 -159.7,1142.4 -405.1,1438 -187.2,225.5 -455.9,368.5 -745.8,411.4 -152.5,22.5 -363.7,48.1 -551.4,50.9 -24.3,19.2 -51.7,35.2 -82.5,47.1 -37.7,-20.1 -74.9,-38.3 -111.8,-54.7 -73.2,-8.1 -135.1,-23 -177.5,-47.3 -20,-11.5 -34.2,-21.9 -44.8,-31.9 -442.5,-119.1 -824.2,7.9 -1151.4,163.1 -223.2,105.8 -370.6,193.8 -581.6,412.2 -33.6,34.8 -87.4,40.5 -127.8,13.8 l -249.6,-165.9 c -43.7,-29 -57.7,-86.6 -32.3,-132.5 171.8,-310.3 862.2,-1386.1 2130.6,-1299.1 41.7,-84.9 95.1,-164.2 158.2,-235.7 161.2,-182.6 108.3,-640.5 -149.8,-1610.6 0,0 1121.5,-578.7 2248.2,-222.5 0,0 -116,546 -125.6,1263.7"
         style="fill:transparent;fill-opacity:1;fill-rule:nonzero;stroke:none"
         transform="matrix(0.13333333,0,0,-0.13333333,0,3333.3333)" />
      <path
         id="path124"
         d="m 17977.1,10416.7 c 140.4,-67.5 1170,-533.6 2195.8,-219.1 -20.6,105.2 -113.5,612.5 -122.1,1248 -8.6,644.5 -139.4,1110.3 -399.8,1424 -180.3,217 -440.2,360.3 -731.9,403.5 -145.7,21.6 -359.2,47.8 -548.4,50.6 -5,0.1 -9.7,1.8 -13.6,4.9 -20.6,16.3 -43.2,29.7 -67.3,40 -34.2,-18 -69.1,-35 -104,-50.4 -2.1,-1 -4.3,-1.6 -6.6,-1.9 -75,-8.2 -131.8,-23.2 -168.8,-44.5 -17.4,-9.9 -30.7,-19.3 -40.7,-28.7 -2.7,-2.5 -5.9,-4.4 -9.5,-5.3 -460.9,-124.1 -848.4,13.4 -1166.8,164.4 -231.6,109.8 -378.7,200.2 -588.1,416.9 -26.2,27 -67.9,31.5 -99.3,10.7 l -249.6,-165.9 c -34.3,-22.7 -45,-67 -25.1,-102.9 179.2,-323.7 860.8,-1373.2 2109.4,-1287.6 9,0.5 17.7,-4.4 21.7,-12.5 40.6,-82.7 92.7,-160.3 154.9,-230.8 163,-184.6 126.4,-607.6 -140.2,-1613.4 z m 1446.7,-371.7 c -812.6,0 -1474.7,335.3 -1483.3,339.8 -9.4,4.8 -14.1,15.5 -11.4,25.7 263,988.8 304.9,1419.7 154.6,1589.9 -61.4,69.7 -113.5,146.1 -154.8,227.3 -44.7,-2.8 -88.7,-4.1 -131.9,-4.1 -1181.4,-0.1 -1829.6,999 -2004.9,1315.7 -30.9,55.6 -13.5,126.8 39.5,162 l 249.6,165.8 c 49.4,32.9 115.2,25.7 156.3,-16.9 204.6,-211.7 348.5,-300.1 575.1,-407.5 309.8,-146.9 686.1,-280.9 1130.7,-163 11.9,10.4 26.6,20.6 44.8,31 41.8,24 103.3,40.8 182.7,49.8 35.9,16.1 72,33.8 107.1,52.5 5.8,3.1 12.6,3.5 18.7,1.2 29.4,-11.4 57,-26.7 82.2,-45.8 189.8,-3.4 401.7,-29.5 546.9,-51 302.6,-44.7 572.4,-193.6 759.7,-419.2 267.3,-321.9 401.5,-796.8 410.3,-1452 9.5,-707.3 123.9,-1254 125.1,-1259.4 2.4,-11.3 -4.2,-22.5 -15.2,-26 -265,-83.8 -530.6,-115.8 -781.8,-115.8"
         style="fill:#000000;fill-opacity:1;fill-rule:nonzero;stroke:none"
         transform="matrix(0.13333333,0,0,-0.13333333,0,3333.3333)" />
      <path
         id="path125"
         d="m 19143.4,14211.2 c -17.5,-4.1 -34.6,7.9 -36.2,25.9 -7.8,85.2 -64.8,230.2 -159.5,284.9 -121.3,70.1 -283.7,76 -347,-13 -55.3,-77.6 -43.6,-138.4 -173.4,-221.1 -12.5,-7.9 -9.9,-27.5 -1.2,-39.5 l 44.5,-68.5 c 9.7,-13.4 10.7,-48.7 7.4,-64.9 -10.2,-50.1 -32.4,-153.5 -23.1,-174.1 27,-59.9 204.7,-107.3 204.7,-107.3 l -18,-461.6 c -5.6,-62.3 -33.2,-73.3 -33.2,-73.3 l -105.1,-95.4 c 0,0 -3.9,-113.1 405.5,-178.2 307.4,-48.9 288.2,5.3 288.2,5.3 0,0 -260.9,273.7 -150,869.4 2.5,13 11.9,23.8 24.4,28.3 48.2,17.1 180.2,70.5 188.6,163.3 8.9,98.6 -56.5,134.1 -116.6,119.8"
         style="fill:transparent;fill-opacity:1;fill-rule:nonzero;stroke:none"
         transform="matrix(0.13333333,0,0,-0.13333333,0,3333.3333)" />
      <path
         id="path126"
         d="m 18528.3,13195.7 c 11.3,-23 71.5,-98.7 384,-148.5 168.8,-26.8 231.8,-20.9 254,-15.3 -55.1,69.2 -239.1,347.2 -141.3,872 3.9,20.8 18.8,38.2 38.9,45.3 49.9,17.7 166.8,67.3 173.8,144.2 3.4,37.6 -5,66.2 -24.4,82.9 -16.4,14.3 -40.1,19 -64.7,13.1 -14.9,-3.5 -30.2,-0.5 -42.5,8.3 -12.1,8.8 -19.9,22.3 -21.3,37.3 -7.3,80.5 -63,218.3 -148.3,267.6 -107.1,61.8 -260.2,73.9 -317.6,-6.6 -16,-22.5 -25.9,-43.2 -36.4,-65.2 -23.5,-49.4 -47.9,-100.6 -141.3,-160.6 0,-2 0.9,-5.7 3,-8.6 l 45.2,-69.5 c 14.8,-20.4 14.2,-63.3 10.5,-81.6 l -2.2,-10.8 c -7.4,-36.1 -27,-132.1 -22,-150.5 15.2,-33.7 120.1,-75.4 189.6,-94 10.1,-2.7 17.1,-12 16.7,-22.5 l -18,-461.6 c -5.6,-62.5 -31.1,-84.2 -42.7,-90.9 z m 582.5,-213.5 c -45.2,0 -110.4,5.6 -205.5,20.8 -408.3,64.9 -425.1,178.9 -424.4,201 0.2,6.1 2.9,11.8 7.4,15.9 l 105,95.4 c 2,1.8 4.3,3.2 6.7,4.2 v 0 c -0.3,0 15.3,10.5 19.2,54.5 l 17.3,442.8 c -51.8,15.1 -175.9,56.9 -202,114.9 -9.9,21.8 -1.3,76.7 19.3,177 l 2.2,10.7 c 3.1,15 0.4,41.4 -3.6,47.3 l -45.1,69.5 c -8.7,12 -12.8,29 -10.1,43.4 2.2,11.5 8.6,21.2 18,27.2 84.1,53.6 103.9,95.2 126.9,143.3 10.8,22.8 22,46.3 40.3,71.9 73.8,103.7 252.9,90.8 376.5,19.4 104.1,-60.1 162.4,-213 170.6,-302.3 0.2,-2.6 1.6,-4.1 2.8,-5 1,-0.7 3,-1.8 5.9,-1.1 v 0 c 38.9,9.3 77,1 104.5,-22.8 21.4,-18.5 45.6,-54.5 39.6,-120.8 -8.9,-99.1 -131.3,-156.8 -203.4,-182.4 -5.1,-1.8 -8.8,-6.2 -9.8,-11.3 -107.7,-577.8 141.6,-847.2 144.1,-849.8 2.2,-2.3 3.9,-5 4.9,-8 2.8,-7.7 2.5,-19.8 -6.5,-30.6 -10,-12.1 -32.2,-25.1 -100.8,-25.1"
         style="fill:#000000;fill-opacity:1;fill-rule:nonzero;stroke:none"
         transform="matrix(0.13333333,0,0,-0.13333333,0,3333.3333)" />
      <path
         id="path127"
         d="m 16784.8,13033.1 -4186.8,12.5 c -96.9,0.3 -180.3,67.8 -173.8,140.7 L 12654,15770 c 5.1,56.3 63,97 137.8,96.8 l 4186.8,-12.5 c 96.9,-0.3 180.4,-67.8 173.9,-140.7 l -229.9,-2583.8 c -5,-56.2 -63,-96.9 -137.8,-96.7"
         style="fill:transparent;fill-opacity:1;fill-rule:nonzero;stroke:none"
         transform="matrix(0.13333333,0,0,-0.13333333,0,3333.3333)" />
      <path
         id="path128"
         d="m 16784.9,13055.5 c 0.2,0 0.4,0 0.5,0 62.7,0 110.9,32.1 114.8,76.3 l 229.9,2583.8 c 2.5,27.6 -12.2,50.1 -25,64.1 -29.2,32 -77.7,52 -126.6,52.2 l -4186.8,12.5 c -63,1.2 -111.4,-31.9 -115.3,-76.3 l -229.9,-2583.8 c -2.5,-27.7 12.2,-50.2 25,-64.2 29.2,-32 77.7,-51.9 126.6,-52.1 z m 0.5,-44.8 c -0.2,0 -0.4,0 -0.6,0 l -4186.8,12.5 c -62,0.2 -121.7,25.1 -159.6,66.7 -26.6,29.2 -39.6,64.1 -36.6,98.4 l 229.9,2583.7 c 6.1,68 73.1,117.2 159.5,117.2 0.2,0 0.4,0 0.7,0 l 4186.8,-12.5 c 61.9,-0.2 121.6,-25.1 159.5,-66.7 26.7,-29.2 39.6,-64.2 36.6,-98.4 l -229.9,-2583.7 c -6,-68 -73.1,-117.2 -159.5,-117.2"
         style="fill:#000000;fill-opacity:1;fill-rule:nonzero;stroke:none"
         transform="matrix(0.13333333,0,0,-0.13333333,0,3333.3333)" />
      <path
         id="path129"
         d="m 12995,14808.5 h 3633.4 l 21.3,252.7 h -3633.4 z m 3654,-44.8 h -3678.4 c -6.3,0 -12.3,2.6 -16.5,7.2 -4.3,4.6 -6.4,10.8 -5.8,17.1 l 25,297.5 c 1,11.6 10.7,20.6 22.4,20.6 h 3678.4 c 6.3,0 12.2,-2.7 16.5,-7.3 4.2,-4.6 6.3,-10.8 5.8,-17 l -25.1,-297.6 c -1,-11.6 -10.7,-20.5 -22.3,-20.5"
         style="fill:#000000;fill-opacity:1;fill-rule:nonzero;stroke:none"
         transform="matrix(0.13333333,0,0,-0.13333333,0,3333.3333)" />
      <path
         id="path130"
         d="M 13645.4,15225.7 H 16058 l 21.3,252.8 h -2412.6 z m 2433.2,-44.8 H 13621 c -6.3,0 -12.3,2.6 -16.5,7.3 -4.2,4.6 -6.3,10.8 -5.8,17 l 25,297.6 c 1,11.6 10.7,20.5 22.4,20.5 h 2457.6 c 6.3,0 12.2,-2.6 16.5,-7.2 4.2,-4.7 6.3,-10.8 5.8,-17.1 l -25.1,-297.6 c -0.9,-11.6 -10.6,-20.5 -22.3,-20.5"
         style="fill:#000000;fill-opacity:1;fill-rule:nonzero;stroke:none"
         transform="matrix(0.13333333,0,0,-0.13333333,0,3333.3333)" />
      <path
         id="path131"
         d="m 12957.4,14362.1 h 3633.4 l 21.3,252.8 h -3633.4 z m 3654,-44.8 H 12933 c -6.3,0 -12.3,2.6 -16.5,7.2 -4.3,4.7 -6.4,10.9 -5.8,17.1 l 25.1,297.6 c 0.9,11.6 10.6,20.5 22.3,20.5 h 3678.4 c 6.2,0 12.2,-2.6 16.5,-7.2 4.2,-4.7 6.3,-10.8 5.8,-17.1 l -25.1,-297.6 c -0.9,-11.6 -10.7,-20.5 -22.3,-20.5"
         style="fill:#000000;fill-opacity:1;fill-rule:nonzero;stroke:none"
         transform="matrix(0.13333333,0,0,-0.13333333,0,3333.3333)" />
      <path
         id="path132"
         d="m 12919.8,13915.8 h 3633.4 l 21.3,252.7 H 12941 Z m 3654,-44.8 h -3678.4 c -6.3,0 -12.3,2.6 -16.5,7.2 -4.3,4.6 -6.4,10.8 -5.8,17.1 l 25,297.5 c 1,11.6 10.7,20.6 22.3,20.6 h 3678.5 c 6.2,0 12.2,-2.7 16.5,-7.3 4.2,-4.6 6.3,-10.8 5.8,-17 l -25.1,-297.6 c -0.9,-11.6 -10.7,-20.5 -22.3,-20.5"
         style="fill:#000000;fill-opacity:1;fill-rule:nonzero;stroke:none"
         transform="matrix(0.13333333,0,0,-0.13333333,0,3333.3333)" />
      <path
         id="path133"
         d="m 12882.2,13469.4 h 3633.4 l 21.3,252.8 h -3633.4 z m 3654,-44.8 h -3678.4 c -6.3,0 -12.3,2.6 -16.5,7.3 -4.3,4.6 -6.4,10.8 -5.8,17 l 25,297.6 c 1,11.6 10.7,20.5 22.4,20.5 h 3678.4 c 6.3,0 12.2,-2.6 16.5,-7.2 4.2,-4.7 6.3,-10.8 5.8,-17.1 l -25.1,-297.6 c -1,-11.6 -10.7,-20.5 -22.3,-20.5"
         style="fill:#000000;fill-opacity:1;fill-rule:nonzero;stroke:none"
         transform="matrix(0.13333333,0,0,-0.13333333,0,3333.3333)" />
      <path
         id="path134"
         d="m 16011.6,13123.7 -56.8,188.9 c -17,84.1 154.1,265.8 42.2,316.5 -81.4,36.9 -73,-91.4 -188.6,-112.3 -60.3,-11 -126.7,105.9 -137.1,160.6 -36,189.5 -117.8,259.2 -190.2,233.6 -72.4,-25.6 -167.3,-320 -38,-527.2 129.2,-207.2 389.4,-381.3 389.4,-381.3 l 179.1,121.2"
         style="fill:transparent;fill-opacity:1;fill-rule:nonzero;stroke:none"
         transform="matrix(0.13333333,0,0,-0.13333333,0,3333.3333)" />
      <path
         id="path135"
         d="m 15510.1,13893.7 c -7.1,0 -14.3,-1.3 -21.5,-3.8 -14.5,-5.1 -39,-36.5 -58.9,-93.2 -36.1,-103.2 -49.2,-270.2 32.4,-401 109.4,-175.4 317.8,-328.9 370.5,-366 l 152.8,103.3 -52.1,173.2 c -8.6,42.1 14.7,92.4 39.4,145.7 22.8,49.3 48.7,105.2 37.4,135.3 -2.1,5.9 -6.8,14.5 -22.3,21.5 -23.3,10.5 -30.3,4.7 -55.8,-29.5 -23,-30.7 -54.4,-72.7 -119.6,-84.5 -77.5,-14.1 -151.4,117.1 -163.1,178.5 -20.4,107.4 -58.6,184.2 -104.9,210.7 -11.3,6.5 -22.8,9.8 -34.3,9.8 z m 322.4,-913.6 c -4.4,0 -8.7,1.3 -12.5,3.8 -10.8,7.2 -265.7,179.2 -396,388.1 -90,144.3 -75.9,326.9 -36.6,439.5 10.8,30.9 40.9,104.6 86.2,120.6 31.1,11 63.3,7.8 93.2,-9.3 59.2,-34 103,-117.5 126.5,-241.2 10.4,-54.8 72.7,-149.9 111.1,-142.8 47.9,8.7 70.2,38.5 91.7,67.3 23.3,31 52.1,69.7 110.2,43.4 22.7,-10.3 38.2,-26 45.9,-46.7 17.7,-47.6 -11,-109.7 -38.8,-169.7 -20.6,-44.4 -41.8,-90.3 -36.6,-116 l 56.3,-187 c 2.8,-9.3 -0.8,-19.5 -8.9,-25 L 15845,12984 c -3.7,-2.6 -8.1,-3.9 -12.5,-3.9"
         style="fill:#000000;fill-opacity:1;fill-rule:nonzero;stroke:none"
         transform="matrix(0.13333333,0,0,-0.13333333,0,3333.3333)" />
      <path
         id="path136"
         d="m 15996.7,13235.4 -258.7,-156 c -35.6,-21.4 -53.4,-63.3 -43.6,-103.7 75.4,-312.6 740.5,-1326.3 2898.9,-1312.1 396.6,2.5 555.4,523.8 402.9,889.8 -83.9,201.3 -296.7,315.4 -511.3,276.9 -505.4,-90.8 -1723.4,-388.5 -2364.9,383.4 -30.4,36.6 -82.6,46.2 -123.3,21.7"
         style="fill:transparent;fill-opacity:1;fill-rule:nonzero;stroke:none"
         transform="matrix(0.13333333,0,0,-0.13333333,0,3333.3333)" />
      <path
         id="path137"
         d="m 18550.3,11641 c -900.8,0 -1660.7,185.5 -2199.8,537.3 -456.1,297.6 -640.7,638 -677.9,792.2 -12.1,50 9.5,101.4 53.8,128.1 l 258.7,155.9 c 50.2,30.3 114.2,19.2 152.1,-26.4 367.9,-442.7 979.3,-593.2 1869.1,-460 12.5,1.8 23.7,-6.7 25.5,-18.9 1.8,-12.2 -6.6,-23.6 -18.9,-25.5 -906.6,-135.7 -1531.4,20 -1910.2,475.7 -23.6,28.5 -63.4,35.5 -94.4,16.8 l -258.8,-156 c -27.4,-16.5 -40.8,-48.3 -33.4,-79.2 81.6,-337.9 777.3,-1295.2 2833.4,-1295.2 14.5,0 29,0.1 43.7,0.2 0.1,0 0.1,0 0.1,0 12.4,0 22.4,-10 22.5,-22.3 0,-12.4 -9.9,-22.5 -22.3,-22.6 -14.4,-0.1 -28.9,-0.1 -43.2,-0.1"
         style="fill:#000000;fill-opacity:1;fill-rule:nonzero;stroke:none"
         transform="matrix(0.13333333,0,0,-0.13333333,0,3333.3333)" />
      <path
         id="path138"
         d="m 12392.8,6111.7 h 1766.5 c 0,0 242.2,-1473 -812.1,-1590.6 -1054.3,-117.6 -954.4,1590.6 -954.4,1590.6"
         style="fill:transparent;fill-opacity:1;fill-rule:nonzero;stroke:none"
         transform="matrix(0.13333333,0,0,-0.13333333,0,3333.3333)" />
      <path
         id="path139"
         d="m 12414.3,6089.3 c -5,-145.5 -16.5,-1002.2 377.2,-1375.6 145.2,-137.8 331.2,-195 553.2,-170.3 244.7,27.3 437.9,132.3 574.2,312.2 314.8,415.6 237.6,1110.8 221,1233.7 z m 831.8,-1596.4 c -190.6,0 -353.5,63.1 -485.5,188.4 -443.9,421.1 -392.6,1390.7 -390.2,1431.7 0.7,11.9 10.5,21.1 22.4,21.1 h 1766.5 c 10.9,0 20.3,-7.9 22.1,-18.7 5.4,-33.2 129.3,-816.9 -226.8,-1286.8 -144,-190.1 -347.5,-301.1 -604.9,-329.8 -35.4,-3.9 -69.9,-5.9 -103.6,-5.9"
         style="fill:#000000;fill-opacity:1;fill-rule:nonzero;stroke:none"
         transform="matrix(0.13333333,0,0,-0.13333333,0,3333.3333)" />
      <path
         id="path140"
         d="m 12922.5,6471.9 c -126.3,-3.7 -395.3,-7.8 -648.5,164.7 -93.7,63.9 -351,239.1 -326.9,469.6 20.6,197.7 242.1,379.7 542.6,412.4 -356.6,-42.3 -643.5,225 -643.9,501.1 -0.4,211.5 167.4,421.6 415.4,491.1 -384.4,290.4 -586.2,758.5 -522.4,1223 62.1,451.8 375,896.5 847.2,1033.8 59.4,17.3 572.6,157.9 942.2,-157 310.2,-264.3 313.6,-674.4 316,-953.9 4.1,-497.4 -195.4,-875.3 -316,-1065 25.2,1.8 280.2,85.6 518.6,-126.1 242.9,-215.9 254.9,-711.9 136.5,-908.2 -123.9,-205.5 -422.5,-162 -475.7,-177 223.4,-197.2 215.6,-361.6 213.1,-392.6 -25.3,-320.8 -607,-504.5 -998.2,-515.9"
         style="fill:transparent;fill-opacity:1;fill-rule:nonzero;stroke:none"
         transform="matrix(0.13333333,0,0,-0.13333333,0,3333.3333)" />
      <path
         id="path141"
         d="m 12485.4,7495.5 c -274.7,-32.2 -496,-199.7 -516,-391.6 -22.7,-217.2 224.3,-385.4 317.2,-448.8 252.3,-171.9 520.7,-164.1 635.2,-160.8 384.1,11.2 952.9,194 976.6,495.3 3.3,42.2 -1.7,194 -205.6,374 -6.2,5.4 -8.9,13.8 -7,21.8 1.8,8 7.8,14.4 15.7,16.6 13.6,3.8 35.4,4.4 65.6,5.3 106.5,3.1 304.8,8.9 397,161.7 115.5,191.5 101.9,671.9 -132.2,879.8 -136.1,120.9 -299.1,162.6 -484.1,123.8 -8.8,-1.8 -14.9,-3 -18.1,-3.2 -8.6,-0.5 -16.5,3.6 -20.8,10.9 -4.3,7.2 -4.2,16.3 0.3,23.5 144.7,227.4 316.4,594.6 312.5,1052.7 -2.2,270.5 -5.6,679.3 -308.1,937.1 -350.2,298.3 -828.9,179.4 -921.3,152.5 -431,-125.3 -765.1,-533.4 -831.3,-1015.4 -62.5,-454.8 134.3,-915.4 513.7,-1202 6.8,-5.2 10.1,-13.7 8.5,-22.1 -1.6,-8.4 -7.8,-15.1 -16,-17.4 -231.5,-64.9 -399.4,-262.3 -399,-469.4 0.2,-123 60.4,-246.9 165.3,-339.9 120.1,-106.6 282.6,-157.4 446.9,-139.8 2.3,0.3 4.6,0.5 6.9,0.8 12.3,1.2 23.3,-7.5 24.7,-19.8 1.4,-12.3 -7.4,-23.3 -19.6,-24.8 -2.3,-0.3 -4.7,-0.5 -7,-0.8 z m 437.1,-1023.6 h 0.2 z m -68,-23.6 c -139,0 -371.1,18.5 -593.1,169.8 -99,67.4 -362.1,246.7 -336.6,490.5 17.9,171.8 169.2,321.3 381.5,392.8 -112.3,19.7 -217.3,69.3 -302.6,144.9 -114.4,101.6 -180.1,237.6 -180.4,373.4 -0.3,214.2 161.6,418.3 390.5,499.6 -370,297.8 -560,760.4 -497.2,1217.5 68.6,499.3 415.4,922.2 863.1,1052.4 96.3,28 595.3,151.8 963,-161.5 318.1,-271 321.6,-692.2 323.9,-970.9 3.7,-440.9 -151.2,-799.3 -292.7,-1033.8 185.1,29.6 349.2,-17.6 487.8,-140.7 249.1,-221.3 263.7,-732.6 140.8,-936.5 -104.8,-173.7 -327.2,-180.2 -434.1,-183.3 -2.8,-0.1 -5.6,-0.2 -8.3,-0.2 177.2,-173.3 187.4,-319.2 183,-376.2 -26.2,-331.5 -609.1,-524.7 -1019.9,-536.6 -19.1,-0.5 -42.2,-1.2 -68.7,-1.2"
         style="fill:#000000;fill-opacity:1;fill-rule:nonzero;stroke:none"
         transform="matrix(0.13333333,0,0,-0.13333333,0,3333.3333)" />
      <path
         id="path142"
         d="m 13050.2,6253.5 c -1,0 -2,0.1 -3,0.3 -12.3,1.6 -20.9,12.9 -19.3,25.2 225.4,1664.1 -301.1,3541.8 -306.4,3560.5 -3.4,11.9 3.5,24.3 15.4,27.7 11.8,3.4 24.3,-3.5 27.7,-15.4 5.4,-18.8 534.4,-1905.2 307.8,-3578.9 -1.6,-11.2 -11.2,-19.4 -22.2,-19.4"
         style="fill:#000000;fill-opacity:1;fill-rule:nonzero;stroke:none"
         transform="matrix(0.13333333,0,0,-0.13333333,0,3333.3333)" />
      <path
         id="path143"
         d="m 13304.5,6395.2 c -40.1,98.1 -213.8,551.4 11.5,933.3 46.3,78.5 201.3,341.2 426.3,322.6 167.8,-13.8 273.6,-175.7 296.9,-213.3 -67.6,246.4 53.8,495.8 256.2,582 239.3,101.9 557.2,-39 645.3,-334.1 59.1,16.8 218.8,53.1 380.2,-23.1 212.4,-100.2 340.2,-354.1 311.1,-633.7 -88.4,-299.9 -362.4,-483.5 -622.2,-449.4 -282.2,37.1 -416.9,314 -426.3,334.2 44,-69.2 108.7,-197.7 69.1,-322.7 -66.5,-209.8 -396.7,-314 -633.7,-253.4 -220.1,56.1 -283.8,234.9 -460.9,218.9 -116.7,-10.6 -203.3,-98.4 -253.5,-161.3"
         style="fill:transparent;fill-opacity:1;fill-rule:nonzero;stroke:none"
         transform="matrix(0.13333333,0,0,-0.13333333,0,3333.3333)" />
      <path
         id="path144"
         d="m 13580,6579.9 c 90.8,0 154.1,-48.4 220.9,-99.4 62.1,-47.4 126.2,-96.4 223.5,-121.2 222.6,-56.9 542.9,36.8 606.8,238.5 26.9,84.9 2.1,173.4 -33.5,245.3 -21.6,33.8 -33,57.7 -34.5,61.1 -5,10.7 -0.9,23.4 9.5,29.1 10.3,5.7 23.3,2.4 29.7,-7.6 11.9,-18.7 23.9,-39.4 35,-61.7 55,-85.7 178,-236.3 375.3,-262.2 257.6,-33.9 513.7,151.5 597.2,431.5 27.1,267.3 -92.8,511.9 -298.6,609.1 -144.1,68 -290.2,42.8 -364.5,21.7 -11.9,-3.3 -24.1,3.4 -27.6,15.2 -40.3,135.1 -136.1,246.7 -262.8,306.2 -116.1,54.6 -244.5,59.6 -352.2,13.7 -198.8,-84.6 -305.7,-328.6 -243.4,-555.5 3,-10.7 -2.4,-22 -12.6,-26.4 -10.2,-4.5 -22.1,-0.8 -28,8.7 -35.4,56.9 -133.4,190.7 -279.7,202.8 -140,11.5 -276.3,-93.3 -405.2,-311.7 -190.9,-323.6 -90.8,-700.6 -23.7,-878.7 76.1,85.4 158.2,132.6 244.4,140.4 8.2,0.7 16.2,1.1 24,1.1 z m 579.1,-281.4 c -50.7,0 -100.2,5.7 -145.8,17.3 -106.1,27.1 -177,81.3 -239.6,129.1 -71,54.2 -127.3,97.1 -213.7,89.3 -82.9,-7.5 -163,-59 -238,-153 -5,-6.2 -12.8,-9.4 -20.7,-8.2 -7.9,1.1 -14.6,6.3 -17.6,13.7 -67.6,165.4 -201.7,589.3 13,953.2 138.4,234.4 288.9,346.7 447.4,333.5 113.7,-9.3 200.3,-80.9 256.3,-145.3 -18.9,217.7 95.4,431.1 286.2,512.3 119.5,50.9 261.2,45.7 388.9,-14.3 131.7,-61.8 232.7,-175.3 280,-313.3 85,20.9 230.4,38.4 374.9,-29.9 223.6,-105.5 353.7,-369.3 323.9,-656.3 -0.2,-1.4 -0.4,-2.7 -0.8,-4 -89,-302 -367,-501.9 -646.6,-465.3 -144.5,19 -252,98.7 -325.1,177 8.7,-48.5 8.2,-99.5 -7.8,-150 -57.6,-181.7 -297.6,-285.8 -514.9,-285.8"
         style="fill:#000000;fill-opacity:1;fill-rule:nonzero;stroke:none"
         transform="matrix(0.13333333,0,0,-0.13333333,0,3333.3333)" />
      <path
         id="path145"
         d="m 13286.8,6272.6 c -1.3,0 -2.6,0.1 -3.9,0.4 -12.2,2.1 -20.4,13.8 -18.2,25.9 5,28.4 129.9,696.9 754.4,934.4 448.5,170.6 851.1,0.1 963.9,-56.2 11,-5.5 15.5,-19 10,-30.1 -5.5,-11 -19,-15.5 -30.1,-10 -108.6,54.2 -496.4,218.5 -927.8,54.4 -601.1,-228.5 -721.4,-872.9 -726.3,-900.3 -1.9,-10.8 -11.3,-18.5 -22,-18.5"
         style="fill:#000000;fill-opacity:1;fill-rule:nonzero;stroke:none"
         transform="matrix(0.13333333,0,0,-0.13333333,0,3333.3333)" />
    </g>
  </g>
</svg>
