<?xml version="1.0" encoding="UTF-8" standalone="no"?>
<!-- Created with Inkscape (http://www.inkscape.org/) -->

<svg
   version="1.1"
   id="svg1"
   width="3333.3333"
   height="3333.3333"
   viewBox="0 0 3333.3333 3333.3333"
   sodipodi:docname="bwink_edu_01_single_02.eps"
   xmlns:inkscape="http://www.inkscape.org/namespaces/inkscape"
   xmlns:sodipodi="http://sodipodi.sourceforge.net/DTD/sodipodi-0.dtd"
   xmlns="http://www.w3.org/2000/svg"
   xmlns:svg="http://www.w3.org/2000/svg">


  <sodipodi:namedview
     id="namedview1"
     pagecolor="transparent"
     bordercolor="#000000"
     borderopacity="0.25"
     inkscape:showpageshadow="2"
     inkscape:pageopacity="0.0"
     inkscape:pagecheckerboard="0"
     inkscape:deskcolor="#d1d1d1">
    <inkscape:page
       x="0"
       y="0"
       inkscape:label="1"
       id="page1"
       width="3333.3333"
       height="3333.3333"
       margin="0"
       bleed="0" />
  </sodipodi:namedview>
  <g
     id="g1"
     inkscape:groupmode="layer"
     inkscape:label="1">
    <g
       id="group-R5">
      <path
         id="path2"
         d="M 25000,0 H 0 V 25000 H 25000 V 0"
         style="fill:transparent;fill-opacity:1;fill-rule:nonzero;stroke:none"
         transform="matrix(0.13333333,0,0,-0.13333333,0,3333.3333)" />
      <path
         id="path3"
         d="m 21853.3,12384.3 -6469,-4120.9 c -188.9,-120.4 -244.5,-371.1 -124.2,-560.1 l 2106.7,-3307 c 120.4,-189 371.1,-244.6 560.1,-124.2 l 3926.4,2501.2 v 5611"
         style="fill:transparent;fill-opacity:1;fill-rule:nonzero;stroke:none"
         transform="matrix(0.13333333,0,0,-0.13333333,0,3333.3333)"
         clip-path="url(#clipPath4)" />
      <path
         id="path31"
         d="m 21853.3,8391.8 -994.3,-633.4 312.9,-491.2 681.4,434.1 v 690.5"
         style="fill:transparent;fill-opacity:1;fill-rule:nonzero;stroke:none"
         transform="matrix(0.13333333,0,0,-0.13333333,0,3333.3333)"
         clip-path="url(#clipPath32)" />
      <path
         id="path33"
         d="m 7425.91,4457.1 c -263.78,-72.2 -536.16,83.1 -608.39,346.8 -72.22,263.8 83.06,536.2 346.84,608.4 263.77,72.2 536.16,-83 608.38,-346.8 72.23,-263.8 -83.06,-536.2 -346.83,-608.4 z m 854.4,647.6 -50.79,185.6 -209.89,-9.6 c -19.45,40.9 -41.97,79.6 -67.44,115.9 l 111.12,178 -136.76,135.2 -177.04,-113.2 c -36.86,25.3 -75.75,47.5 -116.29,66.3 l 7.25,210 -186.08,48.8 -96.56,-186.3 c -44.15,3.4 -88.95,3.1 -134.02,-1 l -98.71,185.5 -185.53,-50.8 9.53,-209.9 c -40.85,-19.4 -79.58,-42 -115.81,-67.4 l -178.01,111.1 -135.27,-136.8 113.23,-177 c -25.28,-36.9 -47.46,-75.8 -66.3,-116.3 l -210.02,7.3 -48.77,-186.1 186.3,-96.6 c -3.46,-44.1 -3.11,-89 0.97,-134 l -185.47,-98.7 50.8,-185.6 209.88,9.6 c 19.46,-40.9 41.98,-79.6 67.45,-115.8 l -111.12,-178 136.76,-135.3 177.04,113.2 c 36.85,-25.3 75.75,-47.4 116.28,-66.3 l -7.24,-210 186.07,-48.8 96.57,186.3 c 44.15,-3.4 88.95,-3.1 134.01,1 l 98.72,-185.5 185.53,50.8 -9.54,209.9 c 40.86,19.5 79.59,42 115.81,67.5 l 178.01,-111.2 135.27,136.8 -113.22,177 c 25.27,36.9 47.45,75.8 66.29,116.3 l 210.02,-7.2 48.77,186 -186.29,96.6 c 3.45,44.2 3.1,89 -0.97,134 l 185.46,98.7"
         style="fill:#000000;fill-opacity:1;fill-rule:nonzero;stroke:none"
         transform="matrix(0.13333333,0,0,-0.13333333,0,3333.3333)" />
      <path
         id="path34"
         d="m 9894.29,5918.3 c -451.37,-123.6 -917.47,142.1 -1041.07,593.5 -123.59,451.4 142.13,917.5 593.5,1041.1 451.37,123.5 917.48,-142.2 1041.08,-593.5 123.6,-451.4 -142.1,-917.5 -593.51,-1041.1 z m 1462.01,1108.2 -86.9,317.5 -359.1,-16.3 c -33.3,69.9 -71.9,136.2 -115.5,198.2 l 190.2,304.6 -234,231.5 -303,-193.8 c -63,43.3 -129.6,81.2 -199,113.4 l 12.4,359.4 -318.37,83.5 -165.24,-318.8 c -75.54,5.9 -152.21,5.3 -229.33,-1.7 l -168.91,317.4 -317.48,-86.9 16.3,-359.2 c -69.89,-33.2 -136.17,-71.8 -198.16,-115.4 l -304.6,190.2 -231.48,-234.1 193.74,-302.9 c -43.25,-63.1 -81.2,-129.6 -113.44,-199 l -359.38,12.4 -83.45,-318.4 318.79,-165.2 c -5.93,-75.6 -5.33,-152.2 1.65,-229.4 l -317.37,-168.9 86.93,-317.5 359.15,16.4 c 33.28,-70 71.83,-136.2 115.41,-198.2 l -190.15,-304.6 234.02,-231.5 302.95,193.8 c 63.06,-43.3 129.63,-81.3 198.98,-113.5 l -12.39,-359.4 318.41,-83.4 165.24,318.8 c 75.54,-6 152.21,-5.4 229.32,1.6 l 168.92,-317.4 317.44,87 -16.3,359.1 c 69.9,33.3 136.2,71.8 198.2,115.4 l 304.6,-190.1 231.5,234 -193.8,302.9 c 43.3,63.1 81.2,129.7 113.5,199 l 359.4,-12.4 83.4,318.5 -318.8,165.2 c 5.9,75.5 5.3,152.2 -1.6,229.3 l 317.3,168.9"
         style="fill:#000000;fill-opacity:1;fill-rule:nonzero;stroke:none"
         transform="matrix(0.13333333,0,0,-0.13333333,0,3333.3333)" />
      <path
         id="path35"
         d="M 3509.8,13815.3 7278.05,6510.6 c -367.53,712.4 590.78,1999.7 2340.75,3357.7 209.83,162.9 272.78,452.8 151.01,688.8 l -3252.36,6304.7 c -159.42,309 -561.95,396.6 -833.92,179.9 -1643.45,-1309.2 -2529.39,-2537 -2173.73,-3226.4"
         style="fill:transparent;fill-opacity:1;fill-rule:nonzero;stroke:none"
         transform="matrix(0.13333333,0,0,-0.13333333,0,3333.3333)" />
      <path
         id="path36"
         d="m 3529.32,13825.3 3656.4,-7087.8 c -94.45,728.2 780.38,1876.1 2419.61,3148.2 201.17,156.1 262.14,434.2 144.97,661.4 l -3252.37,6304.6 c -73.21,141.9 -204.8,242.5 -361,276 -155.4,33.2 -315.68,-4.4 -439.72,-103.2 C 4002.71,15674.6 3192.28,14478.7 3529.32,13825.3 Z M 7278.07,6488.6 c -7.95,0 -15.63,4.4 -19.53,11.9 l -3768.25,7304.7 c -175.46,340.1 -58.37,825.4 338.61,1403.3 380.94,554.6 1017.53,1194.4 1840.95,1850.4 134.35,107 307.92,147.8 476.28,111.7 169.12,-36.2 311.57,-145.1 390.84,-298.8 L 9789.33,10567.2 C 9916.2,10321.3 9850.14,10020.1 9632.27,9851 8759.26,9173.5 8081.52,8510.9 7672.28,7934.7 7254.16,7346 7124.46,6857.3 7297.18,6521.4 l 0.38,-0.8 c 5.57,-10.7 1.34,-24 -9.44,-29.5 -3.22,-1.7 -6.66,-2.5 -10.05,-2.5"
         style="fill:#000000;fill-opacity:1;fill-rule:nonzero;stroke:none"
         transform="matrix(0.13333333,0,0,-0.13333333,0,3333.3333)" />
      <path
         id="path37"
         d="M 3450.73,13407.3 7218.98,6102.6 c -367.53,712.4 590.78,1999.7 2340.74,3357.7 209.83,162.9 272.78,452.8 151.02,688.8 l -3252.37,6304.7 c -159.41,309 -561.95,396.6 -833.92,179.9 -1643.44,-1309.2 -2529.38,-2537 -2173.72,-3226.4"
         style="fill:transparent;fill-opacity:1;fill-rule:nonzero;stroke:none"
         transform="matrix(0.13333333,0,0,-0.13333333,0,3333.3333)" />
      <path
         id="path38"
         d="m 3470.24,13417.3 3656.4,-7087.8 c -94.44,728.2 780.37,1876.1 2419.61,3148.2 201.18,156.1 262.14,434.2 144.97,661.4 l -3252.36,6304.6 c -73.22,141.9 -204.79,242.5 -360.99,275.9 -155.41,33.3 -315.68,-4.2 -439.74,-103.1 C 3943.64,15266.6 3133.21,14070.7 3470.24,13417.3 Z M 7219,6080.6 c -7.96,0 -15.63,4.4 -19.54,11.9 l -3768.25,7304.7 c -175.46,340.1 -58.37,825.4 338.62,1403.3 380.93,554.6 1017.52,1194.4 1840.94,1850.4 134.36,107 307.96,147.7 476.29,111.7 169.12,-36.2 311.56,-145.1 390.83,-298.8 L 9730.25,10159.2 C 9857.12,9913.3 9791.07,9612.1 9573.17,9443 8700.19,8765.5 8022.44,8102.9 7613.19,7526.7 7194.77,6937.5 7065.2,6448.6 7238.5,6112.6 c 5.56,-10.7 1.32,-24 -9.45,-29.5 -3.22,-1.7 -6.66,-2.5 -10.05,-2.5"
         style="fill:#000000;fill-opacity:1;fill-rule:nonzero;stroke:none"
         transform="matrix(0.13333333,0,0,-0.13333333,0,3333.3333)" />
      <path
         id="path39"
         d="M 12103.2,19971.7 15361,13656.6 c 128.1,-248.3 421.5,-361.9 683.4,-264.5 2685.8,998.9 4832.7,1195.7 5265.4,357 l -3768.2,7304.7 c -425.8,825.2 -2511,648 -5136.1,-309.4 -312.9,-114.1 -455,-476.8 -302.3,-772.7"
         style="fill:transparent;fill-opacity:1;fill-rule:nonzero;stroke:none"
         transform="matrix(0.13333333,0,0,-0.13333333,0,3333.3333)" />
      <path
         id="path40"
         d="m 12122.7,19981.8 3257.8,-6315.2 c 122.9,-238.2 405.1,-347.4 656.2,-254 2542.7,945.8 4494.2,1142.2 5141.9,542.8 L 17522,21043.7 c -407,789.1 -2412.5,663.5 -5109,-319.9 -143.3,-52.3 -257.4,-163.8 -312.9,-305.9 -55.4,-141.8 -47.2,-300.8 22.6,-436.1 z m 3729.6,-6646.4 c -209.6,0 -409.8,115.3 -510.8,311.1 l -3257.8,6315.1 c -75.6,146.5 -84.5,318.7 -24.5,472.3 60.1,153.8 183.6,274.5 338.7,331.1 1310.2,477.8 2485.5,762.9 3398.9,824.5 943.8,63.6 1554.1,-118.2 1764.3,-525.6 l 3768.2,-7304.7 c 5.6,-10.8 1.3,-24.1 -9.4,-29.6 -10.8,-5.6 -24.1,-1.3 -29.6,9.4 -205,397.4 -816.1,569.8 -1766.7,498.8 -935.2,-69.9 -2135.7,-369.4 -3471.6,-866.3 -65.5,-24.4 -133.1,-36.1 -199.7,-36.1"
         style="fill:#000000;fill-opacity:1;fill-rule:nonzero;stroke:none"
         transform="matrix(0.13333333,0,0,-0.13333333,0,3333.3333)" />
      <path
         id="path41"
         d="m 12044.1,19563.7 3257.8,-6315.1 c 128.1,-248.3 421.5,-361.9 683.4,-264.5 2685.8,998.9 4832.7,1195.7 5265.4,357 l -3768.2,7304.7 c -425.7,825.2 -2510.9,648 -5136.1,-309.4 -312.9,-114.1 -454.9,-476.8 -302.3,-772.7"
         style="fill:transparent;fill-opacity:1;fill-rule:nonzero;stroke:none"
         transform="matrix(0.13333333,0,0,-0.13333333,0,3333.3333)" />
      <path
         id="path42"
         d="m 12063.7,19573.8 3257.7,-6315.2 c 122.9,-238.2 405,-347.4 656.2,-254 2542.7,945.8 4494.3,1142.2 5142,542.8 L 17463,20635.7 c -407.1,789.1 -2412.5,663.5 -5109.1,-319.9 -143.3,-52.3 -257.4,-163.8 -312.9,-305.9 -55.4,-141.9 -47.1,-300.8 22.7,-436.1 z m 3729.6,-6646.4 c -209.6,0 -409.9,115.3 -510.9,311.1 l -3257.8,6315.1 c -75.6,146.6 -84.5,318.7 -24.5,472.3 60.1,153.8 183.6,274.5 338.8,331.1 1310.1,477.8 2485.4,762.9 3398.9,824.5 944.1,63.6 1554,-118.2 1764.2,-525.6 l 3768.2,-7304.7 c 5.6,-10.8 1.4,-24.1 -9.4,-29.6 -10.8,-5.6 -24,-1.3 -29.6,9.4 -205,397.4 -815.9,569.9 -1766.6,498.8 -935.3,-69.9 -2135.7,-369.4 -3471.7,-866.3 -65.5,-24.4 -133.1,-36.1 -199.6,-36.1"
         style="fill:#000000;fill-opacity:1;fill-rule:nonzero;stroke:none"
         transform="matrix(0.13333333,0,0,-0.13333333,0,3333.3333)" />
      <path
         id="path43"
         d="m 15888.7,17167.3 c -76.7,-25.6 -155.8,-48.6 -237.6,-68.5 -521.7,-126.4 -628,-0.3 -1992.3,47.3 -1666.6,58.1 -2230.4,-104.9 -2623.1,-276.8 -224,-98.1 -401.4,-203.1 -712.3,-387.1 -1057.89,-626.2 -1328.67,-1020.8 -1604,-931.7 -63.14,20.5 -126.37,66.5 -183.49,154.9 -423.32,-319 -905.55,-248.4 -1169.52,-171.1 0.15,-59.7 2.63,-120.5 8.08,-182.4 15.76,-179 43.36,-492.4 235.96,-756.6 414.62,-568.8 1437.31,-695.1 2529.47,-323 -69.2,-149.8 -626.44,-1410.4 30.4,-2583 678.5,-1211.4 2163,-1454.6 3138.7,-1288.3 1591.3,271.2 2863.5,1808.2 2646.1,2723 -37.4,157.4 -202.2,384.8 -530.2,833.3 -387.9,530.3 -738.8,943.5 -986.6,1221.4 266.5,16.3 1187,105.2 1988.9,844 72.8,67 140.1,135.5 202.6,204.5 -456.5,152.8 -656.5,623.5 -741.1,940.1"
         style="fill:transparent;fill-opacity:1;fill-rule:nonzero;stroke:none"
         transform="matrix(0.13333333,0,0,-0.13333333,0,3333.3333)" />
      <path
         id="path44"
         d="m 10139.9,14294.3 c 6.1,0 12,-2.6 16.3,-7.3 5.9,-6.5 7.3,-15.9 3.6,-23.9 -106.1,-229.8 -603.06,-1433.6 29.6,-2563.1 635.4,-1134.2 2060.6,-1457.2 3115.9,-1277.4 892.2,152.1 1797.5,747.6 2306.5,1517.1 285.7,431.9 400,850.7 321.9,1179.2 -37.1,156.3 -210.9,393.9 -526.5,825.4 -309.6,423.3 -641.1,833.7 -985.2,1219.8 -5.6,6.3 -7.2,15.2 -4,23 3.3,7.8 10.6,13 19,13.5 426.1,26 1249.4,169.5 1975.3,838.2 61.1,56.3 121.2,116.3 178.9,178.8 -422.6,158.4 -623.1,581.6 -717.6,921.6 -72.7,-23.6 -145.7,-44.4 -217.3,-61.7 -316.4,-76.7 -486.2,-61.1 -858.6,-26.9 -250.7,23 -594.2,54.5 -1139.7,73.5 -1696.9,59.2 -2238.8,-110.9 -2613.5,-274.9 -222.8,-97.6 -395.8,-200 -710,-385.9 -431.57,-255.5 -734.19,-474 -955.15,-633.6 -328.48,-237.1 -493.36,-356.2 -666.72,-300.1 -69.03,22.4 -130.2,71 -182.1,144.6 -414.57,-300.4 -881.43,-240.3 -1141.91,-169.1 0.8,-51.3 3.39,-102.1 7.72,-151.3 16.02,-181.9 42.83,-486.3 231.84,-745.6 408.13,-559.9 1414.7,-686.5 2504.62,-315.1 2.3,0.8 4.7,1.2 7.1,1.2 z m 2600.5,-3962 c -381.4,0 -769.7,59.6 -1119.1,175.4 -654.1,216.7 -1162.5,621.5 -1470.2,1170.8 -608.59,1086.6 -189.6,2239 -51.7,2557.1 -1090.03,-357.9 -2093.18,-220.5 -2506.71,346.7 -196.21,269.2 -223.68,581.2 -240.1,767.7 -5.25,59.7 -8,121.7 -8.16,184.2 -0.02,6.9 3.23,13.5 8.77,17.6 5.55,4.2 12.72,5.5 19.36,3.5 249.59,-73 730.87,-148.3 1150.14,167.7 4.86,3.7 11.06,5.1 17.06,4.1 6,-1.1 11.29,-4.6 14.6,-9.7 48.96,-75.8 106.76,-124.9 171.8,-146 152.2,-49.2 311.03,65.5 627.47,294 221.66,160 525.21,379.2 958.57,635.7 315.6,186.8 489.4,289.7 714.7,388.3 379.1,166 926.4,338.1 2632.6,278.6 546.8,-19 890.9,-50.6 1142.2,-73.7 378.3,-34.7 534.9,-49.1 844.3,25.9 77.6,18.8 156.9,41.7 235.8,67.9 5.7,1.9 12,1.4 17.4,-1.5 5.3,-2.8 9.2,-7.8 10.7,-13.7 91.3,-341.4 291.4,-779.1 726.8,-924.8 7.1,-2.4 12.4,-8.1 14.3,-15.3 1.9,-7.2 0,-14.8 -4.9,-20.3 -65.4,-72.2 -134,-141.6 -204,-206 -711.2,-655.2 -1514.6,-813 -1957.6,-846.6 334.4,-377.4 656.6,-777.5 958.1,-1189.7 343,-468.9 496.3,-682.9 533.9,-841.1 80.9,-340.5 -35.6,-771.5 -328.1,-1213.6 -515.3,-779.2 -1432.1,-1382.1 -2335.8,-1536.2 -184.8,-31.5 -377.6,-47 -572.2,-47"
         style="fill:#000000;fill-opacity:1;fill-rule:nonzero;stroke:none"
         transform="matrix(0.13333333,0,0,-0.13333333,0,3333.3333)" />
      <path
         id="path45"
         d="m 17923.4,18304.3 -142.6,-91 218,392.1 c 10.6,19.1 11.3,42.2 1.9,61.9 -21.3,44.9 -82.1,52.3 -113.5,13.8 l -289.6,-355.1 199.4,501.1 c 16.4,41.2 0.8,88.3 -37,111.6 -47.7,29.3 -110.3,9.3 -132.1,-42.3 l -190.5,-452.2 65.9,394.2 c 7.8,46.9 -27.1,92.8 -74.7,92.4 -29.6,-0.3 -58.2,-17.4 -69.4,-75.4 -27,-139 -168,-695.3 -168,-695.3 0,0 -61.3,21.9 -140.3,129 -79,107.1 -111.3,47.9 -111.3,47.9 -48.3,-163.3 68.8,-341.7 154.2,-444.4 -288.9,-263 -689.5,-553.5 -1205.1,-725.3 84.6,-316.6 284.6,-787.3 741.1,-940.1 499.7,552.2 683.7,1147.2 752.6,1446.8 201.4,82.8 542.3,455.2 618,539.8 9.9,11 15.2,25.2 15.2,40 0,47.3 -52.3,76 -92.2,50.5"
         style="fill:transparent;fill-opacity:1;fill-rule:nonzero;stroke:none"
         transform="matrix(0.13333333,0,0,-0.13333333,0,3333.3333)" />
      <path
         id="path46"
         d="m 17923.4,18304.3 h 0.2 z m -2008.1,-1151.2 c 92.7,-334.8 290.2,-753.1 707.9,-900.4 455.2,507.6 652.5,1055.1 737.8,1426.2 1.6,7 6.5,12.7 13.1,15.4 198.3,81.6 542.9,459.3 610,534.2 6.2,6.9 9.6,15.9 9.6,25.3 0,14.1 -7.4,26.5 -19.8,33.3 -12.4,6.8 -26.8,6.3 -38.7,-1.3 l -142.5,-91 c -8.5,-5.4 -19.6,-4.4 -26.9,2.5 -7.3,6.9 -9,17.9 -4.2,26.6 l 218,392.2 c 7.1,12.9 7.6,28.5 1.3,41.8 -6.9,14.4 -19.9,23.8 -35.8,25.8 -16,1.9 -30.8,-4.1 -40.9,-16.5 l -289.5,-355 c -6.9,-8.4 -18.9,-10.6 -28.2,-5.1 -9.4,5.5 -13.3,17 -9.3,27.1 l 199.4,501 c 12.5,31.4 0.6,67.1 -28.1,84.8 -17.3,10.6 -38.3,13.1 -57.6,7 -19.3,-6.2 -34.9,-20.5 -42.7,-39.2 l -190.6,-452.1 c -4.3,-10.3 -15.5,-15.7 -26.3,-12.6 -10.7,3.1 -17.4,13.7 -15.6,24.7 l 65.9,394.2 c 2.9,17.1 -2.1,35.1 -13.4,48.3 -10.3,12.1 -25.2,18.7 -39.4,18.5 -10.1,-0.1 -37,-0.3 -48.1,-57.5 -26.8,-138.1 -162.5,-673.9 -168.2,-696.6 -1.6,-6 -5.5,-11.1 -11,-14 -5.5,-2.9 -11.9,-3.4 -17.8,-1.3 -2.7,1 -68.4,25.5 -150.5,136.7 -39,52.8 -60.5,55.5 -65.7,55.2 -3.9,-0.2 -6.5,-2.5 -7.8,-3.8 -43.6,-155.7 75.6,-330.2 151,-420.8 7.5,-9.1 6.5,-22.4 -2.1,-30.3 -368.9,-335.8 -770.2,-579 -1193.3,-723.3 z m 714.5,-947.8 c -2.4,0 -4.7,0.4 -7,1.1 -453.9,152 -661.3,603.3 -755.3,955.2 -3,11.2 3.3,22.8 14.3,26.5 418.5,139.5 816,377.2 1181.8,706.8 -95.5,119.1 -192.3,288.5 -145,448.3 0.4,1.5 1,2.9 1.7,4.3 1.4,2.6 14.8,25.6 44.2,27.6 32.4,2.3 66.2,-21.7 104.1,-73 45.8,-62 85.1,-93.9 108.2,-109.2 28.7,113.9 137.7,547.5 160.8,666.7 15.6,80.5 63.6,92.9 90.8,93.1 0.3,0 0.6,0 0.8,0 27.6,0 54,-12.3 72.4,-33.8 19.9,-23.3 28.4,-54 23.4,-84.1 l -35,-209.2 117.7,279.3 c 12.8,30.5 38.3,53.8 69.8,63.9 31.6,10.1 65.8,5.9 94,-11.4 47,-29 66.3,-87.2 45.9,-138.4 l -146.6,-368.6 199.3,244.5 c 19.6,24 49.7,36.1 80.3,32.4 30.7,-3.8 56.9,-22.7 70.2,-50.6 12.3,-26.1 11.4,-56.7 -2.7,-81.9 l -175.7,-316.3 69.3,44.3 c 25.6,16.4 56.9,17.4 83.5,2.8 26.7,-14.6 42.6,-41.4 42.6,-71.8 0,-20.2 -7.4,-39.6 -20.8,-54.6 -94.1,-105.1 -412.8,-450.3 -615.5,-541 -88.5,-378.6 -291.3,-933 -755.2,-1445.7 -4.3,-4.7 -10.2,-7.2 -16.3,-7.2"
         style="fill:#000000;fill-opacity:1;fill-rule:nonzero;stroke:none"
         transform="matrix(0.13333333,0,0,-0.13333333,0,3333.3333)" />
      <path
         id="path47"
         d="m 8315.61,16966.2 c 93.78,153 66.86,520.7 -37.93,699.2 -106.05,180.8 -470.59,697.9 -470.59,697.9 -180.31,-140.9 88.37,-556.5 88.37,-556.5 -311.55,-199.5 -136.92,-411.2 -136.92,-411.2 -125.68,-261.4 34.48,-350.5 130.33,-379.6 -208.05,-279.3 -524.19,-808.3 -522.48,-1481.7 263.97,-77.3 746.2,-147.9 1169.52,171.1 -118.88,184.1 -211.14,552.7 -220.3,1260.8"
         style="fill:transparent;fill-opacity:1;fill-rule:nonzero;stroke:none"
         transform="matrix(0.13333333,0,0,-0.13333333,0,3333.3333)" />
      <path
         id="path48"
         d="m 7388.37,15550.8 c 250.38,-70.5 711.54,-135.5 1118.2,160.3 -133.41,222.4 -205.03,644.3 -212.92,1254.8 -0.05,4.1 1.07,8.2 3.24,11.7 85.67,139.8 65.35,500.3 -38.14,676.7 -92.42,157.5 -386.42,577.8 -455.16,675.8 -126.38,-141.2 107.84,-507.5 110.32,-511.4 3.17,-4.9 4.25,-10.8 3.01,-16.5 -1.24,-5.8 -4.7,-10.7 -9.61,-13.9 -102.58,-65.7 -160.84,-138.8 -173.15,-217.2 -14.54,-92.6 40.77,-160.9 41.33,-161.6 5.44,-6.6 6.56,-15.7 2.85,-23.5 -46.17,-96 -56.11,-175.3 -29.55,-235.8 28.79,-65.5 95.54,-97.7 146.46,-113.2 6.84,-2.1 12.24,-7.4 14.47,-14.2 2.24,-6.8 1.03,-14.2 -3.25,-19.9 -235.2,-315.7 -514.85,-823 -518.1,-1452.1 z m 419.41,-103.6 c -177.97,0 -335.44,33.2 -447.55,66 -9.34,2.7 -15.78,11.3 -15.8,21 -1.6,633 271.71,1145.5 509.05,1470.8 -54.14,21.1 -114.92,59.3 -144.9,127.5 -30.77,70.1 -22.5,157.7 24.58,260.7 -17.85,26.5 -56.34,95.9 -42.39,184.7 13.56,86.4 72.33,165.6 174.78,235.5 -51.46,85 -245.19,431.9 -71.97,567.2 4.74,3.7 10.79,5.3 16.73,4.4 5.94,-0.9 11.27,-4.2 14.74,-9.1 3.64,-5.2 366.28,-519.9 471.57,-699.3 101.4,-172.9 138.42,-547.8 41.04,-716.3 8.4,-615.1 81.3,-1033.3 216.7,-1242.9 6.25,-9.7 3.97,-22.6 -5.22,-29.5 -245.38,-184.9 -510.59,-240.7 -741.36,-240.7"
         style="fill:#000000;fill-opacity:1;fill-rule:nonzero;stroke:none"
         transform="matrix(0.13333333,0,0,-0.13333333,0,3333.3333)" />
      <path
         id="path49"
         d="m 8089.83,17102.3 c -5.09,0 -10.2,1.8 -14.35,5.4 -6.26,5.4 -152.48,134.3 -85.02,278.9 53.82,115.4 45.61,128.8 0.08,203.2 l -5.98,9.9 c -58.26,95.7 -1.83,180.6 0.6,184.1 3.6,5.3 9.31,8.8 15.67,9.5 6.39,0.7 12.7,-1.4 17.38,-5.7 l 210.25,-194.4 c 8.91,-8.2 9.46,-22.1 1.22,-31 -8.26,-8.9 -22.14,-9.5 -31.03,-1.3 l -188.53,174.4 c -8.93,-25.2 -15.72,-67.4 11.94,-112.8 l 5.94,-9.7 c 51.27,-83.9 63.33,-113.8 2.26,-244.7 -53.38,-114.5 72.7,-226.1 73.99,-227.2 9.13,-8 10.11,-21.8 2.17,-31 -4.34,-5 -10.45,-7.6 -16.59,-7.6"
         style="fill:#000000;fill-opacity:1;fill-rule:nonzero;stroke:none"
         transform="matrix(0.13333333,0,0,-0.13333333,0,3333.3333)" />
      <path
         id="path50"
         d="m 7885.53,17274 c -24.66,0 -49.25,9.6 -67.4,28.4 l -75.38,77.9 c -8.42,8.7 -8.2,22.6 0.52,31 8.73,8.5 22.6,8.3 31.05,-0.5 l 75.38,-77.9 c 17.84,-18.5 47.35,-20.2 67.19,-3.9 9.41,7.7 23.22,6.3 30.91,-3.1 7.67,-9.4 6.29,-23.2 -3.09,-30.9 -17.18,-14.1 -38.21,-21 -59.18,-21"
         style="fill:#000000;fill-opacity:1;fill-rule:nonzero;stroke:none"
         transform="matrix(0.13333333,0,0,-0.13333333,0,3333.3333)" />
      <path
         id="path51"
         d="m 15095.6,5947 c 4.5,-25.3 778.2,-1142.5 778.2,-1142.5 l -624.4,-163.2 -615.5,962.2 461.7,343.5"
         style="fill:transparent;fill-opacity:1;fill-rule:nonzero;stroke:none"
         transform="matrix(0.13333333,0,0,-0.13333333,0,3333.3333)" />
      <path
         id="path52"
         d="m 14663.5,5598.1 595.8,-931.6 578.6,151.3 c -311.8,450.3 -670,970.8 -748.3,1097.3 z m 585.9,-978.8 c -7.4,0 -14.4,3.7 -18.5,10.1 l -615.5,962.3 c -6.2,9.7 -3.8,22.6 5.4,29.4 l 461.7,343.5 c 6.1,4.5 14.2,5.6 21.3,2.8 6,-2.4 10.6,-7.3 12.7,-13.4 21,-43.1 474.4,-702.3 775.3,-1137 4.1,-5.9 5.1,-13.4 2.6,-20.1 -2.5,-6.7 -8.1,-11.8 -15.1,-13.6 L 15254.9,4620 c -1.8,-0.5 -3.7,-0.7 -5.5,-0.7"
         style="fill:#000000;fill-opacity:1;fill-rule:nonzero;stroke:none"
         transform="matrix(0.13333333,0,0,-0.13333333,0,3333.3333)" />
      <path
         id="path53"
         d="m 15246,4954.3 c 0,0 72.6,326.6 429,233.1 0,0 759.9,-765.9 1112.9,-1447.1 99.8,-192.6 -77,-413.7 -287.3,-360.4 -492.2,124.8 -1283.1,429.7 -1834,1157.7 0,0 68.1,352 243.8,540 l 335.6,-123.3"
         style="fill:transparent;fill-opacity:1;fill-rule:nonzero;stroke:none"
         transform="matrix(0.13333333,0,0,-0.13333333,0,3333.3333)" />
      <path
         id="path54"
         d="m 14690.1,4543 c 532,-697.9 1280.6,-1006.1 1815.9,-1141.8 89.2,-22.6 180.3,8.5 237.8,81 57.1,72 66.5,167 24.6,248 -333.9,644.4 -1043.3,1374.8 -1104.7,1437.5 -102.4,25.7 -189.4,17.4 -258.7,-24.7 -107.6,-65.4 -137.3,-192.2 -137.6,-193.5 -1.4,-6.2 -5.4,-11.4 -10.9,-14.5 -5.6,-3 -12.2,-3.5 -18.1,-1.3 l -321.7,118.2 C 14770,4885.7 14702.2,4598.6 14690.1,4543 Z M 16564,3350 c -22.8,0 -45.8,2.8 -68.8,8.7 -544.1,137.8 -1306.2,452 -1846.1,1165.7 -3.8,5 -5.3,11.3 -4.1,17.4 2.9,14.6 71.4,360.3 249.3,550.8 6.1,6.5 15.4,8.7 23.7,5.6 l 313.5,-115.2 c 14.7,44.4 55.9,139.7 150.3,197.3 81.2,49.5 181.7,59.1 298.8,28.4 3.8,-1 7.3,-3 10,-5.8 7.6,-7.7 766.3,-776.1 1116.8,-1452.5 50,-96.5 38.8,-209.8 -29.2,-295.5 -53.6,-67.6 -131.8,-104.9 -214.2,-104.9"
         style="fill:#000000;fill-opacity:1;fill-rule:nonzero;stroke:none"
         transform="matrix(0.13333333,0,0,-0.13333333,0,3333.3333)" />
      <path
         id="path55"
         d="m 16494.6,3595.5 c -268.4,0 -847.8,119.1 -1686.7,928 -8.7,8.5 -9,22.4 -0.6,31.1 8.5,8.7 22.4,9 31.1,0.5 1141.3,-1100.6 1804.6,-899.7 1811.1,-897.5 11.5,3.8 23.9,-2.5 27.8,-13.9 3.8,-11.5 -2.4,-23.9 -13.9,-27.8 -7.7,-2.6 -65,-20.4 -168.8,-20.4"
         style="fill:#000000;fill-opacity:1;fill-rule:nonzero;stroke:none"
         transform="matrix(0.13333333,0,0,-0.13333333,0,3333.3333)" />
      <path
         id="path56"
         d="m 15977.4,4199.8 c -6.2,0 -12.4,2.6 -16.7,7.8 -7.9,9.2 -6.8,23.1 2.5,30.9 l 272.5,231.4 c 9.3,7.8 23.1,6.8 31,-2.5 7.8,-9.2 6.7,-23.1 -2.6,-31 L 15991.6,4205 c -4.1,-3.5 -9.2,-5.2 -14.2,-5.2"
         style="fill:#000000;fill-opacity:1;fill-rule:nonzero;stroke:none"
         transform="matrix(0.13333333,0,0,-0.13333333,0,3333.3333)" />
      <path
         id="path57"
         d="m 15784.8,4400.8 c -6.4,0 -12.9,2.9 -17.2,8.3 -7.5,9.6 -5.9,23.4 3.6,30.9 l 297.8,235.9 c 9.5,7.6 23.4,5.9 30.9,-3.6 7.5,-9.5 5.9,-23.3 -3.6,-30.8 l -297.8,-235.9 c -4.1,-3.2 -8.9,-4.8 -13.7,-4.8"
         style="fill:#000000;fill-opacity:1;fill-rule:nonzero;stroke:none"
         transform="matrix(0.13333333,0,0,-0.13333333,0,3333.3333)" />
      <path
         id="path58"
         d="m 13184.7,8490.6 -518.2,-397.9 455.1,-618.2 485.1,462.6 -422,553.5"
         style="fill:transparent;fill-opacity:1;fill-rule:nonzero;stroke:none"
         transform="matrix(0.13333333,0,0,-0.13333333,0,3333.3333)" />
      <path
         id="path59"
         d="m 12697,8088.4 427.5,-580.8 452.8,431.8 -396.7,520.3 z m 424.6,-635.9 c -0.7,0 -1.3,0.1 -2,0.1 -6.2,0.6 -12,3.8 -15.7,8.9 l -455.1,618.2 c -7.1,9.6 -5.1,23.2 4.3,30.4 l 518.2,397.9 c 4.6,3.5 10.5,5.1 16.3,4.3 5.8,-0.7 11,-3.8 14.5,-8.4 l 422,-553.5 c 6.8,-8.9 5.8,-21.5 -2.3,-29.2 l -485.1,-462.6 c -4.1,-3.9 -9.5,-6.1 -15.1,-6.1"
         style="fill:#000000;fill-opacity:1;fill-rule:nonzero;stroke:none"
         transform="matrix(0.13333333,0,0,-0.13333333,0,3333.3333)" />
      <path
         id="path60"
         d="m 13429.8,7547 -481.6,390.1 -90.8,326.8 c -252.9,6.3 -536.8,-182.2 -692.5,-303.4 -72.1,-56.1 -95.7,-154.7 -55.3,-236.7 256.9,-521.9 836.2,-1336.1 1116.7,-1719.6 70.6,-96.6 223.6,-65.3 248.3,51.8 123.9,586.9 -44.8,1491 -44.8,1491"
         style="fill:transparent;fill-opacity:1;fill-rule:nonzero;stroke:none"
         transform="matrix(0.13333333,0,0,-0.13333333,0,3333.3333)" />
      <path
         id="path61"
         d="m 12840.7,8242.1 c -244.4,-2.2 -518.7,-187.2 -662.3,-298.9 -63.8,-49.7 -84.5,-137.9 -49.1,-209.7 251.5,-511 806.3,-1294.6 1114.7,-1716.3 27.8,-38 73.8,-55.5 120.1,-45.5 45.4,9.7 79.5,43.8 89.1,88.8 115.4,547.1 -27.5,1384.3 -43.6,1474.5 l -475.3,385 c -3.5,2.9 -6.1,6.8 -7.3,11.2 z M 13338.2,5925 c -50.9,0 -98.6,23.8 -129.7,66.3 -309.2,422.8 -865.6,1208.8 -1118.6,1722.8 -44.5,90.5 -18.6,201.4 61.5,263.8 149,115.9 435.1,308.1 693.9,308.1 4.2,0 8.5,0 12.7,-0.1 9.6,-0.3 18,-6.8 20.6,-16.1 l 88.8,-320.1 476.2,-385.7 c 4,-3.3 6.8,-7.9 7.8,-13 1.6,-9.1 168,-915.1 44.7,-1499.5 -13.1,-62.3 -60.2,-109.3 -122.7,-122.8 -11.8,-2.5 -23.6,-3.7 -35.2,-3.7"
         style="fill:#000000;fill-opacity:1;fill-rule:nonzero;stroke:none"
         transform="matrix(0.13333333,0,0,-0.13333333,0,3333.3333)" />
      <path
         id="path62"
         d="m 13268.3,6216.2 c -7,0 -13.8,3.3 -18.1,9.4 L 12483,7331.4 c -52.5,75.7 -75.9,170.9 -65.9,268 19.1,184.2 -55.2,373.1 -56,375 -4.5,11.3 1,24 12.2,28.5 11.4,4.5 24.1,-1 28.6,-12.2 3.2,-8.1 79.1,-201 58.9,-395.8 -8.9,-86.7 11.7,-171.4 58.3,-238.5 l 767.2,-1105.7 c 6.9,-10 4.4,-23.7 -5.5,-30.6 -3.9,-2.6 -8.2,-3.9 -12.5,-3.9"
         style="fill:#000000;fill-opacity:1;fill-rule:nonzero;stroke:none"
         transform="matrix(0.13333333,0,0,-0.13333333,0,3333.3333)" />
      <path
         id="path63"
         d="m 13701,13740.8 c 0,0 1479.7,-1168.3 2262.5,-2261.8 218.8,-305.6 249.7,-707.8 83.7,-1045 C 15686.8,9701.9 14907.4,8389.1 13701,7734.3 l -1013.1,1294.5 c 0,0 885.9,979.6 1537.2,1425.7 l -1660.7,1861.4 -412.9,934.8 1549.5,490.1"
         style="fill:#000000;fill-opacity:1;fill-rule:nonzero;stroke:none"
         transform="matrix(0.13333333,0,0,-0.13333333,0,3333.3333)" />
      <path
         id="path64"
         d="m 14413,5015.1 c 52.6,-92.4 1245.9,779.9 1245.9,779.9 0,0 -913,1068.6 -2364,6500.1 -16.8,63.1 -284.4,1391.5 -284.4,1391.5 l -1982.7,-1039.2 c 0,0 348.4,-2285.8 3385.2,-7632.3"
         style="fill:#000000;fill-opacity:1;fill-rule:nonzero;stroke:none"
         transform="matrix(0.13333333,0,0,-0.13333333,0,3333.3333)" />
      <path
         id="path65"
         d="m 13533.3,11402.1 c -9.7,0 -18.5,6.4 -21.2,16.2 l -186.5,681.4 c -34.6,126.7 -12,261.6 62.2,370 l 114.1,166.9 c 6.8,10 20.5,12.6 30.5,5.7 10.1,-6.8 12.6,-20.5 5.8,-30.5 l -114.2,-166.9 c -66.9,-97.8 -87.3,-219.4 -56,-333.6 l 186.5,-681.4 c 3.2,-11.7 -3.7,-23.8 -15.4,-27 -1.9,-0.6 -3.9,-0.8 -5.8,-0.8"
         style="fill:transparent;fill-opacity:1;fill-rule:nonzero;stroke:none"
         transform="matrix(0.13333333,0,0,-0.13333333,0,3333.3333)" />
      <path
         id="path66"
         d="m 14744.4,7837.3 c -8.5,0 -16.6,5 -20.2,13.3 -4.5,10.6 -454.8,1067 -622,1597.8 -3.7,11.5 2.8,23.9 14.3,27.5 11.7,3.7 23.9,-2.8 27.6,-14.3 166.5,-528.7 616,-1583.2 620.5,-1593.8 4.8,-11.1 -0.4,-24 -11.6,-28.8 -2.8,-1.2 -5.7,-1.7 -8.6,-1.7"
         style="fill:transparent;fill-opacity:1;fill-rule:nonzero;stroke:none"
         transform="matrix(0.13333333,0,0,-0.13333333,0,3333.3333)" />
      <path
         id="path67"
         d="m 10561.1,16165.1 c 37.8,-791.4 149.6,-2766 356.4,-3559.1 26.6,-102 139.1,-155 235.2,-111.7 472.4,213.3 1814.3,782.5 2835.4,859.5 145.5,10.9 241.9,155.7 196.5,294.4 -195.6,597.7 -632.8,2000.9 -755.9,2959.9 -35,272.6 -251.6,482.7 -520.8,503.7 -497,38.6 -1299.8,10.2 -2055.9,-414.3 -188.9,-106.1 -301.4,-313 -290.9,-532.4"
         style="fill:transparent;fill-opacity:1;fill-rule:nonzero;stroke:none"
         transform="matrix(0.13333333,0,0,-0.13333333,0,3333.3333)" />
      <path
         id="path68"
         d="m 10583,16166.1 c 38.5,-806 150.1,-2765.9 355.8,-3554.6 10.9,-42 39.8,-76.9 79.2,-95.8 39.7,-19 85.5,-19.5 125.6,-1.4 517.5,233.6 1830.3,785 2842.8,861.4 62.5,4.7 118.3,37.3 153.1,89.3 35,52.3 43.8,116.5 24.2,176.3 -186.2,568.9 -632.6,1996.4 -756.8,2964 -33.4,260.8 -244,464.6 -500.7,484.6 -525.2,40.9 -1305.8,2.6 -2043.4,-411.5 -180,-101.1 -289.8,-302.1 -279.8,-512.3 z m 499.4,-3708.9 c -28.5,0 -57,6.3 -83.3,18.9 -51.1,24.4 -88.6,69.8 -102.8,124.4 -206.7,792.6 -318.6,2756.1 -357.1,3563.6 -10.8,226.5 107.7,443.4 302.1,552.6 747.2,419.5 1537.2,458.3 2068.3,417 277.3,-21.6 504.8,-241.5 540.9,-522.8 123.7,-963.9 569.2,-2388.3 755,-2955.9 23.8,-72.7 13,-150.8 -29.5,-214.4 -42.4,-63.4 -110.3,-103 -186.3,-108.7 -1005.6,-75.9 -2312.7,-625 -2828,-857.6 -25.3,-11.4 -52.3,-17.1 -79.3,-17.1"
         style="fill:#000000;fill-opacity:1;fill-rule:nonzero;stroke:none"
         transform="matrix(0.13333333,0,0,-0.13333333,0,3333.3333)" />
      <path
         id="path69"
         d="m 11461.9,18129.3 c 0,0 -154.2,313.4 -208.5,368.6 -54.4,55.1 -96.4,113.4 63.5,220.3 159.9,107 577.7,392.6 833.6,390.8 256,-1.9 435.3,-163.5 356.5,-280.1 -78.7,-116.6 -114.9,-165.7 -54.2,-173.2 60.8,-7.6 94.3,-75.3 -77.8,-175 -172.1,-99.7 -771.9,-532.3 -913.1,-351.4"
         style="fill:#000000;fill-opacity:1;fill-rule:nonzero;stroke:none"
         transform="matrix(0.13333333,0,0,-0.13333333,0,3333.3333)" />
      <path
         id="path70"
         d="m 12338.3,17040.4 -89.4,475.1 c 269.1,135.1 160.7,322.5 120.5,472.1 -43.3,161 -176.7,510.5 -176.7,510.5 -220.8,-129.8 -653.8,-91.1 -653.8,-91.1 0,0 62.1,-98.9 26.5,-147.6 -35.7,-48.8 -13.5,-236 -13.5,-236 0,0 -77.2,72.7 -159.9,17.1 -46.6,-31.2 6.6,-164.7 44.7,-239.6 38.1,-74.9 120.1,-89.7 120.1,-89.7 0,0 13.5,8.1 41.1,-57.9 l -146.8,-773.9 -288.4,-119.7 641.7,-86.7 c 202.4,-27.3 407.5,27.2 569.7,151.4 l 229.9,176 -265.7,40"
         style="fill:transparent;fill-opacity:1;fill-rule:nonzero;stroke:none"
         transform="matrix(0.13333333,0,0,-0.13333333,0,3333.3333)" />
      <path
         id="path71"
         d="m 11568,17692.4 c -0.9,-0.6 -1.8,-1 -2.7,-1.4 0.9,0.4 1.8,0.8 2.7,1.4 z m -321.8,-921.8 561.1,-75.8 c 195.3,-26.4 397,27.2 553.4,147 l 188.8,144.6 -214.5,32.3 c -9.2,1.4 -16.5,8.5 -18.3,17.6 l -89.4,475.1 c -1.8,9.7 3,19.3 11.7,23.7 216.2,108.5 171.5,248.4 128.3,383.7 -7,21.8 -13.6,42.5 -19.1,63.1 -36.1,134 -136.6,403.7 -167.1,484.8 -189.7,-96.9 -495.2,-90.3 -604.3,-84.3 17.2,-37.9 35.2,-96.5 6.3,-136 -21,-28.8 -18.1,-146.2 -9.4,-220.4 1.1,-9.2 -3.6,-18.1 -11.9,-22.2 -8.2,-4.1 -18.2,-2.7 -24.9,3.6 -2.6,2.4 -65.9,59.8 -132.7,14.9 -19.9,-13.4 -5.7,-98.1 52.1,-211.5 28.7,-56.4 87.7,-73.9 101.5,-77.3 3,0.1 6.5,-0.4 9.7,-1.5 11.5,-3.8 27.6,-15.2 50.7,-70.2 1.6,-4 2.1,-8.4 1.3,-12.6 l -146.9,-773.9 c -1.3,-7.3 -6.3,-13.4 -13.1,-16.2 z m 659.3,-126.3 c -34.7,0 -69.5,2.3 -104.1,7 l -641.7,86.6 c -9.8,1.3 -17.5,9.1 -18.8,18.9 -1.3,9.9 4.2,19.3 13.3,23.1 l 277.5,115.2 143.4,755.7 c -11.1,25.4 -18.5,35.2 -21.6,38.7 -0.2,0.1 -0.4,0.1 -0.6,0.1 -3.8,0.7 -93.2,17.6 -135.8,101.3 -33.4,65.6 -103.9,223.1 -37.4,267.9 53.1,35.6 107.3,26.8 146,8.2 -4.6,63 -7,165.6 21.9,205.3 21.9,29.9 -13.2,100.6 -27.3,123.1 -4.4,7 -4.4,16 -0.1,23.1 4.4,7.1 12.3,11.1 20.7,10.4 4.3,-0.4 428.6,-36.5 640.7,88.1 5.5,3.3 12.3,3.9 18.4,1.8 6.1,-2.1 10.9,-6.9 13.2,-12.9 5.5,-14.3 134.3,-352.4 177.4,-512.6 5.3,-19.6 11.7,-39.8 18.5,-61.2 43.4,-135.7 97.1,-303.9 -135.6,-428.6 l 83.5,-443.7 250.2,-37.7 c 8.7,-1.3 15.8,-7.7 18,-16.3 2.2,-8.5 -0.9,-17.5 -7.9,-22.9 l -229.9,-176 c -137.9,-105.6 -309.1,-162.6 -481.9,-162.6"
         style="fill:#000000;fill-opacity:1;fill-rule:nonzero;stroke:none"
         transform="matrix(0.13333333,0,0,-0.13333333,0,3333.3333)" />
      <path
         id="path72"
         d="m 12001.1,17437.3 c -245.5,0 -336.9,189.6 -338,192.1 -5.1,11 -0.3,24.1 10.7,29.2 10.9,5.1 24,0.3 29.1,-10.7 5.5,-11.7 137.2,-279.9 537.5,-112.1 11.2,4.6 24.1,-0.6 28.8,-11.8 4.6,-11.2 -0.6,-24.1 -11.8,-28.7 -99.6,-41.8 -184.5,-58 -256.3,-58"
         style="fill:#000000;fill-opacity:1;fill-rule:nonzero;stroke:none"
         transform="matrix(0.13333333,0,0,-0.13333333,0,3333.3333)" />
      <path
         id="path73"
         d="m 11359.3,18281.7 82.2,-240.3 c 0,0 523.1,-312.7 1145.9,-186 85.4,17.3 139.7,101.8 120.4,186.8 l -48,422.5 c -19.1,84.1 -103.2,136.6 -187.2,116.7 l -1113.3,-299.7"
         style="fill:transparent;fill-opacity:1;fill-rule:nonzero;stroke:none"
         transform="matrix(0.13333333,0,0,-0.13333333,0,3333.3333)" />
      <path
         id="path74"
         d="m 11459.6,18056.4 c 63.2,-35.3 554.5,-295.2 1123.4,-179.5 35.4,7.2 65.7,27.9 85.3,58.3 19.7,30.5 26.2,66.7 18.1,102.1 -0.2,0.8 -0.3,1.6 -0.4,2.4 l -47.9,421.2 c -8.1,34.5 -29.1,63.8 -59.2,82.5 -30.4,19 -66.4,24.9 -101.2,16.7 l -1090.1,-293.5 z m 826.5,-252.8 c -482.8,0 -851.5,216.4 -855.9,219 -4.4,2.7 -7.8,6.8 -9.5,11.7 l -82.2,240.3 c -2,5.7 -1.5,12 1.4,17.4 2.8,5.3 7.8,9.3 13.6,10.9 l 1113.4,299.8 c 47,11.1 94.9,3.2 135.3,-22 40.4,-25.2 68.5,-64.7 79.1,-111.2 0.1,-0.7 0.2,-1.6 0.3,-2.3 l 47.9,-421.4 c 10.3,-46.6 1.7,-94.3 -24.3,-134.4 -26,-40.5 -66.4,-68 -113.4,-77.5 -105.2,-21.4 -207.8,-30.3 -305.7,-30.3"
         style="fill:#000000;fill-opacity:1;fill-rule:nonzero;stroke:none"
         transform="matrix(0.13333333,0,0,-0.13333333,0,3333.3333)" />
      <path
         id="path75"
         d="m 11951.1,17995.4 c -5.6,0 -11.2,2.1 -15.5,6.4 -8.6,8.6 -8.6,22.5 0,31.1 l 199.5,199.4 c 8.5,8.6 22.4,8.6 31,0 8.6,-8.5 8.6,-22.5 0,-31 l -199.4,-199.5 c -4.3,-4.3 -10,-6.4 -15.6,-6.4"
         style="fill:#000000;fill-opacity:1;fill-rule:nonzero;stroke:none"
         transform="matrix(0.13333333,0,0,-0.13333333,0,3333.3333)" />
      <path
         id="path76"
         d="m 12248.9,18034.1 c -5.6,0 -11.2,2.1 -15.5,6.4 -8.6,8.6 -8.6,22.5 0,31.1 l 298.7,298.7 c 8.6,8.6 22.5,8.6 31.1,0 8.5,-8.6 8.5,-22.5 0,-31 l -298.8,-298.8 c -4.3,-4.3 -9.9,-6.4 -15.5,-6.4"
         style="fill:#000000;fill-opacity:1;fill-rule:nonzero;stroke:none"
         transform="matrix(0.13333333,0,0,-0.13333333,0,3333.3333)" />
      <path
         id="path77"
         d="m 8556.62,5963.9 c -0.19,0 -0.39,0 -0.59,0 -686.69,18.3 -1123.23,198.8 -1297.49,536.6 l -3768.25,7304.7 c -5.56,10.8 -1.33,24 9.45,29.6 10.75,5.5 24,1.3 29.58,-9.5 205.84,-399 820.58,-571.2 1777.84,-497.9 941.8,72 2149.65,375.5 3492.97,877.6 272.26,101.7 578.08,-16.4 711.36,-274.8 L 12769.4,7614.9 c 75.5,-146.3 84.5,-318.3 24.7,-471.7 -59.9,-153.8 -183.2,-274.5 -338.2,-331.4 -389.2,-142.6 -772.3,-270.2 -1138.8,-379.1 -11.6,-3.5 -23.9,3.1 -27.3,14.8 -3.5,11.6 3.1,23.8 14.8,27.3 365.6,108.6 747.9,235.9 1136.2,378.3 143.2,52.5 257,164 312.3,306 55.2,141.8 46.9,300.5 -22.8,435.7 l -3257.84,6315.3 c -123.09,238.6 -405.54,347.7 -656.96,253.7 -1588.97,-593.8 -2948.64,-896.6 -3906.84,-896.6 -585.33,-0.1 -1020.76,112.9 -1267.54,341.4 l 3656.44,-7088 c 164.03,-317.9 599.61,-495.2 1259.63,-512.8 12.13,-0.3 21.69,-10.4 21.37,-22.5 -0.31,-11.9 -10.08,-21.4 -21.94,-21.4"
         style="fill:#000000;fill-opacity:1;fill-rule:nonzero;stroke:none"
         transform="matrix(0.13333333,0,0,-0.13333333,0,3333.3333)" />
      <path
         id="path78"
         d="m 10384.2,6187.5 c -10,0 -19,6.9 -21.4,17.1 -2.6,11.8 4.8,23.6 16.6,26.3 294.3,66.8 605.6,148.9 925.2,243.9 11.6,3.4 23.8,-3.2 27.3,-14.8 3.4,-11.7 -3.2,-23.9 -14.8,-27.3 -320.5,-95.3 -632.7,-177.6 -928,-244.7 -1.6,-0.3 -3.3,-0.5 -4.9,-0.5"
         style="fill:transparent;fill-opacity:1;fill-rule:nonzero;stroke:none"
         transform="matrix(0.13333333,0,0,-0.13333333,0,3333.3333)" />
      <path
         id="path79"
         d="m 9226.57,5992 c -11.15,0 -20.71,8.5 -21.83,19.8 -1.2,12.1 7.61,22.8 19.67,24 349.56,34.8 738.14,100.4 1154.99,195.1 11.9,2.7 23.6,-4.7 26.3,-16.6 2.7,-11.8 -4.7,-23.6 -16.6,-26.3 -418.58,-95 -808.99,-161 -1160.33,-195.9 -0.74,-0.1 -1.48,-0.1 -2.2,-0.1"
         style="fill:#000000;fill-opacity:1;fill-rule:nonzero;stroke:none"
         transform="matrix(0.13333333,0,0,-0.13333333,0,3333.3333)" />
      <path
         id="path80"
         d="m 8669.45,5962.4 c -38.54,0 -76.34,0.5 -113.42,1.5 -12.13,0.3 -21.69,10.4 -21.37,22.6 0.32,12.1 10.38,21.7 22.53,21.3 201.96,-5.3 426.4,4.1 667.22,28 12.12,1.2 22.84,-7.6 24.04,-19.7 1.2,-12 -7.62,-22.8 -19.68,-24 -198.5,-19.7 -386.1,-29.7 -559.32,-29.7"
         style="fill:transparent;fill-opacity:1;fill-rule:nonzero;stroke:none"
         transform="matrix(0.13333333,0,0,-0.13333333,0,3333.3333)" />
      <path
         id="path81"
         d="m 14663.3,7814.5 c -209.1,0 -411.8,113.8 -513.1,310.3 -5.6,10.8 -1.4,24 9.4,29.6 10.8,5.6 24,1.3 29.6,-9.5 131.8,-255.5 449.2,-359.6 707.4,-232.1 142.8,70.6 287.2,143.5 429.2,216.8 1872.2,965.8 3523.9,2083.5 4650.8,3147.2 1120.6,1057.8 1587.1,1932.2 1313.7,2462.2 l -3655.8,7086.8 c 72.4,-552.7 -411.7,-1347.1 -1396,-2276.2 -1129.8,-1066.5 -2785,-2186.7 -4660.8,-3154.4 -137.3,-70.8 -276.8,-141.3 -414.5,-209.4 -128.3,-63.5 -223.5,-173.3 -268.2,-309.3 -44.7,-136.3 -33.2,-281.5 32.6,-409.1 L 12004,12380.8 c 5.6,-10.8 1.4,-24 -9.4,-29.6 -10.8,-5.6 -24,-1.3 -29.6,9.4 l -1076.4,2086.7 c -71.2,138.1 -83.8,295.4 -35.3,442.9 48.4,147.2 151.5,266.2 290.4,334.9 137.5,68.1 276.7,138.4 413.8,209.2 1872.3,965.8 3524,2083.5 4650.8,3147.2 1119.8,1057 1586.5,1930.9 1314.3,2461 l -0.6,1.2 c -5.5,10.8 -1.3,24 9.5,29.6 10.7,5.6 24,1.3 29.6,-9.4 l 3768.2,-7304.7 c 283.2,-549 -186.5,-1441.9 -1322.6,-2514.3 -1129.7,-1066.5 -2785,-2186.7 -4660.8,-3154.4 -142.2,-73.3 -286.9,-146.4 -429.9,-217 -81,-40.1 -167.4,-59 -252.7,-59"
         style="fill:#000000;fill-opacity:1;fill-rule:nonzero;stroke:none"
         transform="matrix(0.13333333,0,0,-0.13333333,0,3333.3333)" />
      <path
         id="path82"
         d="m 14169.7,8112.9 c -8,0 -15.6,4.3 -19.5,11.9 L 13413,9553.7 c -5.5,10.8 -1.3,24.1 9.5,29.6 10.7,5.6 24,1.4 29.5,-9.4 l 737.2,-1429 c 5.5,-10.7 1.3,-24 -9.5,-29.5 -3.2,-1.7 -6.6,-2.5 -10,-2.5"
         style="fill:transparent;fill-opacity:1;fill-rule:nonzero;stroke:none"
         transform="matrix(0.13333333,0,0,-0.13333333,0,3333.3333)" />
      <path
         id="path83"
         d="m 13432.5,9541.8 c -7.9,0 -15.6,4.4 -19.5,11.9 l -313.6,608 c -5.6,10.8 -1.3,24 9.5,29.6 10.7,5.5 24,1.3 29.5,-9.5 l 313.6,-607.9 c 5.6,-10.8 1.4,-24 -9.4,-29.6 -3.2,-1.7 -6.7,-2.5 -10.1,-2.5"
         style="fill:#000000;fill-opacity:1;fill-rule:nonzero;stroke:none"
         transform="matrix(0.13333333,0,0,-0.13333333,0,3333.3333)" />
      <path
         id="path84"
         d="m 13118.9,10149.8 c -7.9,0 -15.6,4.3 -19.5,11.9 L 11965,12360.6 c -5.5,10.8 -1.3,24.1 9.5,29.6 10.7,5.6 24,1.4 29.5,-9.4 l 1134.4,-2199 c 5.6,-10.8 1.4,-24 -9.4,-29.6 -3.2,-1.6 -6.7,-2.4 -10.1,-2.4"
         style="fill:transparent;fill-opacity:1;fill-rule:nonzero;stroke:none"
         transform="matrix(0.13333333,0,0,-0.13333333,0,3333.3333)" />
      <path
         id="path85"
         d="m 11998.1,14468.8 c -7.9,0 -15.6,4.3 -19.5,11.9 -5.6,10.7 -1.4,24 9.4,29.5 2969.4,1531.8 5346,3442.2 5914,4753.7 4.8,11.1 17.6,16.2 28.8,11.4 11.2,-4.8 16.3,-17.8 11.5,-28.9 -571.7,-1320.1 -2956.5,-3239.1 -5934.1,-4775.2 -3.3,-1.7 -6.7,-2.4 -10.1,-2.4"
         style="fill:#000000;fill-opacity:1;fill-rule:nonzero;stroke:none"
         transform="matrix(0.13333333,0,0,-0.13333333,0,3333.3333)" />
      <path
         id="path86"
         d="m 12356.3,13710.6 c -8,0 -15.7,4.3 -19.6,11.9 -5.5,10.8 -1.3,24 9.5,29.6 2969.3,1531.8 5345.9,3442.1 5913.9,4753.6 4.9,11.1 17.7,16.3 28.9,11.5 11.1,-4.9 16.3,-17.8 11.4,-28.9 -571.7,-1320.2 -2956.4,-3239.2 -5934.1,-4775.2 -3.2,-1.7 -6.6,-2.5 -10,-2.5"
         style="fill:#000000;fill-opacity:1;fill-rule:nonzero;stroke:none"
         transform="matrix(0.13333333,0,0,-0.13333333,0,3333.3333)" />
      <path
         id="path87"
         d="m 13664.9,13466.5 c -7.7,0 -15.1,4 -19.1,11.2 -6,10.5 -2.3,23.9 8.3,29.9 741.3,420.2 1437.7,861.6 2069.7,1311.9 9.9,7.1 23.6,4.7 30.6,-5.1 7,-9.9 4.7,-23.6 -5.2,-30.6 -633.2,-451.2 -1330.8,-893.5 -2073.5,-1314.4 -3.4,-2 -7.1,-2.9 -10.8,-2.9"
         style="fill:#000000;fill-opacity:1;fill-rule:nonzero;stroke:none"
         transform="matrix(0.13333333,0,0,-0.13333333,0,3333.3333)" />
      <path
         id="path88"
         d="m 16248.3,15157.2 c -6.6,0 -13.2,2.9 -17.5,8.6 -7.4,9.6 -5.5,23.4 4.1,30.8 1232.6,942.4 2079.1,1848.3 2383.4,2551 4.8,11.1 17.8,16.2 28.9,11.4 11.1,-4.8 16.2,-17.7 11.4,-28.9 -307.2,-709.4 -1158.5,-1621.5 -2397,-2568.4 -4,-3.1 -8.7,-4.5 -13.3,-4.5"
         style="fill:#000000;fill-opacity:1;fill-rule:nonzero;stroke:none"
         transform="matrix(0.13333333,0,0,-0.13333333,0,3333.3333)" />
      <path
         id="path89"
         d="m 14960.1,13265.7 c -7.3,0 -14.5,3.7 -18.6,10.4 -6.5,10.3 -3.3,23.8 7,30.2 736.5,459.9 1406,932 1989.9,1403.3 9.5,7.6 23.3,6.1 30.9,-3.3 7.6,-9.4 6.1,-23.3 -3.3,-30.9 -585.3,-472.4 -1256.3,-945.6 -1994.3,-1406.3 -3.6,-2.3 -7.6,-3.4 -11.6,-3.4"
         style="fill:#000000;fill-opacity:1;fill-rule:nonzero;stroke:none"
         transform="matrix(0.13333333,0,0,-0.13333333,0,3333.3333)" />
      <path
         id="path90"
         d="m 17353.5,15006.1 c -6.2,0 -12.3,2.6 -16.6,7.6 -8,9.2 -7,23 2.2,31 833.6,723.8 1399.9,1396.3 1637.4,1944.7 4.8,11.2 17.6,16.3 28.8,11.5 11.2,-4.9 16.3,-17.8 11.5,-28.9 -240.1,-554.4 -810.3,-1232.4 -1648.9,-1960.5 -4.2,-3.6 -9.3,-5.4 -14.4,-5.4"
         style="fill:#000000;fill-opacity:1;fill-rule:nonzero;stroke:none"
         transform="matrix(0.13333333,0,0,-0.13333333,0,3333.3333)" />
      <path
         id="path91"
         d="m 13788.9,10678 c -7.9,0 -15.6,4.4 -19.5,11.9 -5.5,10.8 -1.3,24 9.5,29.6 135.4,69.9 272.3,141.9 406.6,214.1 10.7,5.7 24,1.7 29.8,-9 5.7,-10.7 1.7,-24 -9,-29.7 -134.6,-72.3 -271.6,-144.4 -407.3,-214.4 -3.2,-1.7 -6.7,-2.5 -10.1,-2.5"
         style="fill:#000000;fill-opacity:1;fill-rule:nonzero;stroke:none"
         transform="matrix(0.13333333,0,0,-0.13333333,0,3333.3333)" />
      <path
         id="path92"
         d="m 14195.9,10892.3 c -7.8,0 -15.4,4.2 -19.3,11.5 -5.8,10.7 -1.8,24 8.9,29.8 431.6,231.7 855.9,474.6 1261.1,721.8 10.3,6.3 23.9,3 30.2,-7.3 6.3,-10.4 3.1,-23.9 -7.3,-30.2 -405.9,-247.7 -830.9,-490.9 -1263.2,-723 -3.3,-1.8 -6.9,-2.6 -10.4,-2.6"
         style="fill:transparent;fill-opacity:1;fill-rule:nonzero;stroke:none"
         transform="matrix(0.13333333,0,0,-0.13333333,0,3333.3333)" />
      <path
         id="path93"
         d="m 15458.1,11614.7 c -7.4,0 -14.6,3.7 -18.8,10.5 -6.3,10.3 -3,23.9 7.3,30.2 1080.3,659 2043.3,1360.5 2785,2028.8 736.4,663.5 1241.7,1282.1 1461.2,1789 4.8,11.1 17.6,16.2 28.9,11.4 11.1,-4.8 16.2,-17.8 11.4,-28.9 -455.8,-1052.5 -2049.6,-2487.2 -4263.6,-3837.8 -3.6,-2.2 -7.5,-3.2 -11.4,-3.2"
         style="fill:#000000;fill-opacity:1;fill-rule:nonzero;stroke:none"
         transform="matrix(0.13333333,0,0,-0.13333333,0,3333.3333)" />
      <path
         id="path94"
         d="m 14147.1,9919.9 c -7.9,0 -15.6,4.3 -19.5,11.9 -5.6,10.8 -1.3,24 9.4,29.6 468.3,241.5 929.5,496.4 1370.9,757.5 10.4,6.2 23.9,2.7 30.1,-7.7 6.2,-10.5 2.7,-23.9 -7.7,-30.1 -442.2,-261.5 -904.1,-516.8 -1373.1,-758.8 -3.3,-1.6 -6.7,-2.4 -10.1,-2.4"
         style="fill:transparent;fill-opacity:1;fill-rule:nonzero;stroke:none"
         transform="matrix(0.13333333,0,0,-0.13333333,0,3333.3333)" />
      <path
         id="path95"
         d="m 15519.1,10678 c -7.5,0 -14.8,3.9 -18.9,10.8 -6.2,10.4 -2.7,23.9 7.7,30.1 2332.3,1379.6 4073,2910.8 4543.1,3996.1 4.8,11.1 17.6,16.3 28.8,11.4 11.2,-4.8 16.3,-17.7 11.5,-28.8 -473.6,-1093.4 -2221.2,-2632.4 -4561,-4016.5 -3.5,-2.1 -7.4,-3.1 -11.2,-3.1"
         style="fill:#000000;fill-opacity:1;fill-rule:nonzero;stroke:none"
         transform="matrix(0.13333333,0,0,-0.13333333,0,3333.3333)" />
      <path
         id="path96"
         d="m 14505.3,9161.7 c -8,0 -15.7,4.4 -19.6,11.9 -5.5,10.8 -1.3,24.1 9.5,29.6 273.8,141.3 547.2,288.1 812.4,436.4 10.5,5.9 23.9,2.1 29.9,-8.5 5.9,-10.6 2.1,-23.9 -8.5,-29.9 -265.6,-148.5 -539.4,-295.5 -813.7,-437 -3.2,-1.7 -6.6,-2.5 -10,-2.5"
         style="fill:#000000;fill-opacity:1;fill-rule:nonzero;stroke:none"
         transform="matrix(0.13333333,0,0,-0.13333333,0,3333.3333)" />
      <path
         id="path97"
         d="m 15318.3,9598.4 c -7.7,0 -15.1,4.1 -19.2,11.3 -5.9,10.6 -2.1,24 8.5,29.9 2590.4,1448.2 4592.9,3142.8 5101.5,4317.3 4.9,11.1 17.8,16.2 28.9,11.4 11.2,-4.8 16.2,-17.8 11.4,-28.9 -250.9,-579.3 -858.4,-1289.3 -1756.8,-2053.2 -909,-772.8 -2072.1,-1562.9 -3363.6,-2285 -3.4,-1.9 -7.1,-2.8 -10.7,-2.8"
         style="fill:#000000;fill-opacity:1;fill-rule:nonzero;stroke:none"
         transform="matrix(0.13333333,0,0,-0.13333333,0,3333.3333)" />
      <path
         id="path98"
         d="m 18828.6,8655.2 c -6.8,0 -13.5,3.1 -17.8,9 -7.1,9.8 -5,23.6 4.8,30.7 71.5,52.3 142.7,105 211.5,156.7 9.7,7.3 23.5,5.3 30.8,-4.4 7.2,-9.7 5.3,-23.4 -4.4,-30.7 -69,-51.8 -140.3,-104.7 -212,-157 -3.9,-2.9 -8.4,-4.3 -12.9,-4.3 z m -429.4,-305.7 c -6.9,0 -13.7,3.3 -18,9.5 -6.9,9.9 -4.5,23.6 5.5,30.5 72,50 144.5,101 215.4,151.4 9.9,7.1 23.6,4.7 30.6,-5.1 7,-9.9 4.7,-23.6 -5.2,-30.7 -71,-50.5 -143.6,-101.6 -215.8,-151.7 -3.8,-2.6 -8.1,-3.9 -12.5,-3.9 z m -436,-295.6 c -7.1,0 -14.1,3.5 -18.3,9.9 -6.7,10.1 -4,23.7 6.2,30.4 73.7,48.8 146.5,97.6 218.5,146.4 10,6.8 23.7,4.2 30.5,-5.9 6.8,-10 4.2,-23.7 -5.8,-30.5 -72.2,-48.8 -145.2,-97.7 -219,-146.6 -3.7,-2.5 -7.9,-3.7 -12.1,-3.7 z m -442.1,-286.2 c -7.3,0 -14.4,3.6 -18.6,10.2 -6.5,10.3 -3.4,23.8 6.8,30.3 74.7,47.3 148.5,94.6 221.6,141.9 10.2,6.6 23.8,3.7 30.4,-6.5 6.6,-10.2 3.7,-23.8 -6.5,-30.4 -73.2,-47.4 -147.2,-94.7 -221.9,-142.1 -3.7,-2.3 -7.8,-3.4 -11.8,-3.4 z m -447.6,-277.5 c -7.5,0 -14.7,3.8 -18.8,10.6 -6.3,10.4 -3,23.9 7.3,30.2 75.5,45.8 150.2,91.6 224.3,137.5 10.3,6.4 23.9,3.3 30.3,-7.1 6.3,-10.3 3.2,-23.8 -7.1,-30.2 -74.2,-46 -149.1,-91.9 -224.7,-137.8 -3.5,-2.1 -7.5,-3.2 -11.3,-3.2"
         style="fill:#000000;fill-opacity:1;fill-rule:nonzero;stroke:none"
         transform="matrix(0.13333333,0,0,-0.13333333,0,3333.3333)" />
      <path
         id="path99"
         d="m 19255.1,8975.8 c -6.6,0 -13.1,3 -17.4,8.6 -7.4,9.5 -5.7,23.3 3.9,30.8 69.6,53.8 139.3,108.5 207,162.6 9.5,7.5 23.3,6 30.9,-3.5 7.5,-9.5 6,-23.3 -3.5,-30.9 -67.9,-54.1 -137.7,-109 -207.5,-163 -4,-3.1 -8.7,-4.6 -13.4,-4.6 z m -214.8,-163.7 c -6.7,0 -13.2,3 -17.6,8.8 -7.3,9.7 -5.3,23.4 4.4,30.7 l 5.3,4 c 9.7,7.3 23.5,5.3 30.7,-4.4 7.3,-9.7 5.4,-23.5 -4.4,-30.8 l -5.2,-3.9 c -4,-3 -8.6,-4.4 -13.2,-4.4"
         style="fill:transparent;fill-opacity:1;fill-rule:nonzero;stroke:none"
         transform="matrix(0.13333333,0,0,-0.13333333,0,3333.3333)" />
      <path
         id="path100"
         d="m 19632.8,9276.5 c -6.4,0 -12.7,2.7 -17,8 -7.7,9.4 -6.4,23.2 3,30.9 69,56.7 137,113.4 202,168.6 9.3,7.9 23.1,6.7 31,-2.5 7.8,-9.3 6.7,-23.1 -2.5,-31 -65.3,-55.4 -133.4,-112.2 -202.6,-169 -4.1,-3.4 -9.1,-5 -13.9,-5"
         style="fill:#000000;fill-opacity:1;fill-rule:nonzero;stroke:none"
         transform="matrix(0.13333333,0,0,-0.13333333,0,3333.3333)" />
      <path
         id="path101"
         d="m 20012.4,9598.4 c -6.1,0 -12.2,2.5 -16.5,7.5 -8,9.1 -7.1,23 2,31 66.7,58.6 132.6,117.6 195.9,175.5 8.9,8.2 22.9,7.6 31.1,-1.4 8.1,-8.9 7.5,-22.8 -1.4,-31 -63.6,-58.1 -129.7,-117.4 -196.6,-176.1 -4.2,-3.7 -9.4,-5.5 -14.5,-5.5"
         style="fill:transparent;fill-opacity:1;fill-rule:nonzero;stroke:none"
         transform="matrix(0.13333333,0,0,-0.13333333,0,3333.3333)" />
      <path
         id="path102"
         d="m 21523.8,11295.2 c -3.8,0 -7.7,1 -11.2,3.1 -10.4,6.2 -13.9,19.7 -7.7,30.1 46.4,78.1 88.3,155.5 124.4,230.1 5.3,10.9 18.5,15.4 29.4,10.1 10.9,-5.3 15.5,-18.4 10.1,-29.3 -36.7,-75.7 -79.1,-154.2 -126.1,-233.3 -4.1,-7 -11.4,-10.8 -18.9,-10.8 z m -297,-435.1 c -4.6,0 -9.3,1.5 -13.3,4.6 -9.6,7.3 -11.4,21.1 -4.1,30.8 54.8,71.5 106.7,142.9 154.2,212.2 6.8,10 20.5,12.6 30.5,5.7 10,-6.8 12.5,-20.5 5.7,-30.5 -47.9,-69.9 -100.2,-142 -155.5,-214.1 -4.3,-5.7 -10.8,-8.7 -17.5,-8.7 z m -337.5,-404.6 c -5.2,0 -10.4,1.9 -14.6,5.7 -9,8.1 -9.8,22 -1.7,31 59.8,66.5 117.8,133.2 172.3,198.4 7.8,9.2 21.5,10.5 30.9,2.7 9.3,-7.8 10.5,-21.6 2.8,-30.9 -54.9,-65.6 -113.2,-132.7 -173.3,-199.6 -4.4,-4.8 -10.3,-7.3 -16.4,-7.3 z m -364.2,-380.7 c -5.7,0 -11.4,2.1 -15.6,6.5 -8.6,8.6 -8.5,22.5 0.1,31.1 63.2,62.4 125.3,125.4 184.6,187.2 8.3,8.8 22.3,9.1 31,0.7 8.8,-8.4 9.1,-22.3 0.6,-31 -59.5,-62.2 -121.8,-125.5 -185.3,-188.2 -4.3,-4.2 -9.9,-6.3 -15.4,-6.3 z m -316.5,-300.6 c -5.9,0 -11.8,2.5 -16.2,7.2 -8.1,8.9 -7.5,22.8 1.4,31 42.9,39.3 85.1,78.4 126.5,117.4 8.8,8.3 22.7,7.9 31,-0.9 8.4,-8.9 7.9,-22.8 -0.9,-31.1 -41.5,-39.1 -83.9,-78.4 -126.9,-117.8 -4.2,-3.8 -9.6,-5.8 -14.9,-5.8"
         style="fill:#000000;fill-opacity:1;fill-rule:nonzero;stroke:none"
         transform="matrix(0.13333333,0,0,-0.13333333,0,3333.3333)" />
      <path
         id="path103"
         d="m 5594.99,7450.9 c -6.27,0 -12.5,2.6 -16.84,7.8 -7.78,9.3 -6.56,23.2 2.73,31 40.73,34.1 81.99,68.3 123.75,102.5 9.4,7.7 23.22,6.3 30.92,-3 7.69,-9.4 6.31,-23.3 -3.06,-30.9 -41.66,-34.2 -82.79,-68.3 -123.4,-102.3 -4.11,-3.4 -9.12,-5.1 -14.1,-5.1 z m -397.75,-345.8 c -6,0 -11.97,2.4 -16.3,7.2 -8.14,9 -7.44,22.9 1.56,31 64.07,58 130.55,116.9 197.59,175.1 9.17,8 23.04,7 30.97,-2.2 7.96,-9.1 6.98,-23 -2.17,-31 -66.82,-58 -133.08,-116.7 -196.94,-174.4 -4.2,-3.8 -9.47,-5.7 -14.71,-5.7 z M 4814.25,6743 c -5.65,0 -11.3,2.2 -15.59,6.5 -8.55,8.6 -8.48,22.5 0.13,31.1 61.04,60.5 124.89,122.3 189.78,183.6 8.82,8.3 22.7,7.9 31.05,-0.9 8.33,-8.8 7.93,-22.7 -0.89,-31 -64.63,-61.1 -128.22,-122.6 -189.02,-182.9 -4.28,-4.3 -9.88,-6.4 -15.46,-6.4 z M 4450.7,6361.5 c -5.21,0 -10.44,1.8 -14.63,5.6 -9.04,8.1 -9.8,22 -1.72,31 57.11,63.8 117.48,129 179.43,194 8.4,8.7 22.28,9 31.05,0.7 8.78,-8.4 9.11,-22.3 0.74,-31.1 -61.65,-64.6 -121.7,-129.5 -178.5,-192.9 -4.34,-4.8 -10.34,-7.3 -16.37,-7.3 z M 4114.28,5956 c -4.64,0 -9.3,1.4 -13.27,4.4 -9.66,7.4 -11.54,21.2 -4.19,30.8 51.5,67.8 106.92,137.4 164.73,206.9 7.75,9.3 21.62,10.6 30.92,2.8 9.33,-7.7 10.61,-21.6 2.86,-30.9 -57.42,-69 -112.43,-138.1 -163.55,-205.4 -4.32,-5.6 -10.87,-8.6 -17.5,-8.6 z m -295.14,-436.3 c -3.77,0 -7.6,1 -11.1,3 -10.45,6.2 -13.96,19.6 -7.82,30.1 42.71,72.8 90.45,148.1 141.86,223.7 6.82,10 20.48,12.6 30.51,5.8 10.04,-6.8 12.64,-20.5 5.82,-30.5 -50.88,-74.8 -98.08,-149.3 -140.31,-221.2 -4.09,-7 -11.43,-10.9 -18.96,-10.9 z m -224.21,-475.9 c -2.36,0 -4.76,0.4 -7.12,1.2 -11.47,4 -17.58,16.5 -13.65,27.9 27.2,79.3 61.26,162 101.24,245.8 5.21,11 18.33,15.6 29.27,10.4 10.94,-5.3 15.57,-18.4 10.35,-29.3 -39.24,-82.3 -72.66,-163.4 -99.32,-241.1 -3.12,-9.1 -11.64,-14.9 -20.77,-14.9 z m -83.92,-516.7 c -11.63,0 -21.32,9.2 -21.91,20.9 -0.9,17.8 -1.35,35.8 -1.35,54 0,68.2 6.42,139.9 19.09,213 2.08,12 13.42,20 25.38,17.9 11.95,-2.1 19.96,-13.4 17.89,-25.4 -12.23,-70.7 -18.44,-139.8 -18.44,-205.5 0,-17.4 0.43,-34.7 1.28,-51.8 0.62,-12.1 -8.7,-22.4 -20.82,-23 -0.37,-0.1 -0.75,-0.1 -1.12,-0.1 z M 10524.5,4449 c -9.2,0 -17.7,5.8 -20.8,15 -3.9,11.5 2.3,24 13.8,27.8 82.7,27.8 165.8,56.1 249.3,85 11.4,3.9 23.9,-2.2 27.9,-13.6 4,-11.5 -2.1,-24 -13.6,-28 -83.6,-28.9 -166.8,-57.2 -249.6,-85 -2.3,-0.8 -4.7,-1.2 -7,-1.2 z m -501.2,-163 c -9.4,0 -18,6 -21,15.4 -3.61,11.6 2.8,23.9 14.4,27.5 83.1,26.2 166.7,52.9 250.8,80.3 11.5,3.7 23.9,-2.6 27.7,-14.1 3.7,-11.6 -2.6,-23.9 -14.1,-27.7 -84.2,-27.4 -168,-54.2 -251.2,-80.4 -2.2,-0.7 -4.5,-1 -6.6,-1 z m -504.37,-153.1 c -9.5,0 -18.26,6.2 -21.07,15.8 -3.4,11.6 3.28,23.8 14.92,27.2 83.6,24.5 167.72,49.5 252.34,75.2 11.54,3.6 23.85,-3 27.39,-14.6 3.52,-11.6 -3.03,-23.9 -14.63,-27.4 -84.77,-25.7 -169.04,-50.8 -252.77,-75.3 -2.06,-0.6 -4.14,-0.9 -6.18,-0.9 z m -5834.52,-94.8 c -6.67,0 -13.26,3 -17.57,8.7 -37.27,49.6 -69.23,102.8 -94.98,158.2 -11.93,25.7 -22.72,52.2 -32.09,79 -4.01,11.4 2.01,24 13.46,28 11.42,4 23.97,-2.1 27.99,-13.5 8.89,-25.4 19.14,-50.6 30.46,-75 24.47,-52.6 54.83,-103.1 90.26,-150.3 7.29,-9.7 5.34,-23.4 -4.35,-30.7 -3.96,-3 -8.59,-4.4 -13.18,-4.4 z m 5327.03,-47.6 c -9.7,0 -18.57,6.5 -21.2,16.3 -3.15,11.7 3.8,23.8 15.51,26.9 83.74,22.5 169.16,45.9 253.91,69.7 11.68,3.3 23.79,-3.5 27.07,-15.2 3.27,-11.7 -3.53,-23.8 -15.21,-27.1 -84.91,-23.8 -170.5,-47.3 -254.38,-69.8 -1.91,-0.5 -3.83,-0.8 -5.7,-0.8 z M 8500.81,3860 c -9.9,0 -18.88,6.7 -21.32,16.8 -2.86,11.8 4.38,23.6 16.16,26.5 84.11,20.4 170.06,41.8 255.45,63.7 11.81,3 23.71,-4.1 26.71,-15.9 3.01,-11.7 -4.08,-23.7 -15.83,-26.7 -85.57,-21.9 -171.69,-43.3 -255.97,-63.8 -1.74,-0.4 -3.49,-0.6 -5.2,-0.6 z m -513.84,-117.3 c -10.13,0 -19.25,7 -21.46,17.3 -2.53,11.9 5.03,23.6 16.89,26.1 84.44,18 170.91,37.2 257.02,56.9 11.79,2.7 23.61,-4.7 26.3,-16.6 2.7,-11.8 -4.69,-23.6 -16.53,-26.3 -86.3,-19.7 -172.98,-38.9 -257.61,-56.9 -1.55,-0.4 -3.09,-0.5 -4.61,-0.5 z M 4092.7,3712.9 c -3.3,0 -6.65,0.8 -9.81,2.4 -84.02,42 -160.34,89.6 -226.85,141.3 -9.57,7.4 -11.29,21.2 -3.85,30.8 7.44,9.6 21.24,11.3 30.81,3.9 64.24,-50 138.11,-96 219.55,-136.8 10.85,-5.4 15.24,-18.6 9.81,-29.4 -3.85,-7.7 -11.6,-12.2 -19.66,-12.2 z m 3377.24,-72.5 c -10.42,0 -19.67,7.4 -21.59,18 -2.16,11.9 5.77,23.4 17.7,25.5 84.95,15.4 171.94,32 258.55,49.1 11.84,2.4 23.45,-5.4 25.81,-17.3 2.36,-11.9 -5.38,-23.4 -17.28,-25.8 -86.83,-17.2 -174.05,-33.7 -259.25,-49.2 -1.33,-0.2 -2.64,-0.3 -3.94,-0.3 z m -520.19,-84.8 c -10.76,0 -20.14,7.9 -21.71,18.8 -1.73,12 6.6,23.2 18.61,24.9 85.21,12.2 172.71,25.7 260.06,39.9 11.88,2 23.25,-6.1 25.21,-18.1 1.95,-12 -6.16,-23.3 -18.13,-25.2 -87.63,-14.3 -175.41,-27.8 -260.9,-40.1 -1.05,-0.2 -2.11,-0.2 -3.14,-0.2 z m -2359.72,-12.9 c -1.6,0 -3.21,0.2 -4.83,0.5 -90.34,20.3 -176.46,44.1 -256,70.8 -11.51,3.9 -17.7,16.3 -13.85,27.8 3.86,11.5 16.35,17.7 27.81,13.8 78.12,-26.2 162.79,-49.6 251.66,-69.5 11.83,-2.7 19.27,-14.4 16.62,-26.3 -2.3,-10.2 -11.36,-17.1 -21.41,-17.1 z m 1836.55,-50.9 c -11.16,0 -20.72,8.5 -21.83,19.8 -1.2,12.1 7.63,22.8 19.69,24 85.03,8.4 172.99,18.1 261.43,29 12.03,1.4 23,-7.1 24.47,-19.2 1.47,-12 -7.1,-23 -19.13,-24.4 -88.78,-10.9 -177.08,-20.7 -262.46,-29.1 -0.74,-0.1 -1.46,-0.1 -2.17,-0.1 z M 5111,3466 c -0.6,0 -1.23,0 -1.84,0 -90.89,7.6 -179.43,17.5 -263.14,29.6 -12,1.7 -20.33,12.9 -18.59,24.9 1.73,12 12.85,20.3 24.87,18.6 82.84,-12 170.47,-21.8 260.48,-29.3 12.09,-1 21.08,-11.6 20.08,-23.7 -0.96,-11.5 -10.56,-20.1 -21.86,-20.1 z m 789.95,-11.8 c -11.71,0 -21.43,9.3 -21.93,21.1 -0.51,12.1 8.9,22.3 21.02,22.8 85.15,3.6 173.44,8.7 262.43,15.1 12.19,0.9 22.62,-8.2 23.49,-20.3 0.87,-12.1 -8.23,-22.6 -20.33,-23.5 -89.43,-6.5 -178.16,-11.6 -263.75,-15.1 -0.31,-0.1 -0.62,-0.1 -0.93,-0.1 z m -314.5,-6.8 c -72.44,0 -144.15,1.2 -213.14,3.5 -12.13,0.4 -21.63,10.5 -21.22,22.7 0.4,12.1 10.38,21.5 22.69,21.2 84.57,-2.8 172.77,-3.9 262.58,-3.3 11.68,0.7 22.03,-9.6 22.12,-21.8 0.08,-12.1 -9.67,-22 -21.8,-22.1 -17.16,-0.1 -34.25,-0.2 -51.23,-0.2"
         style="fill:#000000;fill-opacity:1;fill-rule:nonzero;stroke:none"
         transform="matrix(0.13333333,0,0,-0.13333333,0,3333.3333)" />
      <path
         id="path104"
         d="m 7595.79,20093.7 c -182.3,319.2 -582.97,425.5 -887.78,231.7 -297.18,-188.9 -387.15,-585.1 -203.69,-895.5 88.44,-149.7 224.19,-251.9 376.4,-295.7 116.77,-33.6 217.04,-111.9 278.62,-219.8 l 36.56,-64 c 30.22,-52.9 96.12,-71.1 147.17,-40.6 l 372.7,222.6 c 51.05,30.5 67.94,98.1 37.71,151 l -36.4,63.7 c -60.72,106.3 -81.06,232.8 -51.56,351.3 40.29,161.8 19.5,339.1 -69.73,495.3"
         style="fill:#000000;fill-opacity:1;fill-rule:nonzero;stroke:none"
         transform="matrix(0.13333333,0,0,-0.13333333,0,3333.3333)" />
      <path
         id="path105"
         d="m 7751.37,18533.8 c -127.18,-75.9 -291.32,-30.6 -366.62,101.2 l -88.52,155 460.57,275 88.52,-154.9 c 75.3,-131.9 33.23,-300.3 -93.95,-376.3"
         style="fill:transparent;fill-opacity:1;fill-rule:nonzero;stroke:none"
         transform="matrix(0.13333333,0,0,-0.13333333,0,3333.3333)" />
      <path
         id="path106"
         d="m 7325.99,18782.2 77.82,-136.3 c 34.11,-59.7 88.65,-102 153.58,-119 62.49,-16.4 127.38,-7.3 182.72,25.8 116.78,69.7 155.43,225.2 86.14,346.5 l -77.42,135.5 z m 292.63,-307.2 c -24.11,0 -48.4,3.1 -72.38,9.4 -76.44,20.1 -140.56,69.7 -180.56,139.7 l -88.51,155 c -5.94,10.4 -2.46,23.6 7.81,29.7 l 460.56,275.1 c 5.07,3 11.12,3.9 16.83,2.4 5.71,-1.5 10.57,-5.3 13.49,-10.4 l 88.52,-155 c 81.07,-141.9 35.42,-324 -101.75,-405.9 -44.3,-26.5 -93.76,-40 -144.01,-40"
         style="fill:#000000;fill-opacity:1;fill-rule:nonzero;stroke:none"
         transform="matrix(0.13333333,0,0,-0.13333333,0,3333.3333)" />
      <path
         id="path107"
         d="m 6497.7,20728.1 c -7.61,0 -15.01,3.9 -19.08,11 l -322.87,563.3 c -6.03,10.5 -2.39,24 8.14,30 10.5,6 23.94,2.4 29.97,-8.1 l 322.87,-563.4 c 6.03,-10.5 2.4,-23.9 -8.14,-29.9 -3.44,-2 -7.19,-2.9 -10.89,-2.9"
         style="fill:#000000;fill-opacity:1;fill-rule:nonzero;stroke:none"
         transform="matrix(0.13333333,0,0,-0.13333333,0,3333.3333)" />
      <path
         id="path108"
         d="m 5431.62,18638.3 c -7.62,0 -15.02,4 -19.08,11.1 -6.02,10.5 -2.38,23.9 8.14,30 l 734,420.3 c 10.55,6 23.94,2.3 29.97,-8.2 6.02,-10.5 2.38,-23.9 -8.14,-30 l -734,-420.2 c -3.44,-2 -7.19,-3 -10.89,-3"
         style="fill:#000000;fill-opacity:1;fill-rule:nonzero;stroke:none"
         transform="matrix(0.13333333,0,0,-0.13333333,0,3333.3333)" />
      <path
         id="path109"
         d="m 8056.6,20121.4 c -7.71,0 -15.18,4 -19.21,11.2 -5.9,10.6 -2.1,24 8.48,29.9 l 759.12,423.4 c 10.64,5.9 23.99,2.1 29.88,-8.5 5.91,-10.6 2.1,-24 -8.48,-29.9 l -759.11,-423.3 c -3.39,-1.9 -7.07,-2.8 -10.68,-2.8"
         style="fill:#000000;fill-opacity:1;fill-rule:nonzero;stroke:none"
         transform="matrix(0.13333333,0,0,-0.13333333,0,3333.3333)" />
      <path
         id="path110"
         d="m 5952.87,19923 c -1.97,0 -3.98,0.3 -5.97,0.9 l -714.07,201.4 c -11.67,3.3 -18.46,15.4 -15.17,27.1 3.29,11.6 15.44,18.4 27.1,15.1 l 714.06,-201.4 c 11.68,-3.3 18.47,-15.4 15.17,-27.1 -2.72,-9.6 -11.53,-16 -21.12,-16"
         style="fill:#000000;fill-opacity:1;fill-rule:nonzero;stroke:none"
         transform="matrix(0.13333333,0,0,-0.13333333,0,3333.3333)" />
      <path
         id="path111"
         d="m 7445.79,20730.5 c -1.93,0 -3.9,0.2 -5.85,0.8 -11.69,3.2 -18.55,15.3 -15.33,27 l 208.3,754.6 c 3.22,11.7 15.29,18.5 27.01,15.3 11.69,-3.2 18.55,-15.3 15.32,-27 l -208.29,-754.6 c -2.68,-9.7 -11.53,-16.1 -21.16,-16.1"
         style="fill:#000000;fill-opacity:1;fill-rule:nonzero;stroke:none"
         transform="matrix(0.13333333,0,0,-0.13333333,0,3333.3333)" />
      <path
         id="path112"
         d="m 19913.4,21399.4 c -0.4,0 -0.9,0 -1.3,0 -84,4.7 -172.2,7.3 -262.2,7.7 -12.2,0 -21.9,9.9 -21.9,22 0,12.1 9.9,21.9 22,21.9 v 0 c 90.8,-0.4 179.8,-3 264.6,-7.7 12.1,-0.7 21.3,-11.1 20.7,-23.2 -0.7,-11.7 -10.4,-20.7 -21.9,-20.7 z m -790,-12 c -11.4,0 -21,8.8 -21.9,20.3 -0.9,12.1 8.2,22.7 20.3,23.6 89.8,6.6 178.5,11.7 263.8,15 11.7,0.4 22.4,-9 22.8,-21.1 0.5,-12.1 -8.9,-22.3 -21.1,-22.8 -84.8,-3.2 -173,-8.3 -262.3,-14.9 -0.5,-0.1 -1.1,-0.1 -1.6,-0.1 z m 1312.5,-52.7 c -1.5,0 -3,0.1 -4.4,0.4 -81.3,16.7 -168.3,30.7 -258.3,41.6 -12.1,1.5 -20.7,12.4 -19.2,24.4 1.4,12.1 12.3,20.6 24.4,19.2 91.3,-11 179.4,-25.2 261.9,-42.2 11.9,-2.4 19.5,-14 17.1,-25.9 -2.2,-10.4 -11.3,-17.5 -21.5,-17.5 z m -1836.6,-2.4 c -10.8,0 -20.2,8 -21.7,19 -1.6,12 6.8,23.1 18.9,24.7 88.6,11.8 176.8,22.4 262.2,31.4 12.2,1.3 22.9,-7.4 24.1,-19.5 1.3,-12.1 -7.5,-22.9 -19.5,-24.1 -85,-9 -172.8,-19.6 -261.1,-31.4 -0.9,-0.1 -1.9,-0.1 -2.9,-0.1 z m -520.6,-82.1 c -10.4,0 -19.7,7.5 -21.6,18.1 -2.1,12 5.8,23.4 17.7,25.5 87.8,15.8 175.4,30.6 260.4,44.1 12,1.9 23.2,-6.3 25.1,-18.3 1.9,-12 -6.3,-23.2 -18.3,-25.1 -84.7,-13.4 -171.9,-28.2 -259.3,-43.9 -1.4,-0.2 -2.7,-0.4 -4,-0.4 z m 2855.9,-80.9 c -3.3,0 -6.7,0.7 -9.9,2.3 -72.9,36.7 -153.9,69.5 -240.8,97.6 -11.5,3.8 -17.8,16.2 -14.1,27.7 3.7,11.5 16.1,17.9 27.7,14.1 88.9,-28.8 172,-62.5 247,-100.1 10.8,-5.5 15.2,-18.7 9.7,-29.5 -3.8,-7.7 -11.6,-12.1 -19.6,-12.1 z m -3372.7,-22.5 c -10.1,0 -19.1,7 -21.4,17.3 -2.6,11.8 4.9,23.6 16.8,26.1 86.8,19.1 173.7,37.3 258.3,54.2 11.8,2.4 23.4,-5.3 25.8,-17.2 2.4,-11.9 -5.3,-23.4 -17.2,-25.8 -84.3,-16.9 -171,-35.1 -257.5,-54.1 -1.6,-0.3 -3.2,-0.5 -4.8,-0.5 z m -512.8,-121.1 c -9.9,0 -18.8,6.6 -21.3,16.6 -3,11.7 4.1,23.6 15.9,26.6 85.9,21.7 172.1,42.8 256.3,62.7 11.9,2.8 23.6,-4.5 26.4,-16.3 2.8,-11.8 -4.5,-23.6 -16.3,-26.4 -83.9,-19.9 -170,-40.9 -255.6,-62.6 -1.8,-0.4 -3.7,-0.6 -5.4,-0.6 z m -509.2,-136.4 c -9.5,0 -18.4,6.4 -21.1,16 -3.3,11.7 3.5,23.8 15.2,27.1 85,24.1 170.6,47.6 254.4,70 11.7,3.2 23.7,-3.8 26.9,-15.5 3.1,-11.7 -3.9,-23.7 -15.6,-26.9 -83.5,-22.4 -168.9,-45.9 -253.8,-69.8 -2,-0.6 -4,-0.9 -6,-0.9 z m 4797,-51.7 c -6.9,0 -13.7,3.3 -17.9,9.3 -47.8,67.9 -107.1,130.5 -176.3,186.3 -9.5,7.6 -10.9,21.4 -3.3,30.9 7.6,9.4 21.4,10.9 30.8,3.3 72.5,-58.4 134.6,-124 184.7,-195.2 6.9,-9.9 4.6,-23.6 -5.4,-30.6 -3.8,-2.7 -8.2,-4 -12.6,-4 z m -5302.3,-97.8 c -9.4,0 -18.1,6 -21,15.4 -3.6,11.6 2.9,23.9 14.5,27.5 84.1,26 169,51.7 252.4,76.4 11.7,3.5 23.9,-3.2 27.4,-14.8 3.4,-11.6 -3.3,-23.8 -14.9,-27.3 -83.3,-24.6 -168,-50.3 -251.9,-76.2 -2.2,-0.7 -4.4,-1 -6.5,-1 z m 5461.5,-396.4 c -11.8,0 -21.5,9.3 -21.9,21.2 -3,89.2 -17.1,174.4 -42,253.2 -3.6,11.6 2.8,23.9 14.4,27.6 11.5,3.6 23.9,-2.8 27.6,-14.4 26,-82.6 40.8,-171.7 43.9,-265 0.4,-12.1 -9.1,-22.2 -21.2,-22.6 -0.3,0 -0.5,0 -0.8,0 z m -84.9,-517.3 c -2.2,0 -4.6,0.4 -6.9,1.1 -11.5,3.8 -17.7,16.2 -13.9,27.8 28.6,86.7 50.3,171.5 64.3,251.9 2.1,11.9 13.3,19.9 25.4,17.9 11.9,-2.1 19.9,-13.5 17.8,-25.4 -14.3,-82.6 -36.5,-169.4 -65.8,-258.2 -3.1,-9.3 -11.7,-15.1 -20.9,-15.1 z m -215.2,-480.2 c -3.6,0 -7.3,0.9 -10.6,2.8 -10.6,5.8 -14.5,19.2 -8.6,29.8 44,79.4 83.7,158 117.9,233.6 5.1,11 18.1,16 29.1,10.9 11.1,-5 16,-18 11,-29 -34.8,-76.7 -75,-156.3 -119.6,-236.8 -4,-7.2 -11.5,-11.3 -19.2,-11.3 z m -282.8,-444.4 c -4.4,0 -8.8,1.3 -12.7,4.1 -9.9,7 -12.2,20.7 -5.1,30.6 52.2,73.3 101.7,146.4 147,217.3 6.5,10.3 20.1,13.2 30.3,6.7 10.2,-6.5 13.2,-20.1 6.7,-30.3 -45.7,-71.5 -95.6,-145.3 -148.3,-219.2 -4.2,-6 -11,-9.2 -17.9,-9.2 z m -323,-416.3 c -5,0 -10,1.7 -14.1,5.1 -9.3,7.8 -10.5,21.7 -2.7,31 57.4,68.6 112.9,137.4 165,204.4 7.5,9.6 21.2,11.3 30.8,3.9 9.6,-7.5 11.3,-21.3 3.9,-30.9 -52.5,-67.4 -108.3,-136.6 -166,-205.6 -4.4,-5.2 -10.6,-7.9 -16.9,-7.9 z m -254.1,-290.4 c -5.3,0 -10.6,1.9 -14.8,5.7 -9,8.2 -9.6,22.1 -1.4,31 27.7,30.4 54.9,60.7 81.8,90.8 8,9.1 21.9,9.9 31,1.8 9,-8.1 9.8,-21.9 1.8,-31 -27,-30.3 -54.4,-60.7 -82.2,-91.2 -4.3,-4.7 -10.3,-7.1 -16.2,-7.1"
         style="fill:#000000;fill-opacity:1;fill-rule:nonzero;stroke:none"
         transform="matrix(0.13333333,0,0,-0.13333333,0,3333.3333)" />
      <path
         id="path113"
         d="m 5709.48,15135.3 c -6.16,0 -12.27,2.6 -16.61,7.6 -7.93,9.2 -6.95,23 2.22,31 65.37,56.6 132.91,114.3 200.72,171.3 9.3,7.8 23.11,6.6 30.94,-2.7 7.8,-9.3 6.6,-23.1 -2.68,-31 -67.65,-56.8 -135.01,-114.3 -200.22,-170.8 -4.15,-3.6 -9.28,-5.4 -14.37,-5.4 z m -392.7,-351.5 c -5.9,0 -11.79,2.3 -16.11,7 -8.24,8.9 -7.72,22.8 1.18,31 63.36,58.7 129.03,118.5 195.16,177.7 9.05,8.1 22.94,7.3 31.01,-1.7 8.09,-9.1 7.33,-22.9 -1.71,-31 -65.96,-59 -131.43,-118.6 -194.61,-177.2 -4.22,-3.9 -9.57,-5.8 -14.92,-5.8 z m -379.7,-365.6 c -5.6,0 -11.21,2.2 -15.5,6.4 -8.59,8.6 -8.61,22.5 -0.04,31.1 60.79,61 124.18,123.2 188.37,185 8.74,8.3 22.66,8.1 31.05,-0.6 8.41,-8.8 8.14,-22.7 -0.6,-31.1 -63.98,-61.5 -127.13,-123.6 -187.73,-184.3 -4.29,-4.3 -9.92,-6.5 -15.55,-6.5 z m -363.29,-381.8 c -5.25,0 -10.52,1.9 -14.72,5.7 -9,8.1 -9.7,22 -1.56,31 57.63,63.7 118.1,128.8 179.71,193.5 8.39,8.8 22.27,9.1 31.04,0.8 8.8,-8.4 9.13,-22.3 0.76,-31.1 -61.34,-64.4 -121.55,-129.2 -178.93,-192.7 -4.34,-4.8 -10.31,-7.2 -16.3,-7.2 z m -341.57,-401.3 c -4.79,0 -9.61,1.6 -13.66,4.8 -9.49,7.5 -11.07,21.3 -3.52,30.8 53.2,66.9 109.76,135.5 168.1,203.9 7.86,9.3 21.73,10.4 30.97,2.5 9.22,-7.9 10.32,-21.7 2.47,-31 -58.04,-68 -114.28,-136.3 -167.16,-202.7 -4.34,-5.5 -10.74,-8.3 -17.2,-8.3 z m -310.85,-425.4 c -4.16,0 -8.38,1.2 -12.1,3.6 -10.12,6.7 -12.89,20.3 -6.19,30.5 46.91,70.8 97.84,143.8 151.39,216.9 7.17,9.8 20.92,11.9 30.68,4.7 9.79,-7.1 11.92,-20.9 4.74,-30.7 -53.14,-72.5 -103.67,-144.9 -150.19,-215.2 -4.22,-6.4 -11.21,-9.8 -18.33,-9.8 z m -263.24,-456.1 c -3.2,0 -6.48,0.7 -9.57,2.2 -10.91,5.3 -15.45,18.4 -10.17,29.3 36.83,75.9 78.84,154.6 124.86,233.8 6.11,10.5 19.55,14.1 30.02,8 10.49,-6.1 14.05,-19.5 7.97,-30 -45.48,-78.3 -86.98,-156 -123.33,-230.9 -3.8,-7.9 -11.63,-12.4 -19.78,-12.4 z m -179.33,-494.2 c -1.6,0 -3.22,0.2 -4.84,0.6 -11.84,2.6 -19.27,14.4 -16.61,26.2 18.37,81.8 44.07,167.5 76.39,254.9 4.21,11.4 16.88,17.2 28.21,13 11.37,-4.2 17.19,-16.8 12.99,-28.2 -31.65,-85.6 -56.79,-169.5 -74.74,-249.3 -2.3,-10.2 -11.36,-17.2 -21.4,-17.2 z m 6103.78,-514.3 c -9.12,0 -17.66,5.7 -20.78,14.8 -3.92,11.5 2.2,24 13.67,27.9 82.41,28.2 165.32,57.1 248.68,86.6 11.42,4 23.98,-2 28.02,-13.4 4.05,-11.5 -1.95,-24 -13.38,-28 -83.5,-29.6 -166.54,-58.5 -249.1,-86.7 -2.36,-0.8 -4.75,-1.2 -7.11,-1.2 z m -6116.22,-8 c -10.07,0 -19.14,7 -21.41,17.2 -15.81,71.1 -23.82,146.9 -23.82,225.2 0,13.9 0.25,28 0.75,42.1 0.45,12.1 10.36,21.7 22.73,21.2 12.12,-0.4 21.6,-10.6 21.17,-22.7 -0.48,-13.7 -0.73,-27.2 -0.73,-40.6 0,-75.1 7.65,-147.7 22.77,-215.7 2.63,-11.8 -4.84,-23.5 -16.68,-26.2 -1.59,-0.3 -3.21,-0.5 -4.78,-0.5 z m 5615.73,-157.3 c -9.31,0 -17.94,6 -20.92,15.3 -3.68,11.6 2.71,23.9 14.27,27.6 82.92,26.4 166.42,53.4 250.45,81.2 11.5,3.8 23.92,-2.5 27.74,-14 3.8,-11.5 -2.45,-23.9 -13.97,-27.7 -84.18,-27.8 -167.83,-54.9 -250.91,-81.4 -2.2,-0.7 -4.45,-1 -6.66,-1 z M 8578,11425.9 c -9.51,0 -18.27,6.2 -21.07,15.8 -3.4,11.7 3.28,23.8 14.93,27.3 83.21,24.3 168.08,49.6 252.24,75.3 11.6,3.6 23.86,-3 27.42,-14.6 3.54,-11.6 -2.99,-23.8 -14.59,-27.4 -84.32,-25.7 -169.36,-51.1 -252.76,-75.5 -2.05,-0.6 -4.13,-0.9 -6.17,-0.9 z m -4853.64,-138.8 c -5.4,0 -10.81,2 -15.04,5.9 -67.19,63.2 -123.52,134 -167.43,210.3 -6.05,10.5 -2.44,23.9 8.07,29.9 10.51,6.1 23.95,2.5 29.99,-8 41.77,-72.6 95.41,-139.9 159.46,-200.2 8.83,-8.3 9.26,-22.2 0.95,-31 -4.32,-4.6 -10.16,-6.9 -16,-6.9 z m 4345.85,-2.4 c -9.73,0 -18.62,6.6 -21.21,16.4 -3.1,11.7 3.9,23.7 15.63,26.8 83.86,22.1 169.34,45.3 254.07,68.9 11.73,3.2 23.79,-3.6 27.04,-15.3 3.25,-11.7 -3.59,-23.8 -15.27,-27 -84.92,-23.7 -170.59,-46.9 -254.64,-69 -1.88,-0.5 -3.77,-0.8 -5.62,-0.8 z m -511.6,-126.7 c -9.99,0 -19.02,6.9 -21.36,17 -2.74,11.8 4.62,23.6 16.43,26.4 84,19.4 170.11,40 255.94,61.3 11.76,2.9 23.67,-4.2 26.6,-16 2.92,-11.8 -4.26,-23.7 -16.03,-26.6 -86.05,-21.3 -172.39,-42 -256.6,-61.5 -1.66,-0.4 -3.34,-0.6 -4.98,-0.6 z m -515.43,-110 c -10.3,0 -19.49,7.3 -21.52,17.8 -2.32,11.9 5.45,23.4 17.35,25.7 84.22,16.4 170.95,34.1 257.81,52.7 11.82,2.5 23.52,-5.1 26.06,-16.9 2.53,-11.9 -5.03,-23.6 -16.89,-26.1 -87.11,-18.6 -174.12,-36.4 -258.59,-52.8 -1.41,-0.3 -2.83,-0.4 -4.22,-0.4 z m -2867.97,-26.5 c -2.53,0 -5.09,0.4 -7.6,1.4 -87.96,32.4 -169.46,70 -242.21,111.8 -10.52,6.1 -14.15,19.5 -8.11,30 6.06,10.5 19.51,14.1 29.99,8.1 70.62,-40.6 149.87,-77.2 235.53,-108.7 11.38,-4.2 17.2,-16.9 13.01,-28.2 -3.28,-8.9 -11.68,-14.4 -20.61,-14.4 z m 2348.69,-63.6 c -10.68,0 -20.04,7.8 -21.68,18.7 -1.81,12 6.44,23.2 18.43,25 84.77,12.8 172.12,27 259.63,42.2 12.04,2.1 23.33,-5.9 25.4,-17.9 2.07,-11.9 -5.93,-23.3 -17.87,-25.4 -87.83,-15.2 -175.52,-29.5 -260.6,-42.3 -1.12,-0.2 -2.22,-0.3 -3.31,-0.3 z m -1837.42,-60.1 c -1.04,0 -2.09,0.1 -3.15,0.2 -91.26,13.1 -179.01,29.6 -260.83,48.9 -11.8,2.8 -19.1,14.6 -16.32,26.4 2.79,11.8 14.63,19.2 26.43,16.3 80.54,-19 167,-35.2 256.96,-48.1 12.01,-1.7 20.34,-12.9 18.61,-24.9 -1.56,-10.9 -10.95,-18.8 -21.7,-18.8 z m 1314.49,-5.2 c -11.18,0 -20.74,8.4 -21.83,19.8 -1.18,12.1 7.66,22.8 19.73,24 84.91,8.2 172.81,18 261.29,29.1 11.96,1.6 23,-7 24.52,-19 1.51,-12 -7.02,-23 -19.05,-24.5 -88.89,-11.2 -177.21,-21.1 -262.51,-29.3 -0.72,-0.1 -1.44,-0.1 -2.15,-0.1 z m -525.86,-33.5 c -11.86,0 -21.63,9.5 -21.94,21.4 -0.32,12.1 9.24,22.2 21.36,22.6 84.81,2.2 173.08,6.3 262.4,12 12.31,0.6 22.55,-8.4 23.33,-20.5 0.78,-12.1 -8.41,-22.5 -20.5,-23.3 -89.86,-5.8 -178.71,-9.9 -264.05,-12.1 -0.21,-0.1 -0.41,-0.1 -0.6,-0.1 z m -263.47,-1.2 c -0.15,0 -0.28,0 -0.42,0 -90.94,1.7 -179.9,5.7 -264.43,11.9 -12.09,0.9 -21.18,11.4 -20.29,23.5 0.88,12.1 11.34,21.2 23.5,20.3 83.74,-6.1 171.9,-10.1 262.03,-11.8 12.13,-0.2 21.78,-10.2 21.55,-22.3 -0.22,-12 -10.01,-21.6 -21.94,-21.6"
         style="fill:#000000;fill-opacity:1;fill-rule:nonzero;stroke:none"
         transform="matrix(0.13333333,0,0,-0.13333333,0,3333.3333)" />
      <path
         id="path114"
         d="m 16149.7,7087.6 c -11.9,0 -21.7,9.6 -21.9,21.5 l -2.6,116.8 c -0.2,12.1 9.4,22.2 21.5,22.4 12.1,0.2 22.2,-9.3 22.5,-21.5 l 2.5,-116.7 c 0.2,-12.2 -9.4,-22.2 -21.5,-22.5 -0.2,0 -0.3,0 -0.5,0"
         style="fill:#000000;fill-opacity:1;fill-rule:nonzero;stroke:none"
         transform="matrix(0.13333333,0,0,-0.13333333,0,3333.3333)" />
      <path
         id="path115"
         d="m 16158.5,6678.9 c -11.9,0 -21.7,9.5 -22,21.5 l -2.5,116.8 c -0.2,12.1 9.4,22.1 21.5,22.4 11.9,0.1 22.2,-9.4 22.5,-21.5 l 2.5,-116.8 c 0.2,-12.1 -9.4,-22.1 -21.5,-22.4 -0.2,0 -0.3,0 -0.5,0"
         style="fill:#000000;fill-opacity:1;fill-rule:nonzero;stroke:none"
         transform="matrix(0.13333333,0,0,-0.13333333,0,3333.3333)" />
      <path
         id="path116"
         d="m 15893.9,6939.6 c -12,0 -21.9,9.7 -21.9,21.8 -0.1,12.1 9.6,22 21.7,22.1 l 115.1,0.9 c 12.4,-0.5 22.1,-9.6 22.1,-21.8 0.1,-12.1 -9.6,-22 -21.7,-22.1 l -115.1,-0.9 c -0.1,0 -0.1,0 -0.2,0"
         style="fill:#000000;fill-opacity:1;fill-rule:nonzero;stroke:none"
         transform="matrix(0.13333333,0,0,-0.13333333,0,3333.3333)" />
      <path
         id="path117"
         d="m 16296.7,6942.8 c -12,0 -21.9,9.7 -21.9,21.8 -0.1,12.1 9.6,22 21.7,22.1 l 115.1,0.9 c 0.1,0 0.1,0 0.2,0 12,0 21.9,-9.7 22,-21.8 0,-12.1 -9.7,-22 -21.8,-22.1 l -115.1,-0.9 c -0.1,0 -0.1,0 -0.2,0"
         style="fill:#000000;fill-opacity:1;fill-rule:nonzero;stroke:none"
         transform="matrix(0.13333333,0,0,-0.13333333,0,3333.3333)" />
      <path
         id="path118"
         d="m 11141.6,19868.9 c -79.3,-35.6 -115.4,-130.5 -80.4,-211.6 17,-39.6 48.2,-69.9 87.7,-85.2 38.7,-15.1 80.9,-14 118.7,3.1 79.4,35.6 115.4,130.5 80.5,211.6 -17.1,39.6 -48.3,69.9 -87.8,85.2 -38.7,15.1 -80.8,14 -118.7,-3.1 z m 63.1,-351.3 c -24.2,0 -48.4,4.5 -71.7,13.5 -50.6,19.7 -90.4,58.3 -112.2,108.8 -44.4,103 1.7,223.7 102.8,269.1 48.7,21.9 102.9,23.3 152.6,4 50.6,-19.7 90.4,-58.3 112.2,-108.8 44.4,-103 -1.7,-223.7 -102.8,-269.1 -25.9,-11.7 -53.4,-17.5 -80.9,-17.5"
         style="fill:#000000;fill-opacity:1;fill-rule:nonzero;stroke:none"
         transform="matrix(0.13333333,0,0,-0.13333333,0,3333.3333)" />
    </g>
  </g>
</svg>
